<svg xmlns="http://www.w3.org/2000/svg" xmlns:xlink="http://www.w3.org/1999/xlink" width="124" height="124" viewBox="0 0 124 124">
  <defs>
    <clipPath id="clip-path">
      <rect id="Rectángulo_46905" data-name="Rectángulo 46905" width="102.771" height="102.726" fill="#fff"/>
    </clipPath>
  </defs>
  <g id="Grupo_81232" data-name="Grupo 81232" transform="translate(-733.667 -2721)">
    <g id="Elipse_4726" data-name="Elipse 4726" transform="translate(733.667 2721)" fill="#12263f" stroke="#707070" stroke-width="1">
      <circle cx="62" cy="62" r="62" stroke="none"/>
      <circle cx="62" cy="62" r="61.5" fill="none"/>
    </g>
    <g id="Grupo_81132" data-name="Grupo 81132" transform="translate(744.114 2731.637)">
      <g id="Grupo_81131" data-name="Grupo 81131" clip-path="url(#clip-path)">
        <path id="Trazado_115190" data-name="Trazado 115190" d="M102.771,54.4c-.263,1.982-.471,3.974-.8,5.946A51.363,51.363,0,0,1,61.508,101.8c-1.8.346-3.629.583-5.454.79-1.382.157-2.1-.344-2.147-1.331s.6-1.539,1.965-1.661A44.065,44.065,0,0,0,72.1,95.1c15.03-7.655,24.36-19.716,27.034-36.44A48.352,48.352,0,1,0,39.31,98.277c2.9.729,5.924.988,8.893,1.448,1.122.174,1.678.724,1.6,1.655-.078.906-.8,1.418-1.887,1.338A50.176,50.176,0,0,1,21.8,93.438C10.324,85.2,3.166,74.126.764,60.178A51.186,51.186,0,0,1,31.933,3.858,49.6,49.6,0,0,1,47.984.176,8.056,8.056,0,0,0,48.96,0h4.819a6.663,6.663,0,0,0,.874.171A49.5,49.5,0,0,1,79.278,8.318a50.62,50.62,0,0,1,22.693,34.229c.344,1.863.537,3.755.8,5.633Z" transform="translate(0)" fill="#fff"/>
        <path id="Trazado_115191" data-name="Trazado 115191" d="M33.112,119.358a41.681,41.681,0,0,1,5.5-21.2,79.181,79.181,0,0,1,4.838-7,1.479,1.479,0,0,1,2.359-.218c.257.211.483.463.719.7l56.926,56.916c1.937,1.937,1.894,2.34-.227,4.054a40.632,40.632,0,0,1-20.868,9.1c-17.567,2.128-31.647-4.091-41.893-18.5a40.663,40.663,0,0,1-7.357-23.862m11.781-25.13a39.77,39.77,0,0,0,3.215,53.457c16.649,16.26,40.054,13.616,52.88,2.759l-2.228-2.226a28.352,28.352,0,0,1-3.684.527c-5.719.052-11.44.026-17.16.019a7.941,7.941,0,0,1-1.5-.117,2.521,2.521,0,0,1-2.074-2.056c-.1-.416-.128-.849-.188-1.261-1.718.615-3.374,1.317-5.091,1.8-4.446,1.249-7.8-.809-8.477-5.22a9.03,9.03,0,0,0-.881-3.123,1.423,1.423,0,0,1,.672-2.042c.827-.5,1.676-.966,2.671-1.535-1.1-.592-2.085-1.137-3.084-1.65a1.8,1.8,0,0,1-1.087-1.852c.045-.886.01-1.776.01-2.595a24.05,24.05,0,0,1-2.583-.687,3.3,3.3,0,0,1-1.6-5.292c.434-.632.974-1.19,1.433-1.806,2.367-3.176,3.831-6.53,3.155-10.705a6.874,6.874,0,0,0-2.142-4.137c-4.109-4.024-8.141-8.126-12.262-12.257m32.4,51.465h18.55L62.54,112.414c-.039.565-.036,1.405-.165,2.224a19.116,19.116,0,0,1-4.578,9.432c-.329.389-.582.842-1.063,1.549,1.41.182,2.516.341,3.627.464,1.244.138,1.713.623,1.7,1.881a18.073,18.073,0,0,1-.126,2.2,1.227,1.227,0,0,0,.815,1.481,22.851,22.851,0,0,1,2.73,1.477c1.782,1.114,1.8,2.952.051,4.121-.772.516-1.6.95-2.278,1.348.093.856.207,1.6.248,2.351.148,2.692,1.719,3.96,4.34,3.377a25.4,25.4,0,0,0,3.232-1.046c.938-.346,1.821-.855,2.773-1.145a2.467,2.467,0,0,1,3.343,2.267c.041.4.066.793.107,1.3" transform="translate(-24.786 -67.717)" fill="#fff"/>
        <path id="Trazado_115192" data-name="Trazado 115192" d="M101.222,43.595l9.58,9.588c1.65-1.559,3.23-3.3,5.059-4.725a21.369,21.369,0,0,1,12.429-4.494c8.014-.363,14.647,2.5,19.508,8.886,4.581,6.018,5.687,12.819,2.965,19.9a55.253,55.253,0,0,0-3.4,16.611,1.157,1.157,0,0,0,.244.8c3.052,3.09,6.126,6.159,9.429,9.467,1.347-2.522,2.73-4.838,3.85-7.275a35.932,35.932,0,0,0,3.085-11.567c.032-.332.088-.663.149-.992a1.5,1.5,0,1,1,2.957.437c-.3,2.049-.543,4.116-1.013,6.127a42.381,42.381,0,0,1-7.382,15.773c-1.061,1.426-1.671,1.521-2.974.3q-2.161-2.023-4.254-4.118-26.58-26.58-53.149-53.17c-.165-.166-.339-.324-.493-.5a1.52,1.52,0,0,1,.224-2.5,42.761,42.761,0,0,1,47.45-3.135,41.637,41.637,0,0,1,21.042,29.543c.244,1.278.385,2.577.546,3.87a1.546,1.546,0,0,1-1.23,1.88c-.917.142-1.6-.4-1.736-1.5a43.875,43.875,0,0,0-2.076-9.578,40.635,40.635,0,0,0-40.806-26.852,38.9,38.9,0,0,0-19.868,7.068.563.563,0,0,0-.136.149m43.249,43.172a8.4,8.4,0,0,0,.157-.881,48.977,48.977,0,0,1,3.293-14.092A17.788,17.788,0,0,0,142.907,51.9,20.107,20.107,0,0,0,120.25,49.19a18.314,18.314,0,0,0-7.057,6.305l31.278,31.272" transform="translate(-72.811 -24.918)" fill="#fff"/>
        <path id="Trazado_115193" data-name="Trazado 115193" d="M78.634,242.692a12.443,12.443,0,0,1,3.347-8.565c.836-.916,1.624-1.049,2.353-.438s.749,1.449-.059,2.379a9.355,9.355,0,0,0-2.073,9.679,17.54,17.54,0,0,0,2.239,3.743,1.552,1.552,0,0,1,.091,2.014,1.5,1.5,0,0,1-2.424-.1,12.459,12.459,0,0,1-3.475-8.716" transform="translate(-58.864 -174.657)" fill="#fff"/>
        <path id="Trazado_115194" data-name="Trazado 115194" d="M96.343,249.577a9.271,9.271,0,0,1,2.49-6.365,1.556,1.556,0,0,1,2.2-.39,1.478,1.478,0,0,1,.093,2.29,6.32,6.32,0,0,0-1.43,6.5,9.869,9.869,0,0,0,1.413,2.384c.635.908.667,1.721-.016,2.313a1.546,1.546,0,0,1-2.277-.359,9.309,9.309,0,0,1-2.473-6.37" transform="translate(-72.121 -181.544)" fill="#fff"/>
        <path id="Trazado_115195" data-name="Trazado 115195" d="M114.665,256.465a5.464,5.464,0,0,1,1.516-3.817,1.543,1.543,0,0,1,2.218-.293,1.5,1.5,0,0,1,.127,2.152c-1.216,1.786-1.214,2.583.054,4.421a1.484,1.484,0,0,1-2.226,1.961,5.632,5.632,0,0,1-1.69-4.423" transform="translate(-85.837 -188.647)" fill="#fff"/>
      </g>
    </g>
  </g>
</svg>
