<svg xmlns="http://www.w3.org/2000/svg" width="1306.13" height="1044.821" viewBox="0 0 1306.13 1044.821">
  <g id="Grupo_81227" data-name="Grupo 81227" transform="translate(-180.333 -418.297)">
    <line id="Línea_175" data-name="Línea 175" y2="387" transform="translate(670.833 721.5)" fill="none" stroke="#276393" stroke-width="3"/>
    <line id="Línea_222" data-name="Línea 222" y2="166" transform="translate(525.833 567.5)" fill="none" stroke="#276393" stroke-width="3"/>
    <line id="Línea_223" data-name="Línea 223" y2="161" transform="translate(525.833 1019.5)" fill="none" stroke="#276393" stroke-width="3"/>
    <line id="Línea_195" data-name="Línea 195" y2="387" transform="translate(935.833 721.5)" fill="none" stroke="#276393" stroke-width="3"/>
    <line id="Línea_208" data-name="Línea 208" y2="355.382" transform="translate(1208.833 1076.118)" fill="none" stroke="#276393" stroke-width="3"/>
    <line id="Línea_207" data-name="Línea 207" y2="135" transform="translate(1082.833 973.5)" fill="none" stroke="#276393" stroke-width="3"/>
    <line id="Línea_196" data-name="Línea 196" y2="294" transform="translate(1135.833 439.5)" fill="none" stroke="#276393" stroke-width="3"/>
    <line id="Línea_215" data-name="Línea 215" y2="327" transform="translate(453.833 439.5)" fill="none" stroke="#276393" stroke-width="3"/>
    <line id="Línea_203" data-name="Línea 203" y2="146" transform="translate(1135.833 907.5)" fill="none" stroke="#276393" stroke-width="3"/>
    <line id="Línea_198" data-name="Línea 198" x2="74" transform="translate(1099.833 732.5)" fill="none" stroke="#276393" stroke-width="3"/>
    <line id="Línea_199" data-name="Línea 199" x2="49" transform="translate(1135.833 633.5)" fill="none" stroke="#276393" stroke-width="3"/>
    <line id="Línea_204" data-name="Línea 204" x2="49" transform="translate(1135.833 907.5)" fill="none" stroke="#276393" stroke-width="3"/>
    <line id="Línea_209" data-name="Línea 209" x2="49" transform="translate(1208.833 1136.5)" fill="none" stroke="#276393" stroke-width="3"/>
    <line id="Línea_210" data-name="Línea 210" x2="49" transform="translate(1208.833 1195.5)" fill="none" stroke="#276393" stroke-width="3"/>
    <line id="Línea_211" data-name="Línea 211" x2="49" transform="translate(1208.833 1251.5)" fill="none" stroke="#276393" stroke-width="3"/>
    <line id="Línea_213" data-name="Línea 213" x2="49" transform="translate(1208.833 1365.5)" fill="none" stroke="#276393" stroke-width="3"/>
    <line id="Línea_212" data-name="Línea 212" x2="49" transform="translate(1208.833 1307.5)" fill="none" stroke="#276393" stroke-width="3"/>
    <line id="Línea_214" data-name="Línea 214" x2="49" transform="translate(1208.833 1431.5)" fill="none" stroke="#276393" stroke-width="3"/>
    <line id="Línea_205" data-name="Línea 205" x2="102" transform="translate(1082.833 973.5)" fill="none" stroke="#276393" stroke-width="3"/>
    <line id="Línea_224" data-name="Línea 224" x2="139" transform="translate(384.833 1019.5)" fill="none" stroke="#276393" stroke-width="3"/>
    <line id="Línea_225" data-name="Línea 225" x2="139" transform="translate(384.833 1180.5)" fill="none" stroke="#276393" stroke-width="3"/>
    <line id="Línea_206" data-name="Línea 206" x2="49" transform="translate(1135.833 1053)" fill="none" stroke="#276393" stroke-width="3"/>
    <line id="Línea_200" data-name="Línea 200" x2="49" transform="translate(1135.833 567.5)" fill="none" stroke="#276393" stroke-width="3"/>
    <line id="Línea_201" data-name="Línea 201" x2="49" transform="translate(1135.833 501.5)" fill="none" stroke="#276393" stroke-width="3"/>
    <line id="Línea_202" data-name="Línea 202" x2="49" transform="translate(1135.833 439.5)" fill="none" stroke="#276393" stroke-width="3"/>
    <line id="Línea_216" data-name="Línea 216" x2="62" transform="translate(391.833 439.5)" fill="none" stroke="#276393" stroke-width="3"/>
    <line id="Línea_217" data-name="Línea 217" x2="62" transform="translate(391.833 503.5)" fill="none" stroke="#276393" stroke-width="3"/>
    <line id="Línea_218" data-name="Línea 218" x2="134" transform="translate(391.833 568.5)" fill="none" stroke="#276393" stroke-width="3"/>
    <line id="Línea_219" data-name="Línea 219" x2="62" transform="translate(391.833 633.5)" fill="none" stroke="#276393" stroke-width="3"/>
    <line id="Línea_220" data-name="Línea 220" x2="62" transform="translate(391.833 702.5)" fill="none" stroke="#276393" stroke-width="3"/>
    <line id="Línea_221" data-name="Línea 221" x2="62" transform="translate(391.833 766.5)" fill="none" stroke="#276393" stroke-width="3"/>
    <g id="Grupo_80785" data-name="Grupo 80785">
      <path id="Trazado_183767" data-name="Trazado 183767" d="M49.423,0H339.192c27.3,0,49.423,20.849,49.423,46.567s-22.128,46.567-49.423,46.567H49.423C22.128,93.135,0,72.286,0,46.567S22.128,0,49.423,0Z" transform="translate(605.692 864)" fill="#104d92"/>
      <text id="Tamizaje_y_atención_de_personas_con_riesgo_alto_frente_al_consumo_abuso_y_adicción_a_SPA" data-name="Tamizaje y atención de personas con riesgo
alto frente al consumo, abuso y adicción a SPA" transform="translate(798.5 904.067)" fill="#fff" font-size="16" font-family="Roboto-Black, Roboto" font-weight="800"><tspan x="-158.047" y="0">Tamizaje y atención de personas con riesgo</tspan><tspan x="-168.754" y="24">alto frente al consumo, abuso y adicción a SPA</tspan></text>
      <path id="Trazado_183767-2" data-name="Trazado 183767" d="M24.545,0H168.455C182.011,0,193,16.342,193,36.5S182.011,73,168.455,73H24.545C10.989,73,0,56.658,0,36.5S10.989,0,24.545,0Z" transform="translate(494.333 693)" fill="#a5d20e"/>
      <path id="Trazado_183767-3" data-name="Trazado 183767" d="M24.545,0H168.455C182.011,0,193,16.342,193,36.5S182.011,73,168.455,73H24.545C10.989,73,0,56.658,0,36.5S10.989,0,24.545,0Z" transform="translate(494.333 1059)" fill="#a5d20e"/>
      <path id="Trazado_183767-4" data-name="Trazado 183767" d="M24.545,0H168.455C182.011,0,193,16.342,193,36.5S182.011,73,168.455,73H24.545C10.989,73,0,56.658,0,36.5S10.989,0,24.545,0Z" transform="translate(912.333 693)" fill="#a5d20e"/>
      <path id="Trazado_183767-5" data-name="Trazado 183767" d="M24.545,0H168.455C182.011,0,193,16.342,193,36.5S182.011,73,168.455,73H24.545C10.989,73,0,56.658,0,36.5S10.989,0,24.545,0Z" transform="translate(912.333 1059)" fill="#a5d20e"/>
      <text id="Escalas_de_Tamizaje" data-name="Escalas de Tamizaje" transform="translate(589.333 733)" fill="#12263f" font-size="16" font-family="Roboto-Bold, Roboto" font-weight="700"><tspan x="-72.57" y="0">Escalas de Tamizaje</tspan></text>
      <text id="Entornos_protectores" data-name="Entornos protectores" transform="translate(589.333 1099)" fill="#12263f" font-size="16" font-family="Roboto-Bold, Roboto" font-weight="700"><tspan x="-75.512" y="0">Entornos protectores</tspan></text>
      <text id="Prevención_y_atención_del_consumo_de_SPA" data-name="Prevención y atención
del consumo de SPA" transform="translate(1007.333 723)" fill="#12263f" font-size="16" font-family="Roboto-Bold, Roboto" font-weight="700"><tspan x="-79.465" y="0">Prevención y atención</tspan><tspan x="-73.742" y="24">del consumo de SPA</tspan></text>
      <text id="Intervención_breve" data-name="Intervención breve" transform="translate(1007.333 1099)" fill="#12263f" font-size="16" font-family="Roboto-Bold, Roboto" font-weight="700"><tspan x="-66.852" y="0">Intervención breve</tspan></text>
      <path id="Trazado_183767-6" data-name="Trazado 183767" d="M22.765,0h133.47C168.808,0,179,9.4,179,21s-10.192,21-22.765,21H22.765C10.192,42,0,32.6,0,21S10.192,0,22.765,0Z" transform="translate(1172.923 418.297)" fill="#bde0fc"/>
      <path id="Trazado_183767-7" data-name="Trazado 183767" d="M22.765,0h133.47C168.808,0,179,9.4,179,21s-10.192,21-22.765,21H22.765C10.192,42,0,32.6,0,21S10.192,0,22.765,0Z" transform="translate(1172.923 889.067)" fill="#bde0fc"/>
      <path id="Trazado_183767-8" data-name="Trazado 183767" d="M22.765,0h133.47C168.808,0,179,9.4,179,21s-10.192,21-22.765,21H22.765C10.192,42,0,32.6,0,21S10.192,0,22.765,0Z" transform="translate(1172.923 953.067)" fill="#bde0fc"/>
      <path id="Trazado_183767-9" data-name="Trazado 183767" d="M22.765,0h133.47C168.808,0,179,9.4,179,21s-10.192,21-22.765,21H22.765C10.192,42,0,32.6,0,21S10.192,0,22.765,0Z" transform="translate(1234.923 1115.364)" fill="#ffe0b2"/>
      <path id="Trazado_183767-10" data-name="Trazado 183767" d="M22.765,0h133.47C168.808,0,179,9.4,179,21s-10.192,21-22.765,21H22.765C10.192,42,0,32.6,0,21S10.192,0,22.765,0Z" transform="translate(1234.923 1229.364)" fill="#ffe0b2"/>
      <path id="Trazado_183767-11" data-name="Trazado 183767" d="M22.765,0h133.47C168.808,0,179,9.4,179,21s-10.192,21-22.765,21H22.765C10.192,42,0,32.6,0,21S10.192,0,22.765,0Z" transform="translate(1234.923 1343.364)" fill="#ffe0b2"/>
      <path id="Trazado_183767-12" data-name="Trazado 183767" d="M22.765,0h133.47C168.808,0,179,9.4,179,21s-10.192,21-22.765,21H22.765C10.192,42,0,32.6,0,21S10.192,0,22.765,0Z" transform="translate(1234.923 1172.364)" fill="#ffe0b2"/>
      <path id="Trazado_183767-13" data-name="Trazado 183767" d="M22.765,0h133.47C168.808,0,179,9.4,179,21s-10.192,21-22.765,21H22.765C10.192,42,0,32.6,0,21S10.192,0,22.765,0Z" transform="translate(1234.923 1286.364)" fill="#ffe0b2"/>
      <path id="Trazado_183767-14" data-name="Trazado 183767" d="M31.99,0H219.55c17.668,0,31.99,14.048,31.99,31.377s-14.323,31.377-31.99,31.377H31.99C14.323,62.754,0,48.706,0,31.377S14.323,0,31.99,0Z" transform="translate(1234.923 1400.364)" fill="#ffe0b2"/>
      <path id="Trazado_183767-15" data-name="Trazado 183767" d="M22.765,0h133.47C168.808,0,179,9.4,179,21s-10.192,21-22.765,21H22.765C10.192,42,0,32.6,0,21S10.192,0,22.765,0Z" transform="translate(221.355 418.297)" fill="#bde0fc"/>
      <path id="Trazado_183767-16" data-name="Trazado 183767" d="M22.765,0h133.47C168.808,0,179,9.4,179,21s-10.192,21-22.765,21H22.765C10.192,42,0,32.6,0,21S10.192,0,22.765,0Z" transform="translate(1172.923 482.297)" fill="#bde0fc"/>
      <path id="Trazado_183767-17" data-name="Trazado 183767" d="M22.765,0h133.47C168.808,0,179,9.4,179,21s-10.192,21-22.765,21H22.765C10.192,42,0,32.6,0,21S10.192,0,22.765,0Z" transform="translate(221.355 482.297)" fill="#bde0fc"/>
      <path id="Trazado_183767-18" data-name="Trazado 183767" d="M17.069,0H117.143c9.427,0,17.069,9.4,17.069,21s-7.642,21-17.069,21H17.069C7.642,42,0,32.6,0,21S7.642,0,17.069,0Z" transform="translate(266.144 613.297)" fill="#bde0fc"/>
      <path id="Trazado_183767-19" data-name="Trazado 183767" d="M17.069,0H117.143c9.427,0,17.069,9.4,17.069,21s-7.642,21-17.069,21H17.069C7.642,42,0,32.6,0,21S7.642,0,17.069,0Z" transform="translate(266.144 744.297)" fill="#bde0fc"/>
      <path id="Trazado_183767-20" data-name="Trazado 183767" d="M22.765,0h133.47C168.808,0,179,9.4,179,21s-10.192,21-22.765,21H22.765C10.192,42,0,32.6,0,21S10.192,0,22.765,0Z" transform="translate(1172.923 546.297)" fill="#bde0fc"/>
      <path id="Trazado_183767-21" data-name="Trazado 183767" d="M27.982,0H192.04c15.454,0,27.982,10.521,27.982,23.5S207.494,47,192.04,47H27.982C12.528,47,0,36.479,0,23.5S12.528,0,27.982,0Z" transform="translate(1172.923 610.297)" fill="#bde0fc"/>
      <path id="Trazado_183767-22" data-name="Trazado 183767" d="M27.982,0H192.04c15.454,0,27.982,10.521,27.982,23.5S207.494,47,192.04,47H27.982C12.528,47,0,36.479,0,23.5S12.528,0,27.982,0Z" transform="translate(180.333 546.297)" fill="#bde0fc"/>
      <path id="Trazado_183767-23" data-name="Trazado 183767" d="M27.982,0H192.04c15.454,0,27.982,10.521,27.982,23.5S207.494,47,192.04,47H27.982C12.528,47,0,36.479,0,23.5S12.528,0,27.982,0Z" transform="translate(180.333 678.297)" fill="#bde0fc"/>
      <path id="Trazado_183767-24" data-name="Trazado 183767" d="M24.547,0H168.464c13.557,0,24.547,16.632,24.547,37.149S182.021,74.3,168.464,74.3H24.547C10.99,74.3,0,57.666,0,37.149S10.99,0,24.547,0Z" transform="translate(207.345 985.202)" fill="#bde0fc"/>
      <path id="Trazado_183767-25" data-name="Trazado 183767" d="M27.49,0H188.667c15.183,0,27.49,21.944,27.49,49.013s-12.308,49.013-27.49,49.013H27.49C12.308,98.025,0,76.082,0,49.013S12.308,0,27.49,0Z" transform="translate(195.771 1131.499)" fill="#bde0fc"/>
      <path id="Trazado_183767-26" data-name="Trazado 183767" d="M27.49,0H188.667c15.183,0,27.49,16.3,27.49,36.4s-12.308,36.4-27.49,36.4H27.49C12.308,72.8,0,56.5,0,36.4S12.308,0,27.49,0Z" transform="translate(1172.923 1017.067)" fill="#bde0fc"/>
      <path id="Trazado_183767-27" data-name="Trazado 183767" d="M37.156,0H255c20.52,0,37.156,22.374,37.156,49.974S275.519,99.947,255,99.947H37.156C16.635,99.947,0,77.573,0,49.974S16.635,0,37.156,0Z" transform="translate(1168.923 677.297)" fill="#bde0fc"/>
      <text id="Prevención" transform="translate(1233.923 444.297)" fill="#12263f" font-size="16" font-family="Roboto-Bold, Roboto" font-weight="700"><tspan x="-40.371" y="0">Prevención</tspan></text>
      <text id="Objetivos" transform="translate(1234.923 915.067)" fill="#12263f" font-size="16" font-family="Roboto-Bold, Roboto" font-weight="700"><tspan x="-33.875" y="0">Objetivos</tspan></text>
      <text id="Elementos" transform="translate(1238.923 979.067)" fill="#12263f" font-size="16" font-family="Roboto-Bold, Roboto" font-weight="700"><tspan x="-37.898" y="0">Elementos</tspan></text>
      <text id="Objetivo" transform="translate(1265.08 1141.364)" fill="#12263f" font-size="16" font-family="Roboto-Bold, Roboto" font-weight="700"><tspan x="0" y="0">Objetivo</tspan></text>
      <text id="Estadiar" transform="translate(1265.08 1255.364)" fill="#12263f" font-size="16" font-family="Roboto-Bold, Roboto" font-weight="700"><tspan x="0" y="0">Estadiar</tspan></text>
      <text id="Mantenimiento" transform="translate(1265.08 1369.364)" fill="#12263f" font-size="16" font-family="Roboto-Bold, Roboto" font-weight="700"><tspan x="0" y="0">Mantenimiento</tspan></text>
      <text id="Rueda_de_cambio" data-name="Rueda de cambio" transform="translate(1265.08 1198.364)" fill="#12263f" font-size="16" font-family="Roboto-Bold, Roboto" font-weight="700"><tspan x="0" y="0">Rueda de cambio</tspan></text>
      <text id="Determinación" transform="translate(1265.08 1312.364)" fill="#12263f" font-size="16" font-family="Roboto-Bold, Roboto" font-weight="700"><tspan x="0" y="0">Determinación</tspan></text>
      <text id="Estrategias_para_desarrollar_la_entrevista_motivacional" data-name="Estrategias para desarrollar
la entrevista motivacional" transform="translate(1265.08 1426.364)" fill="#12263f" font-size="16" font-family="Roboto-Bold, Roboto" font-weight="700"><tspan x="0" y="0">Estrategias para desarrollar</tspan><tspan x="0" y="24">la entrevista motivacional</tspan></text>
      <text id="Tipos" transform="translate(349.345 444.297)" fill="#12263f" font-size="16" font-family="Roboto-Bold, Roboto" font-weight="700"><tspan x="-20.211" y="0">Tipos</tspan></text>
      <text id="Mitigación" transform="translate(1234.923 508.297)" fill="#12263f" font-size="16" font-family="Roboto-Bold, Roboto" font-weight="700"><tspan x="-38.105" y="0">Mitigación</tspan></text>
      <text id="Objetivos-2" data-name="Objetivos" transform="translate(335.345 508.297)" fill="#12263f" font-size="16" font-family="Roboto-Bold, Roboto" font-weight="700"><tspan x="-33.875" y="0">Objetivos</tspan></text>
      <text id="Superación" transform="translate(1241.923 572.297)" fill="#12263f" font-size="16" font-family="Roboto-Bold, Roboto" font-weight="700"><tspan x="-40.609" y="0">Superación</tspan></text>
      <text id="Escala_Carlos_CRAFTT" data-name="Escala Carlos CRAFTT" transform="translate(288.345 574.297)" fill="#12263f" font-size="16" font-family="Roboto-Bold, Roboto" font-weight="700"><tspan x="-80.813" y="0">Escala Carlos CRAFTT</tspan></text>
      <text id="APGAR_FAMILIAR" data-name="APGAR FAMILIAR" transform="translate(305.345 706.297)" fill="#12263f" font-size="16" font-family="Roboto-Bold, Roboto" font-weight="700"><tspan x="-64.051" y="0">APGAR FAMILIAR</tspan></text>
      <text id="Cómo_fortalecer_los_entornos_protectores" data-name="Cómo fortalecer los
entornos protectores" transform="translate(305.345 1013.202)" fill="#12263f" font-size="16" font-family="Roboto-Bold, Roboto" font-weight="700"><tspan x="-71.305" y="0">Cómo fortalecer los</tspan><tspan x="-75.336" y="24">entornos protectores</tspan></text>
      <text id="Estrategias_de_intervención_individual_y_colectiva" data-name="Estrategias de
intervención individual
y colectiva" transform="translate(305.345 1159.499)" fill="#12263f" font-size="16" font-family="Roboto-Bold, Roboto" font-weight="700"><tspan x="-51.348" y="0">Estrategias de</tspan><tspan x="-81.492" y="24">intervención individual</tspan><tspan x="-38.418" y="48">y colectiva</tspan></text>
      <text id="Entrevista_motivacional_de_intevención" data-name="Entrevista motivacional
de intevención" transform="translate(1198.495 1045.067)" fill="#12263f" font-size="16" font-family="Roboto-Bold, Roboto" font-weight="700"><tspan x="0" y="0">Entrevista motivacional</tspan><tspan x="0" y="24">de intevención</tspan></text>
      <text id="AUDIT" transform="translate(346.345 772.297)" fill="#12263f" font-size="16" font-family="Roboto-Bold, Roboto" font-weight="700"><tspan x="-22.949" y="0">AUDIT</tspan></text>
      <text id="Capacidad_de_respuesta" data-name="Capacidad de respuesta" transform="translate(1282.923 639.297)" fill="#12263f" font-size="16" font-family="Roboto-Bold, Roboto" font-weight="700"><tspan x="-86.422" y="0">Capacidad de respuesta</tspan></text>
      <text id="ASSIST" transform="translate(342.345 639.297)" fill="#12263f" font-size="16" font-family="Roboto-Bold, Roboto" font-weight="700"><tspan x="-27.418" y="0">ASSIST</tspan></text>
      <text id="Exigencia_y_garantía_de_derechos_en_salud_para_las_personas_consumidoras_de_SPA" data-name="Exigencia y garantía de
derechos en salud para las
personas consumidoras de SPA" transform="translate(1196.923 707.297)" fill="#12263f" font-size="16" font-family="Roboto-Bold, Roboto" font-weight="700"><tspan x="0" y="0">Exigencia y garantía de</tspan><tspan x="0" y="24">derechos en salud para las</tspan><tspan x="0" y="48">personas consumidoras de SPA</tspan></text>
    </g>
  </g>
</svg>
