<svg xmlns="http://www.w3.org/2000/svg" xmlns:xlink="http://www.w3.org/1999/xlink" width="213" height="213" viewBox="0 0 213 213">
  <defs>
    <clipPath id="clip-path">
      <rect id="Rectángulo_46848" data-name="Rectángulo 46848" width="165.953" height="179.727" fill="none"/>
    </clipPath>
    <clipPath id="clip-path-2">
      <rect id="Rectángulo_46847" data-name="Rectángulo 46847" width="165.953" height="179.728" fill="none"/>
    </clipPath>
    <clipPath id="clip-path-3">
      <rect id="Rectángulo_46846" data-name="Rectángulo 46846" width="24.366" height="24.32" fill="none"/>
    </clipPath>
  </defs>
  <g id="Grupo_81236" data-name="Grupo 81236" transform="translate(-696.667 -3419)">
    <g id="Elipse_4729" data-name="Elipse 4729" transform="translate(696.667 3419)" fill="#f6f6f6" stroke="#707070" stroke-width="1">
      <circle cx="106.5" cy="106.5" r="106.5" stroke="none"/>
      <circle cx="106.5" cy="106.5" r="106" fill="none"/>
    </g>
    <g id="Grupo_81103" data-name="Grupo 81103" transform="translate(720.26 3431.272)">
      <g id="Grupo_81102" data-name="Grupo 81102" clip-path="url(#clip-path)">
        <g id="Grupo_81101" data-name="Grupo 81101" transform="translate(0 0)">
          <g id="Grupo_81100" data-name="Grupo 81100" clip-path="url(#clip-path-2)">
            <path id="Trazado_115152" data-name="Trazado 115152" d="M62.587,208.214c-1.534-1.02-3.1-1.987-4.617-3.037a1.334,1.334,0,0,1-.494-1.016c.184-2.126.49-4.242.659-6.369a1.128,1.128,0,0,1,.779-1.18c2.085-.831,4.148-1.719,6.218-2.588.336-.141.666-.294,1.245-.55l-3.041-9.547c-2.669.548-5.1,1.008-7.515,1.566a1.48,1.48,0,0,1-1.869-.684c-1.131-1.606-2.485-3.053-3.7-4.6a1.21,1.21,0,0,1-.164-1c.806-2.13,1.61-4.265,2.544-6.341a1.285,1.285,0,0,0-.675-1.985,6.2,6.2,0,0,1-.932-.717L46.4,167.721a3.147,3.147,0,0,1-.578-.116c-1.879-.754-1.518-.741-2.571.83-1.284,1.914-2.535,3.85-3.633,5.522l-8.328-.722-3.3-7.861a32,32,0,0,0-9.516,3.029c.545,2.624,1.069,5.184,1.612,7.74a.886.886,0,0,1-.377,1.077c-1.754,1.33-3.476,2.707-5.134,4.154a1.042,1.042,0,0,1-1.3.208c-2.137-.882-4.3-1.714-6.437-2.588a.9.9,0,0,0-1.265.323,28.532,28.532,0,0,0-3.9,7.68c-.191.54.069.772.478,1.034C4.042,189.243,5.9,190.5,7.8,191.7a1.125,1.125,0,0,1,.612,1.349c-.36,2.436-.578,4.893-.872,7.539L0,203.753a29.826,29.826,0,0,0,2.964,9.654l8.164-1.735c1.586,1.8,3.017,3.519,4.554,5.134a1.431,1.431,0,0,1,.354,1.834c-.884,2.027-1.69,4.089-2.507,6.145-.161.406-.481.88.154,1.21q3.874,2.012,7.747,4.026c.549.285.893.1,1.221-.419,1.219-1.926,2.523-3.8,3.709-5.744.458-.75.955-.782,1.731-.683a52.383,52.383,0,0,0,5.779.483,1.258,1.258,0,0,1,1.423.965c.918,2.37,1.929,4.7,2.883,7,2.061-.014,7.662-1.811,9.677-3.082-.547-2.525-1.073-5.085-1.671-7.628a1.085,1.085,0,0,1,.523-1.3c1.564-1.248,3.04-2.606,4.592-3.87a1.321,1.321,0,0,1,1.094-.217c1.908.732,3.791,1.531,5.674,2.33,1.052.447,1.475.631,1.876.358l4.341-8.2c.006-.666-.452-.977-1.693-1.8m-16.354-2.757a15.022,15.022,0,1,1-6.253-20.3h0A15.022,15.022,0,0,1,46.233,205.457Z" transform="translate(0 -148.65)" fill="#cae1f9"/>
            <g id="Grupo_81099" data-name="Grupo 81099" transform="translate(101.153 33.359)" opacity="0.2">
              <g id="Grupo_81098" data-name="Grupo 81098">
                <g id="Grupo_81097" data-name="Grupo 81097" clip-path="url(#clip-path-3)">
                  <path id="Trazado_115153" data-name="Trazado 115153" d="M1023.214,345.587c-.563-.375-1.14-.729-1.695-1.115a.489.489,0,0,1-.181-.373c.067-.781.18-1.557.242-2.338a.414.414,0,0,1,.286-.433c.766-.305,1.523-.631,2.283-.95.123-.052.245-.108.457-.2l-1.116-3.5c-.98.2-1.873.37-2.759.575a.543.543,0,0,1-.686-.251c-.415-.589-.912-1.121-1.359-1.689a.444.444,0,0,1-.06-.366c.3-.782.591-1.566.934-2.328a.472.472,0,0,0-.248-.729,2.27,2.27,0,0,1-.342-.263l-1.7-.9a1.157,1.157,0,0,1-.212-.042c-.69-.277-.557-.272-.944.3-.471.7-.931,1.413-1.334,2.027l-3.057-.265-1.212-2.886a11.748,11.748,0,0,0-3.493,1.112c.2.963.392,1.9.592,2.841a.325.325,0,0,1-.138.4c-.644.488-1.276.994-1.885,1.525a.383.383,0,0,1-.479.076c-.785-.324-1.577-.629-2.363-.95a.329.329,0,0,0-.464.119,10.478,10.478,0,0,0-1.431,2.819c-.07.2.026.283.176.38.695.445,1.378.906,2.075,1.346a.413.413,0,0,1,.225.5c-.132.894-.212,1.8-.32,2.767l-2.769,1.162a10.954,10.954,0,0,0,1.088,3.544l3-.637c.582.662,1.108,1.292,1.672,1.885a.525.525,0,0,1,.13.673c-.325.744-.62,1.5-.92,2.256-.059.149-.177.323.056.444l2.844,1.478c.2.1.328.036.448-.154.448-.707.926-1.394,1.362-2.108.168-.276.35-.287.635-.251a19.2,19.2,0,0,0,2.121.177.462.462,0,0,1,.522.354c.337.87.708,1.727,1.058,2.57a10.5,10.5,0,0,0,3.552-1.131c-.2-.927-.394-1.867-.613-2.8a.4.4,0,0,1,.192-.476c.574-.458,1.116-.956,1.686-1.42a.484.484,0,0,1,.4-.08c.7.269,1.392.562,2.083.855.386.164.542.231.689.131l1.593-3.012c0-.244-.166-.359-.622-.662m-6-1.012a5.514,5.514,0,0,1-9.748-5.158h0a5.514,5.514,0,1,1,9.748,5.158" transform="translate(-1000.239 -329.861)" fill="#9bc1f9"/>
                </g>
              </g>
            </g>
            <path id="Trazado_115154" data-name="Trazado 115154" d="M245.654,448.8a70.748,70.748,0,1,1-70.748-70.748A70.748,70.748,0,0,1,245.654,448.8" transform="translate(-93.625 -339.819)" fill="#b75742"/>
            <path id="Trazado_115155" data-name="Trazado 115155" d="M294.812,504.188A64.516,64.516,0,1,1,230.3,439.672a64.516,64.516,0,0,1,64.516,64.516" transform="translate(-149.015 -395.208)" fill="#f47458"/>
            <path id="Trazado_115156" data-name="Trazado 115156" d="M375.778,595.418a54.252,54.252,0,1,1-54.252-54.252,54.252,54.252,0,0,1,54.252,54.252" transform="translate(-240.245 -486.438)" fill="#fcf5eb"/>
            <path id="Trazado_115157" data-name="Trazado 115157" d="M482.046,715.159a40.781,40.781,0,1,1-40.781-40.781,40.781,40.781,0,0,1,40.781,40.781" transform="translate(-359.984 -606.179)" fill="#f47458"/>
            <path id="Trazado_115158" data-name="Trazado 115158" d="M575.3,820.236a28.959,28.959,0,1,1-28.959-28.959A28.959,28.959,0,0,1,575.3,820.236" transform="translate(-465.062 -711.256)" fill="#fcf5eb"/>
            <path id="Trazado_115159" data-name="Trazado 115159" d="M745.489,1012a7.385,7.385,0,1,1-7.385-7.385,7.385,7.385,0,0,1,7.385,7.385" transform="translate(-656.824 -903.019)" fill="#b75742"/>
            <path id="Trazado_115160" data-name="Trazado 115160" d="M1245.09,559.62l-.262-4.8,16.242-12.7-.849,6.947L1244.3,561.515Z" transform="translate(-1118.469 -487.295)" fill="#184655"/>
            <path id="Trazado_115161" data-name="Trazado 115161" d="M1245.921,623.226l4.593,1.41,16.241-12.7-6.947-.849-15.917,12.449Z" transform="translate(-1118.1 -549.285)" fill="#12353d"/>
            <path id="Trazado_115162" data-name="Trazado 115162" d="M796.215,752.028h0a1.085,1.085,0,0,0,1.524.186l45.758-35.79-1.337-1.71L796.4,750.5a1.085,1.085,0,0,0-.186,1.524" transform="translate(-715.488 -642.436)" fill="#184655"/>
            <path id="Trazado_115163" data-name="Trazado 115163" d="M89.115,500.467h16.423l-3.92,24.936h1.694L125.42,384.764h-1.694l-.333,2.119H106.935l.333-2.119h-1.694L83.445,525.4h1.694Zm28.175-74.762-2.711,17.249H98.138l2.706-17.249Zm-16.22-1.442,2.706-17.249h16.451l-2.711,17.249ZM114.352,444.4l-2.711,17.249H95.206L97.912,444.4Zm-2.938,18.69L108.7,480.335H92.274l2.706-17.249Zm11.752-74.762-2.711,17.249H104l2.706-17.249Zm-33.825,110.7,2.706-17.249h16.429l-2.711,17.249Z" transform="translate(-75.006 -345.853)" fill="#f7cc7f"/>
            <path id="Trazado_115164" data-name="Trazado 115164" d="M815.6,98.854c-.018.063-.154.5-.364,1.14l2.2.443c.023-.359.045-.66.071-.877.181-1.524.9-1.937,1.265-2.783s1.8-1.383,1.621-1.67-1.508.875-1.827.751,1.139-1.873.964-2.106c-.323-.429-1.709,1.833-1.872,1.646s1.155-2.575.627-2.6-1.112,2.584-1.389,2.469.767-2.409.236-2.751c-.284-.183-1.29,4.082-1.739,4.328s-1.081-1.435-1.51-1.293,1.8,3.043,1.721,3.307" transform="translate(-731.522 -83.15)" fill="#f79c8d"/>
            <path id="Trazado_115165" data-name="Trazado 115165" d="M603.7,6.632c-.01.065-.064.515-.139,1.189l-2.184-.5c.127-.337.231-.62.3-.829.464-1.463-.018-2.135,0-3.057s-1.067-2-.788-2.19,1.012,1.419,1.355,1.438-.265-2.176-.009-2.316c.471-.258.8,2.375,1.026,2.272s.01-2.822.5-2.632S603.7,2.818,604,2.828s.295-2.511.92-2.6c.334-.05-.509,4.251-.2,4.66s1.577-.862,1.908-.555-2.891,2.032-2.931,2.3" transform="translate(-540.074 0.004)" fill="#f79c8d"/>
            <path id="Trazado_115166" data-name="Trazado 115166" d="M754.1,160.427s-2.617-.626-2.642-.416a52.687,52.687,0,0,1-.89,6.316c-.317.163-4.521-3.681-5.271-3.942a3.123,3.123,0,0,0-1.122-.093c-.892.026-1.068.03-1.068.03l-.033,0,0,.839c1,.9,3.3,14.595,3.5,14.586.216-.01,4.762,1.134,4.682.751a13.506,13.506,0,0,1-3.952-6.2c-.292-1.217-.437-2.527-.595-3.673,1.01.506,4.955,2.448,5.58,2.191,1.945-.8,1.808-10.393,1.808-10.393" transform="translate(-667.93 -143.79)" fill="#f7cc7f"/>
            <path id="Trazado_115167" data-name="Trazado 115167" d="M929.512,391.745s4.229,3.313,4.371,3.9c.2.846,4.076-.266,3.142-.438-.215-.039-.9-.214-.959-.244-.3-.162-4.066-4.7-4.066-4.7Z" transform="translate(-835.512 -350.799)" fill="#f7a491"/>
            <path id="Trazado_115168" data-name="Trazado 115168" d="M976.335,437.168l-2.7-.22a3.828,3.828,0,0,1-2.255.669,3.458,3.458,0,0,0-.124,1.47c.02.137.042.55.18.54.5-.034,1.828-.365,3.343-.668a13.054,13.054,0,0,0,3.211-1.134c1.176-.7-1.654-.657-1.654-.657" transform="translate(-873.006 -392.76)" fill="#f7cc7f"/>
            <path id="Trazado_115169" data-name="Trazado 115169" d="M732.617,308.466a18.484,18.484,0,0,0,6.522-.281c3.964-.927,8.346-1.784,9.63-1.038,1.034.6,7.488,10.354,7.488,10.354l-2.493,1.819-7.107-7.958s-9.067,3.346-11.1,2.975c-4.638-.844-4.7-4.548-2.937-5.871" transform="translate(-657.567 -275.83)" fill="#355389"/>
            <path id="Trazado_115170" data-name="Trazado 115170" d="M835.128,469.593s-.188,5.115-.305,5.981,2.171,3.46,1.879,2.557c-.067-.208-.24-.9-.241-.96,0-.343.848-6.178.848-6.178Z" transform="translate(-750.395 -422.104)" fill="#f7a491"/>
            <path id="Trazado_115171" data-name="Trazado 115171" d="M818.847,533.227l-1.689-2.746a3.826,3.826,0,0,1-1.66-1.667,3.458,3.458,0,0,0-1.352.589c-.111.082-.867.635-.815.763a14.541,14.541,0,0,0,2.35,2.575,30.3,30.3,0,0,0,2.774,1.988c1.177.7.392-1.5.392-1.5" transform="translate(-731.078 -475.336)" fill="#f7cc7f"/>
            <path id="Trazado_115172" data-name="Trazado 115172" d="M730.638,303.2c-1.083-1.444-9.824-2.816-9.824-2.816l-2.437-4.684-5.389,3.323a48.778,48.778,0,0,0,.943,5.434c.539,1.527,4.161,1.6,6.373,1.582,2.035-.021,5.753.394,5.753.394L724.8,317.531a17.361,17.361,0,0,0,3.166.471c.078-.01,4.02-13,2.672-14.8" transform="translate(-640.885 -265.8)" fill="#466eb6"/>
            <path id="Trazado_115173" data-name="Trazado 115173" d="M714.576,183.346l-3.04.17s-.07.021-.091.025c-.248.046-.023,8.907.2,12.216a22.132,22.132,0,0,0,.669,4.7,49.518,49.518,0,0,0,5.389-1.223,9.291,9.291,0,0,0,1.8-1.793,13.332,13.332,0,0,1-1.953-4.582c-.5-2.187-1.127-6.065-1.483-6.874a11.55,11.55,0,0,0-1.486-2.639" transform="translate(-639.4 -164.804)" fill="#184655"/>
            <path id="Trazado_115174" data-name="Trazado 115174" d="M713.393,154.783l-.086,2.685s1.968,3.391,2.979,2.919c.848-.4.1-2.976.1-2.976s-.147-.591-.35-1.271a4.914,4.914,0,0,1-.252-1.367c.021-.918-2.385.011-2.385.011" transform="translate(-641.171 -138.756)" fill="#f7a491"/>
            <path id="Trazado_115175" data-name="Trazado 115175" d="M716.472,154.773c.021-.918-2.385.011-2.385.011l-.008.262a1.356,1.356,0,0,0,.269.305,3.314,3.314,0,0,0,2.344.675,4.615,4.615,0,0,1-.219-1.253" transform="translate(-641.865 -138.757)" fill="#f47458"/>
            <path id="Trazado_115176" data-name="Trazado 115176" d="M716.656,97.931a7.007,7.007,0,0,1,1.078,2.784,6.6,6.6,0,0,1-.195,2.141l-3.219-3.847Z" transform="translate(-642.082 -88.027)" fill="#f7cc7f"/>
            <path id="Trazado_115177" data-name="Trazado 115177" d="M742.967,116.132c.045.446-.128.828-.387.855s-.506-.313-.551-.759.128-.828.387-.855.506.313.551.759" transform="translate(-666.982 -103.704)" fill="#f48c7f"/>
            <path id="Trazado_115178" data-name="Trazado 115178" d="M703.785,103.289c-.074-.016-.067,3.688,1.007,4.56s2.942.948,3.488.07c.6-.971.029-4.874-1.568-5.7s-2.927,1.073-2.927,1.073" transform="translate(-632.588 -91.691)" fill="#f7a491"/>
            <path id="Trazado_115179" data-name="Trazado 115179" d="M683.955,84.483A5.95,5.95,0,0,0,682.184,87c-.682,1.571.671,3.2,1.805,3.845a2.184,2.184,0,0,1,1.229,1.429l.047-.482a1.2,1.2,0,0,0-.015-.443,2.062,2.062,0,0,0-.161-.391c-.1-.206-.407-.914-.528-1.1-.319-.492-.382-.6-.225-1.067.121-.36-.019-1.154.168-1.748l1.527-.329a3.2,3.2,0,0,0,1.438-.786c1.385-1.6-1.354-3.381-3.515-1.448" transform="translate(-613.031 -75.181)" fill="#f7cc7f"/>
            <path id="Trazado_115180" data-name="Trazado 115180" d="M700.034,133.6c.188.407.149.825-.087.934s-.58-.131-.768-.538-.149-.825.087-.934.58.131.768.538" transform="translate(-628.365 -119.58)" fill="#f7a491"/>
            <path id="Trazado_115181" data-name="Trazado 115181" d="M608.03,74.891a19.139,19.139,0,0,1-3.792-.492c-.472-.213-4.345-3.334-4.345-3.334l.044-8.357-2.724-.207s-1.412,9.237-.923,10.248c.505,1.044,6.175,5.343,7.309,7.208.653,1.075,2.016,15.689,2.222,15.821,1.467.764,6,1.526,5.891,1.063a167.963,167.963,0,0,1-3.68-21.949" transform="translate(-535.894 -56.179)" fill="#f7cc7f"/>
            <path id="Trazado_115182" data-name="Trazado 115182" d="M726.024,143.2l1.755-.557a.805.805,0,0,1-.594.947c-.932.326-1.161-.39-1.161-.39" transform="translate(-652.602 -128.216)" fill="#fff"/>
            <path id="Trazado_115183" data-name="Trazado 115183" d="M1441.006,385.852a.361.361,0,0,0,.224-.525c-.186-.3-.366-.608-.548-.912-.4-.672-.439-.686-.406-.763.078-.183.423-.1.547-.057a4.246,4.246,0,0,0,.821.3c.57.073.985-.364.732-.916-.232-.506-.495-1-.76-1.495.611.125,1.22.268,1.833.384a.247.247,0,0,0,.279-.353l-.961-2.209c-.049-.113-.34-.612-.24-.708s.51.03.606.045c.532.077.721.1,2.456.309a.289.289,0,0,0,.257-.429c-1.213-1.694-1-1.848-1.433-2.085a.137.137,0,0,0-.2.112c-.039.255-.03.318.427,1.126q.177.313.37.617c-2.1-.3-2.626-.423-2.911.049-.2.328-.1.417.995,2.921-.634-.165-1.275-.29-1.917-.428a.281.281,0,0,0-.318.4c.841,1.807.936,1.82.967,2,0,0,.111.03-.053.016-.28-.025-.794-.431-1.329-.369a.847.847,0,0,0-.812.952,5.965,5.965,0,0,0,.733,1.4,7.275,7.275,0,0,0-1.639.536,1.132,1.132,0,0,0-.53.43.3.3,0,0,0,.249.453c.623-.035.893-.518,2.567-.8" transform="translate(-1292.709 -338.349)" fill="#f7cc7f"/>
            <path id="Trazado_115184" data-name="Trazado 115184" d="M1522.461,482.766a9.015,9.015,0,0,1-.1-1.594c0-.1-.015-.3.091-.366.255-.158.637.281,1.618.495.426.093,1.3.323,1.484-.249a3.23,3.23,0,0,0,.032-.967c0-.231.007-.461.011-.692,1.593.449,1.5.543,1.863.385a.2.2,0,0,0,.087-.272c-.207-.327-.165-.234-2.168-.821a.314.314,0,0,0-.406.281c0,.312.083,1.727.066,1.9-.017-.011-.093,0-.109,0a5.178,5.178,0,0,1-1.828-.513c-.495-.2-1.166-.208-1.321.425a6.26,6.26,0,0,0,0,1.6c-.97-.31-1.938-.628-2.909-.932a.346.346,0,0,0-.448.309c.043.633.064,1.265.081,1.9a5.857,5.857,0,0,1-1.6-.816c-.36-.26-.818.245.135.838a5.667,5.667,0,0,0,1.713.766.348.348,0,0,0,.449-.31c0-.627-.024-1.256-.063-1.882.97.3,1.943.584,2.913.882a.321.321,0,0,0,.407-.368" transform="translate(-1363.117 -430.264)" fill="#f47458"/>
            <path id="Trazado_115185" data-name="Trazado 115185" d="M1536.188,588.295a.347.347,0,0,0,.309.349,7.636,7.636,0,0,0,2.667.091c.465-.079.3-.772-.156-.723a9.273,9.273,0,0,1-2.17.025,7.4,7.4,0,0,1,.218-1.582.357.357,0,0,0-.311-.455c-.575.016-2.75.142-2.769.166a.11.11,0,0,0,0-.058c-.042-.232.128-1.018.11-1.377-.02-.4-.555-.55-.88-.581-.659-.063-1.389.412-2.03.156-.617-.246.077-1.213-.42-1.969-.383-.583-1.042-.408-2.083-.207a.778.778,0,0,0-.633.351.177.177,0,0,0,.021.207c.313.291.689.16,1.639,0,.121-.02.326-.092.433,0,.359.3-.167,1.117.258,1.808a1.533,1.533,0,0,0,1.556.569c.441-.053.985-.31,1.432-.151-.024.383-.06.769-.055,1.151a.672.672,0,0,0,.639.743,11.2,11.2,0,0,0,1.412-.047c.312-.014.625-.027.936-.044a8.4,8.4,0,0,0-.122,1.578" transform="translate(-1373.489 -523.088)" fill="#3cb4c5"/>
            <path id="Trazado_115186" data-name="Trazado 115186" d="M1312.865,378.42c-2.488-2.04-3.756-.2-3.04.643a.692.692,0,0,0,1.127-.018c.125-.188-.06-.5-.294-.426-.194.061-.24-.16-.034-.245.277-.115.614.089.853.215.557.3,1.284.67,1.379,1.369.141,1.043-.919,2.146-2.49,1.538-2.267-.877-2.159-4.585.245-5.2a3.4,3.4,0,0,1,3.516,1.3c.157.21.437-.036.352-.247a3.4,3.4,0,0,0-4.226-1.664,3.453,3.453,0,0,0-2.139,3.842,3.29,3.29,0,0,0,3.465,2.923,2.262,2.262,0,0,0,1.286-4.025" transform="translate(-1175.789 -337.514)" fill="#3cb4c5"/>
            <path id="Trazado_115187" data-name="Trazado 115187" d="M1556.348,683.732c-.406-.284-1.243-.458-1.516.094a.459.459,0,0,0,.243.672c.292.1.564-.061.79.209a.615.615,0,0,1-.1.772c-.538.634-1.686.439-2.329.088a1.559,1.559,0,0,1-.1-2.719,3.5,3.5,0,0,1,1.134-.357c.215-.05.319-.391.092-.506a2.082,2.082,0,0,0-2.472.869,2.5,2.5,0,0,0-.018,2.688,3.209,3.209,0,0,0,2.722,1.32c2.125-.023,2.866-2.211,1.551-3.13" transform="translate(-1394.771 -612.877)" fill="#3c8f7c"/>
          </g>
        </g>
      </g>
    </g>
  </g>
</svg>
