<svg xmlns="http://www.w3.org/2000/svg" width="450.474" height="416.737" viewBox="0 0 450.474 416.737">
  <g id="Grupo_81209" data-name="Grupo 81209" transform="translate(11880.474 12186.705)">
    <path id="Trazado_113170" data-name="Trazado 113170" d="M325.19,447.624a3.206,3.206,0,0,0,.942,2.274l3.256,3.255-3.256,3.255a3.217,3.217,0,1,0,4.55,4.55l3.255-3.254,3.255,3.254a3.217,3.217,0,0,0,4.549-4.55l-3.255-3.255,3.255-3.255a3.217,3.217,0,0,0,0-4.549h0a3.217,3.217,0,0,0-4.549,0l-3.255,3.255-3.255-3.255a3.218,3.218,0,0,0-4.55,0h0a3.206,3.206,0,0,0-.942,2.274Z" transform="translate(-12126.249 -12258.637) rotate(-45)" fill="#fff"/>
    <path id="Trazado_114795" data-name="Trazado 114795" d="M325.19,447.624a3.206,3.206,0,0,0,.942,2.274l3.256,3.255-3.256,3.255a3.217,3.217,0,1,0,4.55,4.55l3.255-3.254,3.255,3.254a3.217,3.217,0,0,0,4.549-4.55l-3.255-3.255,3.255-3.255a3.217,3.217,0,0,0,0-4.549h0a3.217,3.217,0,0,0-4.549,0l-3.255,3.255-3.255-3.255a3.218,3.218,0,0,0-4.55,0h0a3.206,3.206,0,0,0-.942,2.274Z" transform="translate(-12168.249 -11866.637) rotate(-45)" fill="#fff"/>
    <path id="Trazado_114794" data-name="Trazado 114794" d="M325.19,447.624a3.206,3.206,0,0,0,.942,2.274l3.256,3.255-3.256,3.255a3.217,3.217,0,1,0,4.55,4.55l3.255-3.254,3.255,3.254a3.217,3.217,0,0,0,4.549-4.55l-3.255-3.255,3.255-3.255a3.217,3.217,0,0,0,0-4.549h0a3.217,3.217,0,0,0-4.549,0l-3.255,3.255-3.255-3.255a3.218,3.218,0,0,0-4.55,0h0a3.206,3.206,0,0,0-.942,2.274Z" transform="translate(-11998.925 -12103.637) rotate(-45)" fill="#fff"/>
    <path id="Trazado_114796" data-name="Trazado 114796" d="M325.19,447.624a3.206,3.206,0,0,0,.942,2.274l3.256,3.255-3.256,3.255a3.217,3.217,0,1,0,4.55,4.55l3.255-3.254,3.255,3.254a3.217,3.217,0,0,0,4.549-4.55l-3.255-3.255,3.255-3.255a3.217,3.217,0,0,0,0-4.549h0a3.217,3.217,0,0,0-4.549,0l-3.255,3.255-3.255-3.255a3.218,3.218,0,0,0-4.55,0h0a3.206,3.206,0,0,0-.942,2.274Z" transform="translate(-12424.662 -12091.269) rotate(-45)" fill="#fff"/>
    <g id="Grupo_80784" data-name="Grupo 80784" transform="translate(-11825.857 -11847.538)">
      <path id="Trazado_113163" data-name="Trazado 113163" d="M69.622,473.995v9.724a2.084,2.084,0,0,1-2.084,2.084h0a2.084,2.084,0,0,1-2.084-2.084v-9.724a2.084,2.084,0,0,1,2.084-2.084h0A2.084,2.084,0,0,1,69.622,473.995Z" transform="translate(-65.455 -471.911)" fill="#ffb74d"/>
      <path id="Trazado_113164" data-name="Trazado 113164" d="M88.244,473.995v9.724a2.084,2.084,0,0,1-2.084,2.084h0a2.084,2.084,0,0,1-2.084-2.084v-9.724a2.084,2.084,0,0,1,2.084-2.084h0A2.084,2.084,0,0,1,88.244,473.995Z" transform="translate(-74.865 -471.911)" fill="#ffb74d"/>
      <path id="Trazado_113165" data-name="Trazado 113165" d="M106.866,473.995v9.724a2.083,2.083,0,0,1-2.084,2.084h0a2.084,2.084,0,0,1-2.084-2.084v-9.724a2.084,2.084,0,0,1,2.084-2.084h0A2.083,2.083,0,0,1,106.866,473.995Z" transform="translate(-84.275 -471.911)" fill="#ffb74d"/>
      <path id="Trazado_113166" data-name="Trazado 113166" d="M125.488,473.995v9.724A2.084,2.084,0,0,1,123.4,485.8h0a2.084,2.084,0,0,1-2.084-2.084v-9.724a2.084,2.084,0,0,1,2.084-2.084h0A2.084,2.084,0,0,1,125.488,473.995Z" transform="translate(-93.685 -471.911)" fill="#ffb74d"/>
      <path id="Trazado_113167" data-name="Trazado 113167" d="M144.11,473.995v9.724a2.084,2.084,0,0,1-2.084,2.084h0a2.084,2.084,0,0,1-2.084-2.084v-9.724a2.084,2.084,0,0,1,2.084-2.084h0A2.083,2.083,0,0,1,144.11,473.995Z" transform="translate(-103.095 -471.911)" fill="#ffb74d"/>
    </g>
  </g>
</svg>
