<svg xmlns="http://www.w3.org/2000/svg" xmlns:xlink="http://www.w3.org/1999/xlink" width="406.505" height="284.563" viewBox="0 0 406.505 284.563">
  <defs>
    <clipPath id="clip-path">
      <rect id="Rect치ngulo_46804" data-name="Rect치ngulo 46804" width="388.005" height="284.562" transform="translate(0 0)" fill="none"/>
    </clipPath>
  </defs>
  <g id="Grupo_81235" data-name="Grupo 81235" transform="translate(-781.5 -7460.004)">
    <g id="Image_Place_Holder" data-name="Image Place Holder" transform="translate(781.5 7471.838)" opacity="0.1">
      <rect id="Image_Place_Holder-2" data-name="Image Place Holder" width="400" height="270.769" rx="10" fill="#a5d20e"/>
    </g>
    <g id="Grupo_81084" data-name="Grupo 81084" transform="translate(800 7460.005)">
      <g id="Grupo_81083" data-name="Grupo 81083" transform="translate(0 -0.001)" clip-path="url(#clip-path)">
        <path id="Trazado_115079" data-name="Trazado 115079" d="M21.243,893.615c2.53,1.492,1.833-7.392,1.833-7.392s.479,8.264,2.484,9.8c1.6,1.227,2.245-6.547,2.353-9.222l.073.005c.12,2.622.429,10.789,2.326,11.464,2.15.765,2.016-9.93,1.96-11.524l.027,0c2.354,17.224,4.724,4.513,4.314-2.951,1.274.981,4.162,2.7,4.851,2,.793-.81-1.339-3.98-2.034-4.875-1.6-2.064-3.941-6.8-5.584-8.837-.712-.881-11.773,1.052-11.773,1.052a38.437,38.437,0,0,0-1.793,8.639,4.252,4.252,0,0,0-.139.989c-.012.439-.039,1.025-.066,1.69v.006h0c-.128,3.19-.259,8.317,1.168,9.159" transform="translate(-16.185 -705.514)" fill="#ea9a81"/>
        <path id="Trazado_115080" data-name="Trazado 115080" d="M41.752,272.787S12.126,277.176,3.19,304.441c-6.465,19.726-1.318,80.75,0,84.605s16.04,3.725,19.39,0S41.752,272.787,41.752,272.787" transform="translate(0 -220.743)" fill="#ffb74d"/>
        <path id="Trazado_115081" data-name="Trazado 115081" d="M294.8,821.15c-.758,12.641-2.193,29.048-4.846,49.112-2.257,17.075-4.732,49.3-7.046,64.687l-2.722.043c-10.081.162-20.29.358-30.485.57l1.633-53.643v0l.01-.224v0l1.75-41.267.5-19.835a.009.009,0,0,0,0,0c.1-.045,1.683-.8,4.183-1.838v0c1.9-.791,4.317-1.752,7.013-2.706,9.142-3.232,21.432-6.357,27.029-2.4h0a6.906,6.906,0,0,1,2.815,4.565v0q.043.208.071.422a12.5,12.5,0,0,1,.086,2.522" transform="translate(-202.064 -656.907)" fill="#f7f0f7"/>
        <path id="Trazado_115082" data-name="Trazado 115082" d="M100.491,717.342q-.107,4.384-.367,10.012c-.043.853-.086,1.728-.134,2.624v0c-.031.574-.064,1.156-.1,1.747-.732,12.86-2.174,29.842-4.949,50.823q-.687,5.188-1.4,10.372v0c-.007.05-.014.1-.019.148v0c-1.835,13.389-3.754,41.681-5.578,53.805q-3.418.072-6.827.15-2.539.053-5.063.112c-7.182.16-14.319.329-21.358.5L57.252,772.4v0l.834-19.689.429-16.984.014-.52.064-2.6.01-.324.067-2.708v0l.014-.565.026-1.018.412-16.3.76-.176,8.507-1.976s0,0,0,0l15.728-3.649h0l5.041-1.17,11.3-2.622s.055,1.011.1,3.02c.048,2.52.074,6.606-.067,12.231" transform="translate(-44.267 -568.143)" fill="#f7f0f7"/>
        <path id="Trazado_115083" data-name="Trazado 115083" d="M184.2,984.512c-.029-.226-2.893-22.708-5.046-30.76-2.134-7.977-12.021-14.909-12.121-14.978l.3-.427c.1.07,10.145,7.112,12.327,15.271,2.162,8.086,5.031,30.6,5.059,30.829Z" transform="translate(-135.167 -759.324)" fill="#30262a"/>
        <path id="Trazado_115084" data-name="Trazado 115084" d="M228.749,154.691l2.615-8.221.761-2.393,4.474-14.072.589,14,.352,8.4.112,2.66c.076,1.805,1.205,2.185,2.58,3.754.557.635,4.121,4.49.076,6.231-5.038,2.169-14.457-1.115-18.038-5.417.028-.006,5.636-2.283,6.481-4.94" transform="translate(-179.863 -105.202)" fill="#ea9a81"/>
        <path id="Trazado_115085" data-name="Trazado 115085" d="M251.873,92.113c-1.113-8.257-7.712-14.222-14.74-13.323s-11.824,8.322-10.711,16.579,7.712,14.222,14.741,13.323,11.824-8.322,10.711-16.579" transform="translate(-183.094 -63.685)" fill="#ea9a81"/>
        <path id="Trazado_115086" data-name="Trazado 115086" d="M232.984,89.439s-7.84,7.355-6.806,11.494.772,5.76-3.807,7.968-.536,5.793-6.638,6.052-16.53-5.641-13.577-18.319a48.129,48.129,0,0,1,3.8-10.654Z" transform="translate(-163.17 -69.575)" fill="#30262a"/>
        <path id="Trazado_115087" data-name="Trazado 115087" d="M151.579,796.315s-53.23-3.051-78.491,3.338l-.376-7.556,35.42-11,28.6.737,8.785,1.966,6.2,10.045Z" transform="translate(-58.84 -632.073)" fill="#30262a"/>
        <path id="Trazado_115088" data-name="Trazado 115088" d="M39.14,288.834S43.826,267.7,72.486,267.7c49.944,0,35.935,42.744,40.556,110.7,0,0-32.2-7.322-78.794,2.423,0,0-4.536-36.8,1.325-67.911,1.548-8.215,1.267-16.929,3.568-24.071" transform="translate(-26.359 -216.625)" fill="#ffb74d"/>
        <path id="Trazado_115089" data-name="Trazado 115089" d="M200.1,77.132s-2.284-9.061,2.325-13.67,19.388-5.88,26.221,0,6.515,6.436,4.251,7.509-.238,3.9-4.052,4.529-1.106,7.5-7.7,6.132-21.04-4.5-21.04-4.5" transform="translate(-161.465 -48.16)" fill="#30262a"/>
        <path id="Trazado_115090" data-name="Trazado 115090" d="M322.008,160.052a2.7,2.7,0,0,0-3.649-.823,2.544,2.544,0,0,0-.431,3.625,2.7,2.7,0,0,0,3.649.823,2.544,2.544,0,0,0,.431-3.625" transform="translate(-256.821 -128.522)" fill="#ea9a81"/>
        <path id="Trazado_115091" data-name="Trazado 115091" d="M320.783,178.783a2.814,2.814,0,0,1-2.492-1.822.09.09,0,1,1,.16-.082c1.125,2.186,2.715,1.691,2.781,1.669a.09.09,0,0,1,.057.171,1.8,1.8,0,0,1-.506.064" transform="translate(-257.558 -143.094)" fill="#30262a"/>
        <path id="Trazado_115092" data-name="Trazado 115092" d="M77.231,494.313c-3.581-37.122,1.962-74.727,2.019-75.1l.328.049c-.056.375-5.593,37.941-2.017,75.021Z" transform="translate(-61.523 -339.232)" fill="#30262a"/>
        <path id="Trazado_115093" data-name="Trazado 115093" d="M1141.173,912.342c-10.179-.448-20.908-.949-32.273-1.5-2.682-17.506-5.693-53.125-8.4-73.561-2.653-20.064-4.088-36.468-4.846-49.112a12.491,12.491,0,0,1,.086-2.52c.019-.143.043-.281.069-.419v0a6.9,6.9,0,0,1,2.818-4.567h0c5.6-3.962,17.892-.834,27.036,2.4,2.693.951,5.111,1.912,7.006,2.705,2.581,1.075,4.188,1.84,4.188,1.84v0l.5,19.833,1.75,41.274v.007l.01.217v0Z" transform="translate(-886.603 -630.22)" fill="#f7f0f7"/>
        <path id="Trazado_115094" data-name="Trazado 115094" d="M1332.953,825.044c-10.1-.334-20.788-.753-32.187-1.242-2.245-14.655-4.734-46.566-7.08-63.7v0c0-.048-.012-.093-.019-.141v-.007q-.708-5.177-1.4-10.379c-2.775-20.982-4.217-37.961-4.948-50.821-.031-.594-.064-1.175-.1-1.75-.048-.9-.091-1.771-.134-2.625q-.268-5.628-.367-10.012-.036-1.387-.057-2.648c-.146-8.362.086-12.6.086-12.6l15.344,3.561.01,0,25.985,6.029.412,16.3.107,4.293.088,3.442.429,16.984Z" transform="translate(-1041.153 -541.461)" fill="#f7f0f7"/>
        <path id="Trazado_115095" data-name="Trazado 115095" d="M1322.663,951.533l-.516-.066c.029-.227,2.9-22.743,5.06-30.829,2.182-8.16,12.226-15.2,12.327-15.271l.3.427c-.1.069-9.988,7-12.121,14.979-2.154,8.051-5.018,30.534-5.046,30.76" transform="translate(-1069.902 -732.637)" fill="#30262a"/>
        <path id="Trazado_115096" data-name="Trazado 115096" d="M1268.525,121.712l-2.614-8.221-.761-2.393-4.474-14.072-.589,14-.352,8.4-.112,2.659c-.076,1.805-1.205,2.185-2.579,3.754-.557.635-4.12,4.49-.076,6.23,5.038,2.169,14.457-1.115,18.038-5.417-.028-.006-5.636-2.283-6.481-4.94" transform="translate(-1015.616 -78.515)" fill="#ea9a81"/>
        <path id="Trazado_115097" data-name="Trazado 115097" d="M1220.681,59.134c1.113-8.257,7.712-14.222,14.74-13.323s11.824,8.322,10.711,16.579-7.712,14.222-14.741,13.323-11.824-8.322-10.711-16.579" transform="translate(-987.664 -36.998)" fill="#ea9a81"/>
        <path id="Trazado_115098" data-name="Trazado 115098" d="M1203.59,19.3c-7.339.269-10.9-3.857-10.982-7.677-.108-4.9,3.057-9.237,6.743-7.416s2.1-2.644,5.648-3.118c6.623-.886,7.866,3.7,13.287,3.927,7.15.295,15.3,11.9,9.31,20.375,0,0-18.211-6.3-24.006-6.091" transform="translate(-965.075 -0.79)" fill="#30262a"/>
        <path id="Trazado_115099" data-name="Trazado 115099" d="M1215.934,56.461s7.841,7.355,6.807,11.494-.772,5.76,3.807,7.967.536,5.793,6.638,6.052,13.579-6.768,13.577-18.319a17.1,17.1,0,0,0-3.8-10.654Z" transform="translate(-983.953 -42.889)" fill="#30262a"/>
        <path id="Trazado_115100" data-name="Trazado 115100" d="M1228.5,125.216a2.7,2.7,0,0,1,3.649-.823,2.544,2.544,0,0,1,.431,3.625,2.7,2.7,0,0,1-3.648.823,2.544,2.544,0,0,1-.431-3.625" transform="translate(-993.666 -100.333)" fill="#ea9a81"/>
        <path id="Trazado_115101" data-name="Trazado 115101" d="M1382.22,133.1a.187.187,0,0,1-.182-.145,4.332,4.332,0,0,0-1.9-2.459.187.187,0,1,1,.186-.324,4.649,4.649,0,0,1,2.074,2.7.187.187,0,0,1-.141.223.184.184,0,0,1-.042,0" transform="translate(-1116.757 -105.316)" fill="#30262a"/>
        <path id="Trazado_115102" data-name="Trazado 115102" d="M1380.234,118.244a.187.187,0,0,1-.011-.373c.02,0,2-.142,2.286-1.635a.187.187,0,1,1,.366.07c-.338,1.78-2.536,1.933-2.63,1.938h-.011" transform="translate(-1116.757 -93.937)" fill="#30262a"/>
        <path id="Trazado_115103" data-name="Trazado 115103" d="M1211.757,3.126a1.428,1.428,0,0,1-.4-.059,5.184,5.184,0,0,1-1.505-.781,2.978,2.978,0,0,0-3.051-.546.187.187,0,0,1-.112-.356,3.355,3.355,0,0,1,3.372.593,4.874,4.874,0,0,0,1.4.731.86.86,0,0,0,.764-.1c.82-.555,1.014-2.418,1.016-2.437a.187.187,0,0,1,.371.037c-.008.084-.213,2.056-1.177,2.709a1.19,1.19,0,0,1-.68.213" transform="translate(-976.369 0.001)" fill="#30262a"/>
        <path id="Trazado_115104" data-name="Trazado 115104" d="M1304.052,9.46a7.7,7.7,0,0,1-4.709-1.92.187.187,0,0,1,.253-.274c.024.022,2.429,2.2,5.233,1.761a.187.187,0,0,1,.058.369,5.361,5.361,0,0,1-.835.065" transform="translate(-1051.4 -5.839)" fill="#30262a"/>
        <path id="Trazado_115105" data-name="Trazado 115105" d="M1238.741,143.946a1.8,1.8,0,0,1-.506-.064.09.09,0,0,1,.057-.171c.067.022,1.657.515,2.781-1.669a.09.09,0,0,1,.16.082,2.814,2.814,0,0,1-2.492,1.822" transform="translate(-1001.95 -114.903)" fill="#30262a"/>
        <path id="Trazado_115106" data-name="Trazado 115106" d="M1095.2,763.337s53.23-3.051,78.491,3.338l.376-7.556-35.42-11-28.6.737-8.785,1.966-6.2,10.045Z" transform="translate(-886.145 -605.386)" fill="#30262a"/>
        <path id="Trazado_115107" data-name="Trazado 115107" d="M1168.968,255.856s-4.685-21.138-33.345-21.136c-49.944,0-35.935,42.744-40.556,110.7,0,0,32.2-7.322,78.794,2.423,0,0,4.536-36.8-1.325-67.911-1.548-8.215-1.267-16.928-3.568-24.071" transform="translate(-886.146 -189.939)" fill="#ffb74d"/>
        <path id="Trazado_115108" data-name="Trazado 115108" d="M1101.182,508.276l-.19-.306c9.415-5.826,21.666-21.177,21.788-21.332l.282.224c-.123.155-12.413,15.554-21.88,21.414" transform="translate(-890.94 -393.795)" fill="#30262a"/>
        <path id="Trazado_115109" data-name="Trazado 115109" d="M1499.189,437.786c-.21-5.165-3.5-36.724-3.532-37.043l.358-.037c.033.318,3.323,31.889,3.534,37.066Z" transform="translate(-1210.309 -324.257)" fill="#30262a"/>
        <path id="Trazado_115110" data-name="Trazado 115110" d="M1272.042,650.043c2.277-2.229-7.226-4.005-7.226-4.005s8.792,1.829,10.971.163c1.736-1.327-6.225-4.2-9-5.066l.026-.075c2.78.614,11.423,2.594,12.666.8,1.408-2.036-9.834-4.912-11.52-5.3,0-.01,0-.019,0-.029,18.707,2.392,6.06-3.675-1.874-5.352,1.387-1.058,4-3.6,3.458-4.519-.624-1.059-4.546.28-5.68.756-2.614,1.1-8.24,2.209-10.833,3.357-1.124.5-2.219,12.63-2.219,12.63a41.7,41.7,0,0,0,8.544,4.315,4.611,4.611,0,0,0,1,.424c.456.137,1.063.33,1.752.546l.006,0h0c3.306,1.034,8.64,2.617,9.924,1.359" transform="translate(-1012.182 -506.775)" fill="#ea9a81"/>
        <path id="Trazado_115111" data-name="Trazado 115111" d="M94.253,640.1c-2.277-2.229,7.226-4.005,7.226-4.005s-8.792,1.829-10.971.163c-1.736-1.327,6.225-4.2,9-5.066l-.026-.075c-2.78.614-11.423,2.594-12.666.8-1.408-2.036,9.834-4.912,11.52-5.3,0-.01,0-.02,0-.029-18.707,2.392-6.06-3.675,1.874-5.352-1.387-1.058-4-3.6-3.458-4.519.624-1.059,4.547.28,5.68.756,2.614,1.1,8.24,2.209,10.833,3.357,1.124.5,2.219,12.63,2.219,12.63a41.7,41.7,0,0,1-8.544,4.315,4.609,4.609,0,0,1-1,.424c-.456.137-1.063.33-1.752.546l-.006,0h0c-3.306,1.034-8.64,2.617-9.924,1.359" transform="translate(-70.152 -498.727)" fill="#ea9a81"/>
        <path id="Trazado_115112" data-name="Trazado 115112" d="M834.91,861.246c-.76,12.641-2.2,29.046-4.849,49.112-1.924,14.545-4,44.227-6.007,57.745l-1.261-.065c-5.561-.284-11.6-.5-18.026-.665l-3.909-.093q-5.192-.111-10.686-.179l1.27-45.088v0l.01-.219v0c0-.007,0-.012,0-.019l1.747-41.255.5-19.833s0,0,0,0c.074-.036,1.666-.791,4.186-1.843,1.9-.791,4.314-1.752,7.006-2.706,9.144-3.23,21.441-6.357,27.039-2.4a6.9,6.9,0,0,1,2.818,4.565v0q.043.207.071.422a12.5,12.5,0,0,1,.086,2.522" transform="translate(-639.42 -689.354)" fill="#44393d"/>
        <path id="Trazado_115113" data-name="Trazado 115113" d="M640.748,757.436q-.107,4.384-.367,10.012c-.043.853-.086,1.728-.136,2.625-.029.575-.062,1.159-.1,1.75-.729,12.858-2.172,29.84-4.946,50.821q-.686,5.184-1.394,10.359c0,.007,0,.012,0,.019-.007.045-.012.093-.021.138,0,0,0,0,0,0-1.4,10.26-2.858,35.5-4.283,45.135-9.08-.1-18.7-.112-28.683-.069q-2.71.011-5.459.029l2.982-85.456.432-16.984V775.8l.086-3.428.11-4.291v0l.412-16.3,34.185-7.933h0l7.151-1.662s.036.658.072,1.964c.06,2.348.117,6.789-.043,13.287" transform="translate(-481.775 -600.588)" fill="#44393d"/>
        <path id="Trazado_115114" data-name="Trazado 115114" d="M722.765,1024.6c-.029-.226-2.893-22.708-5.046-30.76-2.133-7.974-12.021-14.909-12.121-14.979l.3-.427c.1.07,10.145,7.112,12.327,15.272,2.162,8.086,5.031,30.6,5.06,30.829Z" transform="translate(-570.981 -791.767)" fill="#30262a"/>
        <path id="Trazado_115115" data-name="Trazado 115115" d="M767.313,194.783l2.615-8.221.761-2.393,4.474-14.072.589,14,.352,8.4.112,2.66c.076,1.805,1.205,2.185,2.58,3.754.557.635,4.121,4.49.076,6.231-5.038,2.169-14.457-1.115-18.038-5.417.028-.006,5.636-2.284,6.481-4.94" transform="translate(-615.677 -137.645)" fill="#ea9a81"/>
        <path id="Trazado_115116" data-name="Trazado 115116" d="M790.437,132.2c-1.113-8.257-7.712-14.222-14.74-13.323s-11.824,8.322-10.711,16.579,7.712,14.222,14.74,13.323,11.824-8.322,10.711-16.579" transform="translate(-618.909 -96.128)" fill="#ea9a81"/>
        <path id="Trazado_115117" data-name="Trazado 115117" d="M690.143,836.408s-53.23-3.051-78.491,3.338l-.376-7.556,35.42-11,28.6.737,8.785,1.966,6.2,10.045Z" transform="translate(-494.654 -664.516)" fill="#30262a"/>
        <path id="Trazado_115118" data-name="Trazado 115118" d="M610.154,328.928s4.685-21.138,33.345-21.136c49.944,0,35.935,42.743,40.556,110.7,0,0-32.2-7.322-78.794,2.423,0,0-4.536-36.8,1.325-67.911,1.548-8.215,1.267-16.929,3.568-24.071" transform="translate(-488.432 -249.07)" fill="#a5d20e"/>
        <path id="Trazado_115119" data-name="Trazado 115119" d="M842.238,308.838s17-.762,28.069,11.835c6.869,7.819,16.949,37.529,25.053,40.356l28.987,10.727s5.713,10.513-3.556,17.96c0,0-26.377,7.876-52.58-2.825-2.565-1.047-11.919-14.658-11.919-14.658Z" transform="translate(-681.552 -249.91)" fill="#a5d20e"/>
        <path id="Trazado_115120" data-name="Trazado 115120" d="M314.472,312.469s-16.023.245-27.937,12.043c-4.362,4.32-10.936,11.632-16.206,17.614a49.924,49.924,0,0,1-21.014,14.135l-39.422,16.6s-5.342,9.38,3.926,16.827c0,0,42.677,2.019,68.881-8.682a9.961,9.961,0,0,0,3.836-2.661Z" transform="translate(-168.609 -252.855)" fill="#a5d20e"/>
        <path id="Trazado_115121" data-name="Trazado 115121" d="M604.735,510.857l-.36-.014c.211-5.177,3.5-36.747,3.534-37.066l.358.037c-.033.318-3.322,31.877-3.532,37.043" transform="translate(-489.07 -383.388)" fill="#30262a"/>
        <path id="Trazado_115122" data-name="Trazado 115122" d="M651.061,78.5c-5-2.248-15.765-6.759-23.631,1.345-10.391,10.706-3.377,27.214-14.5,30.551s-19.151,12.713-11.4,20.023-7.622,26.6,22.507,28.734,25.084-19.517,25.583-26.827,16.708-1.589,16.391-10.171-20.365-13.7-15.665-23.3,8.476-16.869.719-20.357" transform="translate(-484.275 -60.861)" fill="#30262a"/>
        <path id="Trazado_115123" data-name="Trazado 115123" d="M869.9,198.287a2.7,2.7,0,0,0-3.649-.823,2.544,2.544,0,0,0-.431,3.625,2.7,2.7,0,0,0,3.648.823,2.544,2.544,0,0,0,.431-3.625" transform="translate(-700.183 -159.463)" fill="#ea9a81"/>
        <path id="Trazado_115124" data-name="Trazado 115124" d="M868.672,217.017a2.814,2.814,0,0,1-2.492-1.822.09.09,0,0,1,.16-.082c1.128,2.191,2.764,1.675,2.781,1.669a.09.09,0,0,1,.057.171,1.8,1.8,0,0,1-.506.064" transform="translate(-700.919 -174.033)" fill="#30262a"/>
        <path id="Trazado_115125" data-name="Trazado 115125" d="M858.951,92.479a10.664,10.664,0,0,1,7.318,6.9c2.225,5.927.779,10.653-7.318,10.833s0-17.733,0-17.733" transform="translate(-692.165 -74.835)" fill="#30262a"/>
        <path id="Trazado_115126" data-name="Trazado 115126" d="M699.567,104.05l-.283-.384c1.9-1.4,1.985-5.513,2.08-10.274.14-6.95.314-15.6,6.547-19.339,10.331-6.2,23.292,1.239,23.422,1.315l-.241.411c-.127-.074-12.85-7.37-22.936-1.318-6.007,3.6-6.178,12.108-6.316,18.94-.1,4.886-.183,9.106-2.274,10.648" transform="translate(-565.872 -57.93)" fill="#30262a"/>
        <path id="Trazado_115127" data-name="Trazado 115127" d="M835.546,301.065l-.243-.41c.091-.054,9.073-5.5,8.076-14.613-.6-5.46,2.084-5.875,5.794-6.448,2.923-.452,6.561-1.014,10.089-4.16a4.568,4.568,0,0,0,1.711-4.068c-.767-6.607-14.972-14.382-15.115-14.46l.227-.419a65.885,65.885,0,0,1,7.353,4.788c4.978,3.77,7.673,7.146,8.008,10.036a5.02,5.02,0,0,1-1.867,4.479c-3.633,3.239-7.349,3.814-10.334,4.275-3.7.573-5.941.918-5.393,5.925,1.03,9.42-8.214,15.019-8.307,15.075" transform="translate(-675.94 -207.553)" fill="#30262a"/>
        <path id="Trazado_115128" data-name="Trazado 115128" d="M684.743,477.859c-.559-3.137,8.209.936,8.209.936s-8.219-3.617-9.026-6.239c-.642-2.089,7.506.2,10.266,1.1l.022-.076c-2.619-1.115-10.806-4.522-10.773-6.707.036-2.475,10.858,1.712,12.458,2.373l.013-.026c-16.618-8.917-2.8-6.512,4.634-3.268-.515-1.667-1.168-5.253-.191-5.687,1.123-.5,3.539,2.868,4.185,3.914,1.491,2.411,5.425,6.584,6.869,9.024.626,1.058.045,11.57.045,11.57s-9.426,0-15.035-1.449a4.611,4.611,0,0,1-1.058-.233c-.451-.154-1.057-.349-1.743-.574l-.006,0h0c-3.292-1.078-8.553-2.888-8.868-4.657" transform="translate(-553.052 -372.413)" fill="#ea9a81"/>
        <path id="Trazado_115129" data-name="Trazado 115129" d="M900.964,235.8s-18.625,1.858-25.731,12.109c-3.5,5.046-10.981,16.584-16.251,22.566-5.673,6.44-12.832,8.455-20.935,11.283l-24.965,6.595s-2.675,12.182.492,16.787c0,0,29.868,8.365,55.859-2.842,6.174-2.662,37.742-30.551,37.742-30.551Z" transform="translate(-657.104 -190.817)" fill="#ffb74d"/>
        <path id="Trazado_115130" data-name="Trazado 115130" d="M973.512,708.8a25.932,25.932,0,0,1-10.974-5.539l.161-.175a25.679,25.679,0,0,0,10.861,5.481Z" transform="translate(-778.902 -568.951)" fill="#30262a"/>
        <path id="Trazado_115131" data-name="Trazado 115131" d="M747.036,651.607c1.618-2.745-8.02-1.988-8.02-1.988s8.965-.522,10.635-2.7c1.331-1.733-7.1-2.434-10.005-2.551,0-.027,0-.053.005-.079,2.844-.131,11.7-.467,12.437-2.526.83-2.333-10.773-2.185-12.5-2.124,0-.01,0-.02,0-.029,18.685-2.557,4.9-5.125-3.2-4.68,1.065-1.382,2.927-4.515,2.164-5.263-.878-.86-4.317,1.453-5.288,2.208-2.239,1.74-7.381,4.277-9.586,6.06-.956.773-4.08,10.828-4.08,10.828s8.833,3.291,14.6,3.889a4.616,4.616,0,0,0,1.073.151c.476.013,1.112.042,1.834.071h.008c3.461.138,9.023.279,9.936-1.269" transform="translate(-582.304 -509.386)" fill="#ea9a81"/>
        <path id="Trazado_115132" data-name="Trazado 115132" d="M312.781,269.545s20.219.9,31.343,16.637c3.545,5.013,13.257,29.592,19.864,35.07l33.851,23.205s-1.745,12.349-6.32,15.56c0,0-34.5-5-54.944-24.57-4.857-4.649-21.118-39.389-21.118-39.389Z" transform="translate(-253.107 -218.12)" fill="#ffb74d"/>
        <path id="Trazado_115133" data-name="Trazado 115133" d="M1877.642,911.677c-2.53,1.492-1.833-7.392-1.833-7.392s-.479,8.264-2.484,9.8c-1.6,1.227-2.245-6.547-2.353-9.222l-.073,0c-.12,2.622-.429,10.789-2.326,11.464-2.15.765-2.016-9.93-1.96-11.524l-.027,0c-2.353,17.224-4.724,4.513-4.314-2.951-1.274.981-4.162,2.7-4.851,2-.793-.81,1.339-3.98,2.034-4.875,1.6-2.064,3.941-6.8,5.584-8.837.712-.881,11.773,1.052,11.773,1.052a38.432,38.432,0,0,1,1.793,8.639,4.255,4.255,0,0,1,.139.989c.012.439.039,1.026.066,1.69a.053.053,0,0,0,0,.006h0c.128,3.19.259,8.317-1.168,9.159" transform="translate(-1502.913 -720.13)" fill="#ea9a81"/>
        <path id="Trazado_115134" data-name="Trazado 115134" d="M1782.481,339.073s29.97-1.585,35.9,30.294c3.8,20.409,1.945,72.9.626,76.755s-16.04,3.725-19.39,0-17.138-107.049-17.138-107.049" transform="translate(-1442.412 -274.372)" fill="#ffe0b2"/>
        <path id="Trazado_115135" data-name="Trazado 115135" d="M1570.318,920.431c-6.274-.048-12.777-.148-19.556-.3h0q-4.67-.1-9.511-.236c-2.842-18.162-6.372-56.775-9.466-80.164-2.448-18.5-3.771-33.618-4.469-45.272a11.614,11.614,0,0,1,.078-2.324c.019-.134.04-.26.064-.386v0a6.345,6.345,0,0,1,2.6-4.205l0,0c5.158-3.654,16.493-.77,24.922,2.21,2.484.877,4.712,1.764,6.46,2.493,2.376.994,3.859,1.7,3.859,1.7l.462,18.283,1.611,38.027v.005l.009.217v0Z" transform="translate(-1235.904 -635.906)" fill="#a74c3b"/>
        <path id="Trazado_115136" data-name="Trazado 115136" d="M1747.631,838.288c-.336.012-.672.022-1.011.031q-4.97.139-10.1.219c-5.471.088-11.1.122-16.917.112l-1.392,0c-2.4-15.289-5.928-52.334-8.355-70.065,0,0,0,0,0,0-.007-.048-.014-.093-.021-.138v0q-.651-4.766-1.285-9.549c-2.558-19.339-3.888-34.993-4.56-46.845q-.047-.819-.088-1.614-.068-1.237-.122-2.417c-.167-3.459-.274-6.539-.341-9.232-.231-9.323.026-14.057.026-14.057l25.26,5.862,12.843,2.982.379,15.027.1,3.957v0l.081,3.17.2,8.155.117,4.565.074,2.937.792,18.691Z" transform="translate(-1378.37 -554.089)" fill="#a74c3b"/>
        <path id="Trazado_115137" data-name="Trazado 115137" d="M1736.559,945.046l-.476-.06c.026-.209,2.671-20.964,4.664-28.417,2.012-7.521,11.269-14.012,11.363-14.077l.273.394c-.092.064-9.206,6.456-11.172,13.807-1.985,7.422-4.625,28.145-4.651,28.353" transform="translate(-1404.866 -730.311)" fill="#30262a"/>
        <path id="Trazado_115138" data-name="Trazado 115138" d="M1526.889,771.572s49.066-2.812,72.351,3.076l.346-6.965-32.649-10.143-26.36.68-8.1,1.813-5.715,9.259Z" transform="translate(-1235.482 -613.014)" fill="#30262a"/>
        <path id="Trazado_115139" data-name="Trazado 115139" d="M1594.886,341.98s-2.429-10.481-28.847-10.48c-46.037,0-35.013,30.4-39.273,93.033,0,0,29.681-6.749,72.63,2.233,0,0,4.181-33.922-1.221-62.6-1.427-7.572-1.168-15.6-3.289-22.188" transform="translate(-1235.483 -268.255)" fill="#ffe0b2"/>
        <path id="Trazado_115140" data-name="Trazado 115140" d="M1901.754,565.212l-.33-.032c3.577-37.078-1.171-62.3-1.219-62.551l.326-.063c.049.251,4.8,25.52,1.224,62.646" transform="translate(-1537.676 -406.684)" fill="#30262a"/>
        <path id="Trazado_115141" data-name="Trazado 115141" d="M1904.085,567.026c2.277-2.229-7.226-4.005-7.226-4.005s8.792,1.829,10.971.163c1.736-1.327-6.226-4.2-9-5.066l.026-.075c2.78.614,11.423,2.594,12.666.8,1.408-2.036-9.834-4.912-11.52-5.3,0-.01,0-.02,0-.029,18.707,2.392,6.06-3.675-1.874-5.352,1.387-1.058,4-3.6,3.458-4.519-.625-1.059-4.547.28-5.68.756-2.614,1.1-8.24,2.209-10.833,3.357-1.124.5-2.219,12.63-2.219,12.63a41.7,41.7,0,0,0,8.544,4.315,4.611,4.611,0,0,0,1,.424c.456.137,1.063.33,1.752.546l.006,0h0c3.306,1.034,8.64,2.617,9.924,1.359" transform="translate(-1523.641 -439.597)" fill="#ea9a81"/>
        <path id="Trazado_115142" data-name="Trazado 115142" d="M1355.886,239.4s16.023.245,27.937,12.043c4.363,4.32,10.937,11.632,16.206,17.614a49.923,49.923,0,0,0,21.014,14.135l39.422,16.6s5.342,9.38-3.926,16.827c0,0-42.677,2.019-68.88-8.682a9.962,9.962,0,0,1-3.836-2.661Z" transform="translate(-1097.204 -193.724)" fill="#ffb74d"/>
        <rect id="Rect치ngulo_46803" data-name="Rect치ngulo 46803" width="0.238" height="15.394" transform="translate(71.436 90.683) rotate(-16.853)" fill="#30262a"/>
        <path id="Trazado_115143" data-name="Trazado 115143" d="M1499.51,469.611c-.272-7.628-3.5-29.319-3.532-29.538l.236-.035c.032.218,3.262,21.924,3.534,29.565Z" transform="translate(-1210.569 -356.086)" fill="#30262a"/>
        <path id="Trazado_115144" data-name="Trazado 115144" d="M1140.894,244.048c.551-2.885,4.51,1.4,4.51,1.4s-3.286-3.563-3.119-6.086c.134-2.01,3.8.384,5.877,2.07l.045-.058c-1.889-1.822-4.4-4.242-3.651-6.113.845-2.12,5.367,1.84,6.527,2.935l.02-.018c-3.964-5.051-.269-6.528,5.065-1.29.1-1.605.722-4.908,1.706-4.96,1.131-.06,2.1,3.634,2.316,4.747.49,2.567,2.506,7.454,2.947,10.03.191,1.117-8.566,8.145-8.566,8.145a38.439,38.439,0,0,1-7.671-4.36,4.248,4.248,0,0,1-.834-.549c-.338-.281-.8-.648-1.313-1.067l-.005,0h0c-2.48-2.011-4.165-3.192-3.854-4.819" transform="translate(-923.2 -187.677)" fill="#ea9a81"/>
        <path id="Trazado_115145" data-name="Trazado 115145" d="M1307.99,287.92s-6.805-4.065-23.491,4.517c-10.5,5.4-33.013,17.383-43.322,12.7-10.089-4.585-33.3-16.251-33.3-16.251s-11.424,2.335-10.984,11.417c0,0,13.256,23.028,37.471,32.739,13.785,5.528,58.417-16.766,56.462-17.878Z" transform="translate(-968.535 -232.211)" fill="#ffe0b2"/>
        <path id="Trazado_115146" data-name="Trazado 115146" d="M1643.85,159.7c1.026-7.611,7.109-13.11,13.587-12.281s10.9,7.671,9.873,15.282-7.109,13.11-13.587,12.281-10.9-7.671-9.873-15.282" transform="translate(-1330.11 -119.228)" fill="#ea9a81"/>
        <path id="Trazado_115147" data-name="Trazado 115147" d="M1651.052,220.613a2.488,2.488,0,0,1,3.363-.759,2.345,2.345,0,0,1,.4,3.341,2.487,2.487,0,0,1-3.363.759,2.345,2.345,0,0,1-.4-3.341" transform="translate(-1335.642 -177.608)" fill="#ea9a81"/>
        <path id="Trazado_115148" data-name="Trazado 115148" d="M1660.5,237.879a1.663,1.663,0,0,1-.467-.059.083.083,0,0,1,.052-.157c.063.021,1.527.476,2.564-1.538a.083.083,0,0,1,.147.076,2.594,2.594,0,0,1-2.3,1.679" transform="translate(-1343.277 -191.039)" fill="#30262a"/>
        <path id="Trazado_115149" data-name="Trazado 115149" d="M1635.1,123.083a9.83,9.83,0,0,0-6.745,6.36c-2.051,5.463-.718,9.82,6.745,9.985s0-16.345,0-16.345" transform="translate(-1316.988 -99.601)" fill="#30262a"/>
        <path id="Trazado_115150" data-name="Trazado 115150" d="M1642.509,95.612a17.339,17.339,0,0,1,19.939-5.217c12.6,4.687,11.821,22.368,18.29,26.858s8.619,13.718,0,13.718-6.96,4.439-16.271,5.859-14.481-3.369-20.626-.879-10.1-4.248-4.533-8.936,7.284-11.722,1.87-18.383,1.332-13.021,1.332-13.021" transform="translate(-1324.397 -72.13)" fill="#30262a"/>
      </g>
    </g>
  </g>
</svg>
