<svg id="Grupo_81198" data-name="Grupo 81198" xmlns="http://www.w3.org/2000/svg" xmlns:xlink="http://www.w3.org/1999/xlink" width="466.163" height="437.355" viewBox="0 0 466.163 437.355">
  <defs>
    <clipPath id="clip-path">
      <rect id="Rectángulo_46938" data-name="Rectángulo 46938" width="466.163" height="437.355" fill="none"/>
    </clipPath>
  </defs>
  <g id="Grupo_81197" data-name="Grupo 81197" clip-path="url(#clip-path)">
    <path id="Trazado_115209" data-name="Trazado 115209" d="M406.1,334.507a6.728,6.728,0,1,1,6.728-6.729,6.728,6.728,0,0,1-6.728,6.729m0-11.887a5.158,5.158,0,1,0,5.158,5.158,5.158,5.158,0,0,0-5.158-5.158" transform="translate(-281.265 -266.661)" fill="#fff"/>
    <path id="Trazado_115210" data-name="Trazado 115210" d="M244.222,641.984a6.729,6.729,0,1,1,6.729-6.731,6.73,6.73,0,0,1-6.729,6.731m0-11.888a5.159,5.159,0,1,0,5.158,5.161v0a5.165,5.165,0,0,0-5.158-5.158" transform="translate(-225.371 -372.824)" fill="#fff"/>
    <path id="Trazado_115211" data-name="Trazado 115211" d="M594.685,883.7a6.728,6.728,0,1,1,6.729-6.729,6.728,6.728,0,0,1-6.729,6.729m0-11.887a5.158,5.158,0,1,0,5.158,5.158,5.158,5.158,0,0,0-5.158-5.158" transform="translate(-346.379 -456.285)" fill="#fff"/>
    <path id="Trazado_115212" data-name="Trazado 115212" d="M653.231,429.7a6.728,6.728,0,1,1,6.729-6.729,6.728,6.728,0,0,1-6.729,6.729m0-11.887a5.158,5.158,0,1,0,5.158,5.158,5.158,5.158,0,0,0-5.158-5.158" transform="translate(-366.594 -299.53)" fill="#fff"/>
    <path id="Trazado_115213" data-name="Trazado 115213" d="M892.918,489.558a.786.786,0,0,1-.784-.784v-7.9a.786.786,0,0,1,1.57,0v7.9a.786.786,0,0,1-.784.784" transform="translate(-451.404 -321.582)" fill="#fff"/>
    <path id="Trazado_115214" data-name="Trazado 115214" d="M894.769,487.674h-7.9a.786.786,0,0,1-.06-1.57h7.962a.786.786,0,0,1,.06,1.57h-.06" transform="translate(-449.303 -323.649)" fill="#fff"/>
    <path id="Trazado_115215" data-name="Trazado 115215" d="M701.428,256.638a.784.784,0,0,1-.784-.784v-7.9a.785.785,0,0,1,1.57,0v7.9a.784.784,0,0,1-.784.784" transform="translate(-385.287 -241.149)" fill="#fff"/>
    <path id="Trazado_115216" data-name="Trazado 115216" d="M703.3,254.772h-7.9a.785.785,0,1,1,0-1.57h7.9a.785.785,0,0,1,0,1.57" transform="translate(-383.205 -243.234)" fill="#fff"/>
    <path id="Trazado_115217" data-name="Trazado 115217" d="M847.75,647.061a.785.785,0,0,1-.784-.786v-7.9a.786.786,0,0,1,1.57-.06c0,.02,0,.04,0,.06v7.9a.785.785,0,0,1-.784.786" transform="translate(-435.808 -375.943)" fill="#fff"/>
    <path id="Trazado_115218" data-name="Trazado 115218" d="M849.625,645.209h-7.9a.785.785,0,0,1,0-1.57h7.9a.785.785,0,0,1,0,1.57" transform="translate(-433.727 -378.043)" fill="#fff"/>
    <path id="Trazado_115219" data-name="Trazado 115219" d="M678.338,407.707a.787.787,0,0,1-.785-.784v-7.9a.785.785,0,0,1,1.57,0v7.9a.784.784,0,0,1-.783.786h0" transform="translate(-377.314 -293.311)" fill="#fff"/>
    <path id="Trazado_115220" data-name="Trazado 115220" d="M680.223,405.841h-7.9a.786.786,0,0,1,0-1.57h7.9a.786.786,0,0,1,0,1.57" transform="translate(-375.247 -295.394)" fill="#fff"/>
    <path id="Trazado_115221" data-name="Trazado 115221" d="M633.492,850.821a.784.784,0,0,1-.784-.784v-7.9a.785.785,0,1,1,1.57,0v7.9a.784.784,0,0,1-.784.784" transform="translate(-361.83 -446.308)" fill="#fff"/>
    <path id="Trazado_115222" data-name="Trazado 115222" d="M635.356,848.952h-7.9a.785.785,0,0,1,0-1.57h7.9a.785.785,0,0,1,0,1.57" transform="translate(-359.745 -448.391)" fill="#fff"/>
    <path id="Trazado_115223" data-name="Trazado 115223" d="M551.612,311.448a.786.786,0,0,1-.786-.784v-7.9a.786.786,0,0,1,1.57,0v7.9a.786.786,0,0,1-.784.784" transform="translate(-333.558 -260.084)" fill="#fff"/>
    <path id="Trazado_115224" data-name="Trazado 115224" d="M553.481,309.566h-7.9a.785.785,0,0,1,0-1.57h7.9a.785.785,0,1,1,0,1.57" transform="translate(-331.476 -262.153)" fill="#fff"/>
  </g>
</svg>
