<svg id="Grupo_81033" data-name="Grupo 81033" xmlns="http://www.w3.org/2000/svg" xmlns:xlink="http://www.w3.org/1999/xlink" width="469.178" height="275.678" viewBox="0 0 469.178 275.678">
  <defs>
    <clipPath id="clip-path">
      <rect id="Rectángulo_46735" data-name="Rectángulo 46735" width="469.178" height="275.678" fill="none"/>
    </clipPath>
    <clipPath id="clip-path-2">
      <rect id="Rectángulo_46734" data-name="Rectángulo 46734" width="469.177" height="275.676" fill="none"/>
    </clipPath>
    <clipPath id="clip-path-3">
      <rect id="Rectángulo_46733" data-name="Rectángulo 46733" width="359.733" height="181.359" fill="none"/>
    </clipPath>
  </defs>
  <g id="Grupo_81032" data-name="Grupo 81032" clip-path="url(#clip-path)">
    <g id="Grupo_81031" data-name="Grupo 81031" transform="translate(0 0.002)">
      <g id="Grupo_81030" data-name="Grupo 81030" clip-path="url(#clip-path-2)">
        <path id="Trazado_114939" data-name="Trazado 114939" d="M469.177,129.942c0,68.914-105.029,124.785-234.589,124.785S0,198.856,0,129.942,105.029,5.157,234.589,5.157,469.177,61.023,469.177,129.942" transform="translate(0 20.951)" fill="#ffe0b2"/>
        <g id="Grupo_81029" data-name="Grupo 81029" transform="translate(54.53 45.201)" opacity="0.5">
          <g id="Grupo_81028" data-name="Grupo 81028">
            <g id="Grupo_81027" data-name="Grupo 81027" clip-path="url(#clip-path-3)">
              <path id="Trazado_114940" data-name="Trazado 114940" d="M19.89,78.2c-10.982,6.415-14.207,27.255,2.623,36.768s44.748,6.668,56.611,3.443,28.4,1.995,53.638,14.688S188.42,154.99,198.5,150s54.97-8.45,76-1.489,47.543,36.1,62.063,40.049,40.991,2.491,32.186-18.921-36.267-48.631-47.861-57.3-53.233-36-53.233-36,30.1-10.754,24.961-35.452S266.909,9.74,246.2,8.935,19.89,78.2,19.89,78.2" transform="translate(-10.767 -8.929)" fill="#efd6bb"/>
            </g>
          </g>
        </g>
        <path id="Trazado_114941" data-name="Trazado 114941" d="M33.139,47.278a18.782,18.782,0,0,0-2.41-4.045,30.248,30.248,0,0,0-2.03-2.375,19.7,19.7,0,0,1-2.142-2.015l-.643-2.086c-3.873,1.514-5.169,4.45-6.1,5.529A9.566,9.566,0,0,0,17.737,46.5c-.491,2.385-.091,5.3,2.359,6.309.542.218.9-.395.835-.835-.466-3.347-1.195-5.752,1.57-8.44.7-.684,1.418-1.23,2.071-1.813.7,1.119,1.651,2.152,2.339,3.149a18.364,18.364,0,0,1,2.466,4.567c.613,1.833.258,3.691.851,5.5a1.657,1.657,0,0,0,2.744.724c2.045-2.42,1.347-5.64.167-8.384" transform="translate(71.323 149.345)" fill="#e6cbab"/>
        <path id="Trazado_114942" data-name="Trazado 114942" d="M32.645,57.566a18.781,18.781,0,0,1,2.41-4.045,30.244,30.244,0,0,1,2.03-2.375,19.218,19.218,0,0,0,2.142-2.015l.643-2.086c3.873,1.514,5.169,4.45,6.1,5.534a9.548,9.548,0,0,1,2.081,4.207c.491,2.385.091,5.3-2.359,6.309-.542.218-.9-.395-.835-.835.466-3.347,1.195-5.752-1.57-8.44-.7-.684-1.418-1.23-2.071-1.808-.7,1.114-1.651,2.147-2.339,3.144a18.365,18.365,0,0,0-2.466,4.567c-.613,1.833-.258,3.691-.851,5.5a1.657,1.657,0,0,1-2.744.724c-2.045-2.42-1.347-5.64-.167-8.384" transform="translate(128.032 191.147)" fill="#e6cbab"/>
        <path id="Trazado_114943" data-name="Trazado 114943" d="M47.885,46.5a18.762,18.762,0,0,1,2.4-4.045,30.248,30.248,0,0,1,2.03-2.375,19.7,19.7,0,0,0,2.147-2.015L55.1,35.98c3.873,1.514,5.169,4.45,6.1,5.534a9.407,9.407,0,0,1,2.076,4.207c.5,2.385.1,5.3-2.354,6.309-.542.218-.9-.395-.83-.835.461-3.347,1.195-5.752-1.575-8.44-.7-.684-1.413-1.23-2.071-1.808-.7,1.114-1.651,2.147-2.334,3.144a18.381,18.381,0,0,0-2.471,4.567c-.613,1.833-.258,3.691-.851,5.5a1.657,1.657,0,0,1-2.744.724C46,52.465,46.7,49.245,47.885,46.5" transform="translate(189.934 146.188)" fill="#e6cbab"/>
        <path id="Trazado_114944" data-name="Trazado 114944" d="M69.9,23.519a18.784,18.784,0,0,1,2.41-4.045A29.271,29.271,0,0,1,74.344,17.1a19.665,19.665,0,0,0,2.137-2.015L77.124,13c3.873,1.514,5.169,4.45,6.1,5.534a9.53,9.53,0,0,1,2.081,4.2c.491,2.39.091,5.306-2.359,6.314-.542.218-.9-.395-.835-.835.466-3.347,1.195-5.752-1.564-8.44-.7-.684-1.423-1.23-2.076-1.813-.7,1.119-1.645,2.152-2.334,3.149a18.217,18.217,0,0,0-2.471,4.567c-.613,1.833-.258,3.691-.851,5.5a1.657,1.657,0,0,1-2.744.724c-2.046-2.42-1.347-5.64-.167-8.384" transform="translate(279.399 52.81)" fill="#e6cbab"/>
        <path id="Trazado_114945" data-name="Trazado 114945" d="M16.447,41.462a18.781,18.781,0,0,1,2.41-4.045,29.265,29.265,0,0,1,2.035-2.375,20.146,20.146,0,0,0,2.137-2.015l.643-2.086c3.873,1.514,5.169,4.45,6.1,5.529a9.575,9.575,0,0,1,2.081,4.207c.491,2.39.091,5.306-2.359,6.314-.542.218-.9-.395-.835-.835.466-3.347,1.195-5.752-1.57-8.44-.7-.684-1.418-1.23-2.071-1.813-.7,1.114-1.646,2.152-2.334,3.149a18.218,18.218,0,0,0-2.471,4.567c-.613,1.833-.258,3.691-.851,5.5a1.657,1.657,0,0,1-2.744.724c-2.045-2.42-1.347-5.64-.167-8.384" transform="translate(62.218 125.714)" fill="#e6cbab"/>
        <path id="Trazado_114946" data-name="Trazado 114946" d="M46.377,44.607a18.782,18.782,0,0,0-2.41-4.045,30.245,30.245,0,0,0-2.03-2.375A19.7,19.7,0,0,1,39.8,36.172l-.643-2.086c-3.873,1.514-5.169,4.45-6.1,5.534a9.53,9.53,0,0,0-2.081,4.2c-.491,2.39-.091,5.306,2.359,6.314.542.218.9-.395.835-.835-.466-3.347-1.195-5.752,1.57-8.44.7-.684,1.418-1.23,2.071-1.813.7,1.119,1.651,2.152,2.334,3.149a18.218,18.218,0,0,1,2.471,4.567c.613,1.833.258,3.691.851,5.5a1.657,1.657,0,0,0,2.744.724c2.045-2.42,1.347-5.64.167-8.384" transform="translate(125.11 138.493)" fill="#e6cbab"/>
        <path id="Trazado_114947" data-name="Trazado 114947" d="M22.125,37.484a18.782,18.782,0,0,0-2.41-4.045,30.245,30.245,0,0,0-2.03-2.375,19.219,19.219,0,0,1-2.142-2.015L14.9,26.963c-3.873,1.514-5.169,4.45-6.1,5.534A9.486,9.486,0,0,0,6.728,36.7c-.5,2.385-.1,5.3,2.354,6.309.542.218.9-.395.835-.835-.466-3.347-1.195-5.752,1.564-8.44.7-.684,1.423-1.23,2.076-1.808.7,1.114,1.646,2.147,2.334,3.144a18.218,18.218,0,0,1,2.471,4.567c.613,1.833.258,3.691.851,5.5a1.657,1.657,0,0,0,2.744.724c2.045-2.42,1.347-5.64.167-8.384" transform="translate(26.577 109.551)" fill="#e6cbab"/>
        <path id="Trazado_114948" data-name="Trazado 114948" d="M23.258,28.434a18.782,18.782,0,0,0-2.41-4.045,30.251,30.251,0,0,0-2.03-2.375A19.7,19.7,0,0,1,16.675,20l-.643-2.086c-3.873,1.514-5.169,4.45-6.1,5.534a9.46,9.46,0,0,0-2.076,4.207c-.5,2.385-.1,5.3,2.354,6.309.542.218.9-.395.835-.835-.466-3.347-1.195-5.752,1.57-8.44.7-.684,1.418-1.23,2.071-1.813.7,1.119,1.651,2.152,2.339,3.149A18.364,18.364,0,0,1,19.5,30.591c.613,1.833.258,3.691.851,5.5a1.657,1.657,0,0,0,2.744.724c2.045-2.42,1.347-5.64.167-8.384" transform="translate(31.181 72.78)" fill="#e6cbab"/>
        <path id="Trazado_114949" data-name="Trazado 114949" d="M34.51,40.318c-3.554,2.081-7.919,2.268-10.754,5.59-1.98,2.324-3.4,6.293-.552,8.445a1.611,1.611,0,0,0,2.354-.957c.319-1.159.051-2.334.5-3.463a7.865,7.865,0,0,1,2.82-3.281c.891-.638,1.787-1.2,2.683-1.767a14.712,14.712,0,0,0-.608,2.643c-.44,3.17-.916,5.316-2.7,8a1.523,1.523,0,0,0,1.3,2.273c7.478.213,5.792-12.162,4.957-17.483" transform="translate(87.759 163.814)" fill="#e6cbab"/>
        <path id="Trazado_114950" data-name="Trazado 114950" d="M39.133,45.507c-3.554,2.076-7.919,2.268-10.754,5.59-1.98,2.324-3.4,6.293-.552,8.445a1.611,1.611,0,0,0,2.354-.957c.319-1.159.051-2.334.5-3.463a7.865,7.865,0,0,1,2.82-3.281c.891-.638,1.787-1.2,2.683-1.772a14.869,14.869,0,0,0-.608,2.648c-.44,3.17-.916,5.316-2.7,8a1.523,1.523,0,0,0,1.3,2.273c7.478.213,5.792-12.162,4.957-17.483" transform="translate(106.542 184.898)" fill="#e6cbab"/>
        <path id="Trazado_114951" data-name="Trazado 114951" d="M11.564,34.276c3.554,2.081,7.919,2.268,10.754,5.59,1.98,2.324,3.4,6.293.552,8.445a1.611,1.611,0,0,1-2.354-.957c-.324-1.159-.051-2.334-.5-3.463a7.865,7.865,0,0,0-2.82-3.281c-.891-.638-1.787-1.2-2.683-1.772a14.87,14.87,0,0,1,.608,2.648c.44,3.17.916,5.316,2.7,8a1.523,1.523,0,0,1-1.3,2.273c-7.478.213-5.792-12.162-4.957-17.483" transform="translate(43.851 139.265)" fill="#e6cbab"/>
        <path id="Trazado_114952" data-name="Trazado 114952" d="M36.108,42.385c3.554,2.081,7.919,2.268,10.754,5.59,1.98,2.324,3.4,6.293.552,8.445a1.611,1.611,0,0,1-2.354-.957c-.324-1.159-.051-2.334-.5-3.463a7.865,7.865,0,0,0-2.82-3.281c-.891-.638-1.787-1.2-2.683-1.772a14.87,14.87,0,0,1,.608,2.648c.44,3.169.916,5.316,2.7,8a1.523,1.523,0,0,1-1.3,2.273c-7.478.213-5.792-12.162-4.957-17.483" transform="translate(143.576 172.213)" fill="#e6cbab"/>
        <path id="Trazado_114953" data-name="Trazado 114953" d="M5.576,22.183c3.554,2.076,7.919,2.268,10.754,5.59,1.98,2.324,3.4,6.293.552,8.445a1.611,1.611,0,0,1-2.354-.957c-.324-1.159-.051-2.334-.5-3.463a7.865,7.865,0,0,0-2.82-3.281c-.891-.638-1.787-1.2-2.683-1.772a14.87,14.87,0,0,1,.608,2.648c.44,3.169.916,5.316,2.7,8a1.523,1.523,0,0,1-1.3,2.273C3.055,39.873,4.741,27.5,5.576,22.183" transform="translate(19.522 90.13)" fill="#e6cbab"/>
        <path id="Trazado_114954" data-name="Trazado 114954" d="M39.226,31.073c-3.18,2.618-7.453,3.5-9.726,7.23-1.585,2.607-2.354,6.749.795,8.425a1.613,1.613,0,0,0,2.172-1.321c.132-1.195-.319-2.309-.056-3.5a7.891,7.891,0,0,1,2.263-3.686c.78-.775,1.575-1.468,2.364-2.177a15.751,15.751,0,0,0-.177,2.709,16.893,16.893,0,0,1-1.4,8.334,1.521,1.521,0,0,0,1.651,2.03c7.412-.977,3.782-12.921,2.111-18.045" transform="translate(114.262 126.251)" fill="#e6cbab"/>
        <path id="Trazado_114955" data-name="Trazado 114955" d="M83.125,17.632c-3.18,2.618-7.453,3.5-9.726,7.23-1.585,2.608-2.354,6.749.795,8.425a1.613,1.613,0,0,0,2.172-1.321c.132-1.195-.319-2.309-.056-3.5a7.891,7.891,0,0,1,2.263-3.686c.78-.775,1.575-1.468,2.364-2.172a15.682,15.682,0,0,0-.177,2.709,16.883,16.883,0,0,1-1.4,8.329,1.525,1.525,0,0,0,1.651,2.035c7.412-.982,3.782-12.926,2.111-18.05" transform="translate(292.628 71.639)" fill="#e6cbab"/>
        <path id="Trazado_114956" data-name="Trazado 114956" d="M22.3,46.983c-.02-1.63.177-3.944-1.57-4.7a.4.4,0,0,0-.456.061c-1.357,1.337-1.3,4.126-1.392,5.939-.116,2.213.091,4.425,1.5,6.192a1.285,1.285,0,0,0,2.142-.562c.354-2.258-.2-4.638-.223-6.926" transform="translate(76.6 171.605)" fill="#e6cbab"/>
        <path id="Trazado_114957" data-name="Trazado 114957" d="M26.581,51.516c-.02-1.63.177-3.944-1.57-4.7a.4.4,0,0,0-.456.061c-1.357,1.337-1.3,4.126-1.392,5.939-.116,2.213.091,4.425,1.5,6.192a1.285,1.285,0,0,0,2.142-.562c.354-2.258-.2-4.638-.223-6.926" transform="translate(94.002 190.023)" fill="#e6cbab"/>
        <path id="Trazado_114958" data-name="Trazado 114958" d="M21.088,40.081c-3.488,2.967-8.526,8.2-4.83,12.951.592.765,1.732.228,1.985-.527.648-1.909.81-3.919,1.585-5.8s1.646-3.8,2.592-5.6a.852.852,0,0,0-1.332-1.028" transform="translate(60.793 161.945)" fill="#e6cbab"/>
        <path id="Trazado_114959" data-name="Trazado 114959" d="M12.885,33.658c-3.488,2.967-8.526,8.2-4.83,12.951.592.759,1.732.228,1.985-.527.648-1.909.81-3.919,1.585-5.8s1.646-3.8,2.592-5.6a.852.852,0,0,0-1.332-1.028" transform="translate(27.463 135.847)" fill="#e6cbab"/>
        <path id="Trazado_114960" data-name="Trazado 114960" d="M22.343,44.335c-3.488,2.967-8.526,8.2-4.83,12.951.592.759,1.732.228,1.985-.527.648-1.909.81-3.919,1.585-5.8s1.646-3.8,2.592-5.6a.852.852,0,0,0-1.332-1.028" transform="translate(65.892 179.229)" fill="#e6cbab"/>
        <path id="Trazado_114961" data-name="Trazado 114961" d="M36.918,43c-3.488,2.967-8.526,8.2-4.83,12.951.592.759,1.732.223,1.985-.527.648-1.909.81-3.919,1.585-5.8s1.646-3.8,2.592-5.6A.852.852,0,0,0,36.918,43" transform="translate(125.112 173.797)" fill="#e6cbab"/>
        <path id="Trazado_114962" data-name="Trazado 114962" d="M31.529,30.1C28.04,33.062,23,38.292,26.7,43.047c.592.759,1.732.223,1.985-.527.648-1.909.81-3.919,1.585-5.8s1.646-3.8,2.592-5.6A.852.852,0,0,0,31.529,30.1" transform="translate(103.216 121.371)" fill="#e6cbab"/>
        <path id="Trazado_114963" data-name="Trazado 114963" d="M41.467,33.658c-3.494,2.967-8.531,8.2-4.835,12.951.592.759,1.732.228,1.99-.527.643-1.909.81-3.919,1.585-5.8s1.635-3.8,2.587-5.6a.849.849,0,0,0-1.327-1.028" transform="translate(143.574 135.847)" fill="#e6cbab"/>
        <path id="Trazado_114964" data-name="Trazado 114964" d="M73.048,10.856c-3.489,2.967-8.526,8.2-4.83,12.951.592.759,1.732.228,1.985-.527.648-1.909.81-3.919,1.585-5.8s1.646-3.8,2.592-5.6a.852.852,0,0,0-1.332-1.028" transform="translate(271.912 43.201)" fill="#e6cbab"/>
        <path id="Trazado_114965" data-name="Trazado 114965" d="M14.749,40.745c-1.23,3.088-1.635,8.121.967,10.658a1.338,1.338,0,0,0,2.258-.932c.03-1.443-.542-2.749-.511-4.207a13.371,13.371,0,0,1,.962-4.506c.886-2.3-2.78-3.261-3.676-1.013" transform="translate(56.018 160.36)" fill="#e6cbab"/>
        <path id="Trazado_114966" data-name="Trazado 114966" d="M4.143,30.573c-1.23,3.088-1.635,8.121.967,10.658A1.334,1.334,0,0,0,7.363,40.3c.035-1.443-.537-2.749-.506-4.207a13.25,13.25,0,0,1,.962-4.506c.886-2.3-2.78-3.261-3.676-1.013" transform="translate(12.925 119.03)" fill="#e6cbab"/>
        <path id="Trazado_114967" data-name="Trazado 114967" d="M22.539,11.241c-1.23,3.088-1.635,8.121.967,10.658a1.338,1.338,0,0,0,2.258-.932c.03-1.443-.542-2.749-.511-4.207a13.371,13.371,0,0,1,.962-4.506c.886-2.3-2.78-3.261-3.676-1.013" transform="translate(87.67 40.482)" fill="#e6cbab"/>
        <path id="Trazado_114968" data-name="Trazado 114968" d="M28.627,41.96c-1.23,3.088-1.635,8.121.967,10.658a1.338,1.338,0,0,0,2.258-.932c.03-1.443-.542-2.749-.511-4.207a13.371,13.371,0,0,1,.962-4.506c.886-2.3-2.78-3.261-3.676-1.013" transform="translate(112.406 165.296)" fill="#e6cbab"/>
        <path id="Trazado_114969" data-name="Trazado 114969" d="M29.714,34.835c-.466-.511-1.18.041-1.073.623a17.351,17.351,0,0,1-.992,8.374c-.694,2.192-2.38,4.233-2.253,6.567a.787.787,0,0,0,1.165.668c2.78-1.215,3.843-5.807,4.314-8.526.456-2.638.754-5.595-1.159-7.706" transform="translate(103.157 140.716)" fill="#e6cbab"/>
        <path id="Trazado_114970" data-name="Trazado 114970" d="M22.976,12.157c-.466-.511-1.18.041-1.073.623a17.351,17.351,0,0,1-.992,8.374c-.694,2.192-2.38,4.233-2.253,6.567a.785.785,0,0,0,1.165.668c2.78-1.215,3.843-5.8,4.314-8.526.456-2.638.754-5.595-1.159-7.706" transform="translate(75.78 48.573)" fill="#e6cbab"/>
        <path id="Trazado_114971" data-name="Trazado 114971" d="M43.27,47.831c-.466-.511-1.18.041-1.073.623a17.352,17.352,0,0,1-.992,8.374c-.694,2.192-2.38,4.233-2.248,6.567a.782.782,0,0,0,1.159.668c2.78-1.215,3.843-5.807,4.314-8.526.456-2.638.754-5.595-1.159-7.706" transform="translate(158.252 193.52)" fill="#e6cbab"/>
        <path id="Trazado_114972" data-name="Trazado 114972" d="M25.8,29.082c-.466-.511-1.18.041-1.073.623a17.352,17.352,0,0,1-.992,8.374c-.694,2.192-2.38,4.233-2.248,6.567a.782.782,0,0,0,1.159.668c2.78-1.215,3.843-5.807,4.314-8.526.456-2.638.754-5.595-1.159-7.706" transform="translate(87.253 117.341)" fill="#e6cbab"/>
        <path id="Trazado_114973" data-name="Trazado 114973" d="M69.908,15.4c-.466-.511-1.18.041-1.073.623a17.352,17.352,0,0,1-.992,8.374c-.694,2.192-2.38,4.233-2.253,6.567a.787.787,0,0,0,1.165.668c2.78-1.215,3.843-5.807,4.314-8.526.456-2.638.754-5.595-1.159-7.706" transform="translate(266.469 61.753)" fill="#e6cbab"/>
        <path id="Trazado_114974" data-name="Trazado 114974" d="M48.463,41.345c-.466-.511-1.18.041-1.073.623a17.352,17.352,0,0,1-.992,8.374c-.694,2.192-2.38,4.238-2.248,6.567a.782.782,0,0,0,1.159.668c2.78-1.215,3.843-5.8,4.314-8.526.456-2.638.754-5.595-1.159-7.706" transform="translate(179.352 167.166)" fill="#e6cbab"/>
        <path id="Trazado_114975" data-name="Trazado 114975" d="M33.057,37.048c-1.747,2.557-4.643,3.468-6.511,5.792A1.227,1.227,0,0,0,27.4,44.9c3.716.43,6.633-3.458,8.228-6.349a1.491,1.491,0,0,0-2.572-1.5" transform="translate(106.542 147.732)" fill="#e6cbab"/>
        <path id="Trazado_114976" data-name="Trazado 114976" d="M42.572,49.582c-1.747,2.557-4.643,3.468-6.511,5.792a1.227,1.227,0,0,0,.856,2.061c3.716.43,6.633-3.458,8.228-6.349a1.491,1.491,0,0,0-2.572-1.5" transform="translate(145.203 198.659)" fill="#e6cbab"/>
        <path id="Trazado_114977" data-name="Trazado 114977" d="M48.063,41.74c-1.747,2.557-4.643,3.468-6.511,5.792a1.227,1.227,0,0,0,.856,2.061c3.716.43,6.633-3.458,8.228-6.349a1.491,1.491,0,0,0-2.572-1.5" transform="translate(167.513 166.797)" fill="#e6cbab"/>
        <path id="Trazado_114978" data-name="Trazado 114978" d="M15.728,40.077c-1.747,2.557-4.643,3.468-6.511,5.792a1.227,1.227,0,0,0,.856,2.061c3.716.425,6.633-3.458,8.228-6.349a1.491,1.491,0,0,0-2.572-1.5" transform="translate(36.133 160.04)" fill="#e6cbab"/>
        <path id="Trazado_114979" data-name="Trazado 114979" d="M26.288,41.639a20.843,20.843,0,0,1-1.159-4.795c-.284-2.314-3.959-2.324-3.661,0,.42,3.281,1.3,8.253,4.05,10.455a1.523,1.523,0,0,0,2.521-1.468c-.3-1.5-1.215-2.759-1.752-4.192" transform="translate(87.156 142.635)" fill="#e6cbab"/>
        <path id="Trazado_114980" data-name="Trazado 114980" d="M52.133,52.059a20.846,20.846,0,0,1-1.159-4.795c-.284-2.314-3.964-2.324-3.661,0,.42,3.281,1.3,8.253,4.05,10.455a1.524,1.524,0,0,0,2.521-1.473c-.3-1.5-1.215-2.754-1.752-4.187" transform="translate(192.166 184.973)" fill="#e6cbab"/>
        <path id="Trazado_114981" data-name="Trazado 114981" d="M17.409,37.045a20.844,20.844,0,0,1-1.159-4.795c-.284-2.314-3.964-2.324-3.661,0,.42,3.281,1.3,8.253,4.05,10.455a1.523,1.523,0,0,0,2.521-1.468c-.3-1.5-1.215-2.759-1.752-4.192" transform="translate(51.079 123.969)" fill="#e6cbab"/>
        <path id="Trazado_114982" data-name="Trazado 114982" d="M14.026,31.35a20.844,20.844,0,0,1-1.159-4.795c-.284-2.314-3.959-2.324-3.661,0,.425,3.281,1.3,8.253,4.05,10.455a1.523,1.523,0,0,0,2.521-1.468c-.3-1.5-1.215-2.759-1.752-4.192" transform="translate(37.334 100.83)" fill="#e6cbab"/>
        <path id="Trazado_114983" data-name="Trazado 114983" d="M8.988,40.809a20.844,20.844,0,0,1-1.159-4.795c-.284-2.314-3.964-2.324-3.661,0,.42,3.281,1.3,8.253,4.05,10.455A1.523,1.523,0,0,0,10.74,45c-.3-1.5-1.215-2.759-1.752-4.192" transform="translate(16.864 139.263)" fill="#e6cbab"/>
        <path id="Trazado_114984" data-name="Trazado 114984" d="M71.2,57.566a18.781,18.781,0,0,0-2.41-4.045,29.263,29.263,0,0,0-2.035-2.375,19.639,19.639,0,0,1-2.137-2.015l-.643-2.086c-3.873,1.514-5.169,4.45-6.1,5.534A9.548,9.548,0,0,0,55.8,56.786c-.491,2.385-.091,5.3,2.359,6.309.542.218.9-.395.835-.835-.466-3.347-1.195-5.752,1.57-8.44.7-.684,1.418-1.23,2.071-1.808.7,1.114,1.645,2.147,2.339,3.144a18.363,18.363,0,0,1,2.466,4.567c.613,1.833.258,3.691.851,5.5a1.657,1.657,0,0,0,2.744.724c2.046-2.42,1.347-5.64.167-8.384" transform="translate(225.98 191.147)" fill="#e6cbab"/>
        <path id="Trazado_114985" data-name="Trazado 114985" d="M87.4,41.462a18.781,18.781,0,0,0-2.41-4.045,29.266,29.266,0,0,0-2.035-2.375,20.18,20.18,0,0,1-2.142-2.015l-.638-2.086c-3.873,1.514-5.169,4.45-6.1,5.529A9.575,9.575,0,0,0,72,40.677c-.491,2.39-.091,5.306,2.359,6.314.542.218.9-.395.835-.835-.466-3.347-1.195-5.752,1.564-8.44.7-.684,1.423-1.23,2.076-1.813.7,1.114,1.646,2.152,2.334,3.149a18.219,18.219,0,0,1,2.471,4.567c.613,1.833.258,3.691.851,5.5a1.657,1.657,0,0,0,2.744.724c2.045-2.42,1.347-5.64.167-8.384" transform="translate(291.79 125.714)" fill="#e6cbab"/>
        <path id="Trazado_114986" data-name="Trazado 114986" d="M57.475,44.607a18.762,18.762,0,0,1,2.4-4.045,29.266,29.266,0,0,1,2.035-2.375,20.681,20.681,0,0,0,2.142-2.015l.638-2.086c3.873,1.514,5.169,4.45,6.1,5.534a9.415,9.415,0,0,1,2.076,4.2c.5,2.39.1,5.306-2.354,6.314-.542.218-.9-.395-.83-.835.461-3.347,1.195-5.752-1.575-8.44-.7-.684-1.413-1.23-2.071-1.813-.7,1.119-1.651,2.152-2.329,3.149a18.236,18.236,0,0,0-2.476,4.567c-.613,1.833-.258,3.691-.851,5.5a1.657,1.657,0,0,1-2.744.724c-2.045-2.42-1.347-5.64-.162-8.384" transform="translate(228.899 138.493)" fill="#e6cbab"/>
        <path id="Trazado_114987" data-name="Trazado 114987" d="M81.721,37.484a18.783,18.783,0,0,1,2.41-4.045,30.246,30.246,0,0,1,2.03-2.375A19.217,19.217,0,0,0,88.3,29.049l.643-2.086c3.873,1.514,5.169,4.45,6.1,5.534A9.548,9.548,0,0,1,97.123,36.7c.491,2.385.091,5.3-2.359,6.309-.542.218-.9-.395-.835-.835.466-3.347,1.195-5.752-1.57-8.44-.7-.684-1.418-1.23-2.071-1.808-.7,1.114-1.651,2.147-2.339,3.144a18.365,18.365,0,0,0-2.466,4.567c-.613,1.833-.258,3.691-.851,5.5a1.657,1.657,0,0,1-2.744.724c-2.046-2.42-1.347-5.64-.167-8.384" transform="translate(327.433 109.551)" fill="#e6cbab"/>
        <path id="Trazado_114988" data-name="Trazado 114988" d="M78.611,26.1a18.783,18.783,0,0,1,2.41-4.045,29.269,29.269,0,0,1,2.035-2.375,20.149,20.149,0,0,0,2.137-2.015l.643-2.086c3.873,1.514,5.169,4.45,6.1,5.534a9.46,9.46,0,0,1,2.076,4.207c.5,2.385.1,5.3-2.354,6.309-.542.218-.9-.395-.835-.835.466-3.347,1.195-5.752-1.57-8.44-.7-.684-1.418-1.23-2.071-1.813-.7,1.119-1.645,2.152-2.339,3.149a18.365,18.365,0,0,0-2.466,4.567c-.613,1.833-.258,3.691-.851,5.5a1.657,1.657,0,0,1-2.744.724c-2.045-2.42-1.347-5.64-.167-8.384" transform="translate(314.797 63.313)" fill="#e6cbab"/>
        <path id="Trazado_114989" data-name="Trazado 114989" d="M66.9,40.318c3.554,2.081,7.919,2.268,10.749,5.59,1.985,2.324,3.4,6.293.557,8.445a1.611,1.611,0,0,1-2.354-.957c-.324-1.159-.051-2.334-.5-3.463a7.864,7.864,0,0,0-2.82-3.281c-.891-.638-1.787-1.2-2.683-1.767a14.709,14.709,0,0,1,.608,2.643c.44,3.17.916,5.316,2.7,8a1.524,1.524,0,0,1-1.3,2.273c-7.478.213-5.792-12.162-4.957-17.483" transform="translate(268.687 163.814)" fill="#e6cbab"/>
        <path id="Trazado_114990" data-name="Trazado 114990" d="M62.278,45.507c3.554,2.076,7.919,2.268,10.749,5.59,1.985,2.324,3.4,6.293.557,8.445a1.611,1.611,0,0,1-2.354-.957c-.324-1.159-.051-2.334-.5-3.463a7.864,7.864,0,0,0-2.82-3.281c-.891-.638-1.787-1.2-2.683-1.772a14.87,14.87,0,0,1,.608,2.648c.44,3.17.916,5.316,2.7,8a1.524,1.524,0,0,1-1.3,2.273c-7.478.213-5.792-12.162-4.957-17.483" transform="translate(249.907 184.898)" fill="#e6cbab"/>
        <path id="Trazado_114991" data-name="Trazado 114991" d="M89.846,34.276c-3.554,2.081-7.919,2.268-10.749,5.59-1.985,2.324-3.4,6.293-.557,8.445a1.611,1.611,0,0,0,2.354-.957c.324-1.159.051-2.334.5-3.463a7.865,7.865,0,0,1,2.82-3.281c.891-.638,1.787-1.2,2.683-1.772a14.873,14.873,0,0,0-.608,2.648c-.44,3.17-.916,5.316-2.7,8a1.524,1.524,0,0,0,1.3,2.273c7.478.213,5.792-12.162,4.957-17.483" transform="translate(312.595 139.265)" fill="#e6cbab"/>
        <path id="Trazado_114992" data-name="Trazado 114992" d="M65.3,42.385c-3.554,2.081-7.919,2.268-10.749,5.59-1.985,2.324-3.4,6.293-.557,8.445a1.611,1.611,0,0,0,2.354-.957c.324-1.159.051-2.334.5-3.463a7.864,7.864,0,0,1,2.82-3.281c.891-.638,1.787-1.2,2.683-1.772a14.869,14.869,0,0,0-.608,2.648c-.441,3.169-.916,5.316-2.7,8a1.524,1.524,0,0,0,1.3,2.273c7.478.213,5.792-12.162,4.957-17.483" transform="translate(212.874 172.213)" fill="#e6cbab"/>
        <path id="Trazado_114993" data-name="Trazado 114993" d="M55.745,48.014c-3.554,2.076-7.919,2.268-10.754,5.59-1.98,2.324-3.4,6.288-.552,8.445a1.611,1.611,0,0,0,2.354-.957c.324-1.159.051-2.334.5-3.463a7.864,7.864,0,0,1,2.82-3.281c.891-.638,1.787-1.2,2.683-1.772a14.87,14.87,0,0,0-.608,2.648c-.44,3.169-.916,5.316-2.7,8a1.523,1.523,0,0,0,1.3,2.273c7.478.208,5.792-12.162,4.957-17.483" transform="translate(174.039 195.084)" fill="#e6cbab"/>
        <path id="Trazado_114994" data-name="Trazado 114994" d="M95.834,22.183c-3.554,2.076-7.919,2.268-10.749,5.59-1.985,2.324-3.4,6.293-.557,8.445a1.611,1.611,0,0,0,2.354-.957c.324-1.159.051-2.334.5-3.463a7.864,7.864,0,0,1,2.82-3.281c.891-.638,1.787-1.2,2.683-1.772a14.864,14.864,0,0,0-.608,2.648c-.44,3.169-.916,5.316-2.7,8a1.524,1.524,0,0,0,1.3,2.273c7.478.208,5.792-12.162,4.957-17.483" transform="translate(336.924 90.13)" fill="#e6cbab"/>
        <path id="Trazado_114995" data-name="Trazado 114995" d="M41.322,34.978c3.18,2.618,7.453,3.5,9.726,7.23,1.585,2.608,2.354,6.749-.795,8.425a1.613,1.613,0,0,1-2.172-1.321c-.132-1.195.319-2.309.056-3.5a7.891,7.891,0,0,0-2.263-3.686c-.78-.775-1.575-1.468-2.364-2.177a15.749,15.749,0,0,1,.177,2.709,16.893,16.893,0,0,0,1.4,8.334,1.526,1.526,0,0,1-1.651,2.035c-7.412-.982-3.782-12.931-2.111-18.05" transform="translate(158.251 142.117)" fill="#e6cbab"/>
        <path id="Trazado_114996" data-name="Trazado 114996" d="M71.172,46.983c.02-1.63-.177-3.944,1.57-4.7a.4.4,0,0,1,.456.061c1.357,1.337,1.3,4.126,1.392,5.939.116,2.213-.091,4.425-1.5,6.192a1.285,1.285,0,0,1-2.142-.562c-.354-2.258.2-4.638.223-6.926" transform="translate(287.792 171.605)" fill="#e6cbab"/>
        <path id="Trazado_114997" data-name="Trazado 114997" d="M66.888,51.516c.02-1.63-.177-3.944,1.57-4.7a.4.4,0,0,1,.456.061c1.357,1.337,1.3,4.126,1.392,5.939.116,2.213-.091,4.425-1.5,6.192a1.285,1.285,0,0,1-2.142-.562c-.354-2.258.2-4.638.223-6.926" transform="translate(270.386 190.023)" fill="#e6cbab"/>
        <path id="Trazado_114998" data-name="Trazado 114998" d="M52.36,41.555c.02-1.63-.177-3.944,1.57-4.7a.4.4,0,0,1,.456.061c1.357,1.337,1.3,4.126,1.392,5.939.116,2.213-.091,4.425-1.5,6.2a1.288,1.288,0,0,1-2.142-.567c-.354-2.258.2-4.638.223-6.926" transform="translate(211.357 149.55)" fill="#e6cbab"/>
        <path id="Trazado_114999" data-name="Trazado 114999" d="M83.621,33.658c3.489,2.967,8.526,8.2,4.83,12.951-.592.759-1.732.228-1.985-.527-.648-1.909-.81-3.919-1.585-5.8s-1.645-3.8-2.592-5.6a.852.852,0,0,1,1.332-1.028" transform="translate(333.887 135.847)" fill="#e6cbab"/>
        <path id="Trazado_115000" data-name="Trazado 115000" d="M74.164,44.335c3.488,2.967,8.526,8.2,4.83,12.951-.592.759-1.732.228-1.985-.527-.648-1.909-.81-3.919-1.585-5.8s-1.645-3.8-2.592-5.6a.852.852,0,0,1,1.332-1.028" transform="translate(295.463 179.229)" fill="#e6cbab"/>
        <path id="Trazado_115001" data-name="Trazado 115001" d="M59.589,43c3.488,2.967,8.526,8.2,4.83,12.951-.592.759-1.732.223-1.985-.527-.648-1.909-.81-3.919-1.585-5.8s-1.646-3.8-2.592-5.6A.852.852,0,0,1,59.589,43" transform="translate(236.243 173.797)" fill="#e6cbab"/>
        <path id="Trazado_115002" data-name="Trazado 115002" d="M50.051,41.121c3.488,2.967,8.526,8.2,4.83,12.951-.592.759-1.732.223-1.985-.527-.648-1.909-.81-3.919-1.585-5.8s-1.646-3.8-2.592-5.6a.852.852,0,0,1,1.332-1.028" transform="translate(197.489 166.17)" fill="#e6cbab"/>
        <path id="Trazado_115003" data-name="Trazado 115003" d="M64.978,30.1c3.489,2.967,8.526,8.2,4.83,12.951-.592.759-1.732.223-1.985-.527-.648-1.909-.81-3.919-1.585-5.8s-1.646-3.8-2.592-5.6A.852.852,0,0,1,64.978,30.1" transform="translate(258.139 121.371)" fill="#e6cbab"/>
        <path id="Trazado_115004" data-name="Trazado 115004" d="M79.513,40.745c1.23,3.088,1.635,8.121-.967,10.658a1.338,1.338,0,0,1-2.258-.932c-.03-1.443.542-2.749.511-4.207a13.249,13.249,0,0,0-.962-4.506c-.886-2.3,2.78-3.261,3.676-1.013" transform="translate(307.576 160.36)" fill="#e6cbab"/>
        <path id="Trazado_115005" data-name="Trazado 115005" d="M90.119,30.573c1.23,3.088,1.635,8.121-.967,10.658a1.338,1.338,0,0,1-2.258-.932c-.03-1.443.542-2.749.511-4.207a13.371,13.371,0,0,0-.962-4.506c-.886-2.3,2.78-3.261,3.676-1.013" transform="translate(350.67 119.03)" fill="#e6cbab"/>
        <path id="Trazado_115006" data-name="Trazado 115006" d="M65.636,41.96c1.23,3.088,1.635,8.121-.967,10.658a1.338,1.338,0,0,1-2.258-.932c-.03-1.443.542-2.749.511-4.207a13.371,13.371,0,0,0-.962-4.506c-.886-2.3,2.78-3.261,3.676-1.013" transform="translate(251.193 165.296)" fill="#e6cbab"/>
        <path id="Trazado_115007" data-name="Trazado 115007" d="M55.262,50.649c1.23,3.088,1.635,8.121-.967,10.658a1.334,1.334,0,0,1-2.253-.932c-.035-1.443.537-2.749.506-4.207a13.25,13.25,0,0,0-.962-4.506c-.886-2.3,2.78-3.261,3.676-1.013" transform="translate(209.042 200.601)" fill="#e6cbab"/>
        <path id="Trazado_115008" data-name="Trazado 115008" d="M65.39,34.835c.466-.511,1.18.041,1.073.623a17.352,17.352,0,0,0,.992,8.374c.694,2.192,2.38,4.233,2.253,6.567a.787.787,0,0,1-1.165.668c-2.78-1.215-3.843-5.807-4.314-8.526-.456-2.638-.754-5.595,1.159-7.706" transform="translate(259.595 140.716)" fill="#e6cbab"/>
        <path id="Trazado_115009" data-name="Trazado 115009" d="M69.306,29.082c.466-.511,1.18.041,1.073.623a17.352,17.352,0,0,0,.992,8.374c.694,2.192,2.38,4.233,2.253,6.567a.787.787,0,0,1-1.165.668c-2.78-1.215-3.843-5.807-4.314-8.526-.456-2.638-.754-5.595,1.159-7.706" transform="translate(275.506 117.341)" fill="#e6cbab"/>
        <path id="Trazado_115010" data-name="Trazado 115010" d="M65.093,37.048c1.747,2.557,4.643,3.468,6.511,5.792a1.227,1.227,0,0,1-.856,2.061c-3.716.43-6.628-3.458-8.228-6.349a1.491,1.491,0,0,1,2.572-1.5" transform="translate(253.168 147.732)" fill="#e6cbab"/>
        <path id="Trazado_115011" data-name="Trazado 115011" d="M82.422,40.077c1.747,2.557,4.643,3.468,6.511,5.792a1.227,1.227,0,0,1-.856,2.061c-3.716.425-6.633-3.458-8.228-6.349a1.491,1.491,0,0,1,2.572-1.5" transform="translate(323.578 160.04)" fill="#e6cbab"/>
        <path id="Trazado_115012" data-name="Trazado 115012" d="M69.462,41.639a20.844,20.844,0,0,0,1.159-4.795c.284-2.314,3.964-2.324,3.661,0-.425,3.281-1.3,8.253-4.05,10.455a1.523,1.523,0,0,1-2.521-1.468c.3-1.5,1.215-2.759,1.752-4.192" transform="translate(274.951 142.635)" fill="#e6cbab"/>
        <path id="Trazado_115013" data-name="Trazado 115013" d="M78.341,37.045A20.846,20.846,0,0,0,79.5,32.251c.284-2.314,3.959-2.324,3.661,0-.425,3.281-1.3,8.253-4.05,10.455a1.523,1.523,0,0,1-2.521-1.468c.3-1.5,1.215-2.759,1.752-4.192" transform="translate(311.027 123.969)" fill="#e6cbab"/>
        <path id="Trazado_115014" data-name="Trazado 115014" d="M81.725,31.35a20.848,20.848,0,0,0,1.159-4.795c.284-2.314,3.964-2.324,3.661,0-.42,3.281-1.3,8.253-4.05,10.455a1.523,1.523,0,0,1-2.521-1.468c.3-1.5,1.215-2.759,1.752-4.192" transform="translate(324.776 100.83)" fill="#e6cbab"/>
        <path id="Trazado_115015" data-name="Trazado 115015" d="M78.341,27.474A20.783,20.783,0,0,0,79.5,22.68c.284-2.314,3.959-2.324,3.661,0-.425,3.281-1.3,8.253-4.05,10.455a1.523,1.523,0,0,1-2.521-1.468c.3-1.5,1.215-2.759,1.752-4.192" transform="translate(311.027 85.081)" fill="#e6cbab"/>
        <path id="Trazado_115016" data-name="Trazado 115016" d="M86.763,40.809a20.844,20.844,0,0,0,1.159-4.795c.284-2.314,3.959-2.324,3.661,0-.425,3.281-1.3,8.253-4.05,10.455A1.523,1.523,0,0,1,85.011,45c.3-1.5,1.215-2.759,1.752-4.192" transform="translate(345.246 139.263)" fill="#e6cbab"/>
        <path id="Trazado_115017" data-name="Trazado 115017" d="M25.154,33.81S32.232,52.995,62.91,59.232c19.776,8.1,29.781,18.5,44.7,21.275s22.455-9.483,20.288-12.546c-1.073-1.519-2.425-10.876-11.584-16.84-9.3-6.066-26.5-8.779-37.938-16.242-22.7-14.8-33.573-21.23-53.218-1.068" transform="translate(102.203 85.667)" fill="#ffc5b3"/>
        <path id="Trazado_115018" data-name="Trazado 115018" d="M24.6,89.239c-.846-2.532-.172-19.169,3.473-36.135,2.7-12.567,4.309-25.493,22.359-32.075C92.863,5.572,137.206-1.871,172.455,1.076,207.537,4.012,204.7,78.045,186.176,88.91s-39.447,13.832-39.447,13.832-18.668-6.521-33.994,5.068-38.657,24.632-54.621,19.133c-15-5.169-27.65-20.151-33.518-37.7" transform="translate(98.613 1.793)" fill="#ffb74d"/>
        <path id="Trazado_115019" data-name="Trazado 115019" d="M19.14,31.4C20,29.392,37.215,18.577,43.468,14.926S65.9,16.42,77.533,20.465s18.941,15.782,4.931,23.2S49.174,54.2,45.392,53.968,19.14,31.4,19.14,31.4" transform="translate(77.768 55.585)" fill="#ffa08d"/>
        <path id="Trazado_115020" data-name="Trazado 115020" d="M19.69,25.169C11.2,35.154,7.326,59.674,32.318,70.053c26.212,10.881,60.894-11.5,55.917-24.693-2.785-7.387-13.245-23.169-27.083-28.2-15.574-5.666-34.865.248-41.462,8" transform="translate(53.74 60.598)" fill="#ffc5b3"/>
        <path id="Trazado_115021" data-name="Trazado 115021" d="M67.018,63.777c7.428.405,11.9-.5,27.164,20.45s24.855,31.705,27.923,33.011,12.03-3.3,12.835-8.253c2.111-12.982,1.534-29.062-6.531-38.738s-18.025-6.42-17.068-20.926S92.116,29.641,76.967,26.259s-9.949,37.518-9.949,37.518" transform="translate(268.807 105.881)" fill="#fff8eb"/>
        <path id="Trazado_115022" data-name="Trazado 115022" d="M188.933,119.983c-23.118-5.423-70.23-12.4-70.23-12.4s42.6-35.832,37.219-72.078C151.4,5.041,138.175,2.312,138.175,2.312S55.353,89.726,44.321,112.657s9.868,39.664,24.764,42,78.144,6.764,105.019,8.774c8.729-13.478,15.741-26.389,14.83-43.446" transform="translate(167.514 9.392)" fill="#041e46"/>
        <path id="Trazado_115023" data-name="Trazado 115023" d="M67.317,59.9c7.428.405,11.9-.5,27.158,20.45s24.86,31.705,27.928,33.011,12.03-3.3,12.835-8.253c2.111-12.982,1.534-29.062-6.531-38.738s-18.025-6.42-17.068-20.931S92.415,25.765,77.266,22.383,67.317,59.9,67.317,59.9" transform="translate(270.017 90.132)" fill="#fff"/>
        <path id="Trazado_115024" data-name="Trazado 115024" d="M91.561,34.125s-41.7,41.821-48.646,72.367c-4.283,18.84.294,25.791,12.774,30.986,13.918,5.792,103.338,16.663,121.484,17,0,0,6.04-6.942,9.514-19.625,1.975-7.21,4.116-13.726,0-22.713-19.949-8.4-82.853-14.389-82.853-14.389s23.807-17.473,38.14-35.087c8.6-10.567,13.194-22.754,8.881-35.806C143.1,3.417,118.086-4.618,103.818,2.511,96.907,5.959,91.561,34.125,91.561,34.125" transform="translate(167.999 -0.001)" fill="#08306e"/>
        <path id="Trazado_115025" data-name="Trazado 115025" d="M44.826,49.473s6.952,10.344,10.03,19.944C56.841,75.594,56.993,86.4,56.993,86.4s-5.985-3.013-17.463-3.752C23.774,81.629,13.6,70.1,11.035,50.6A23.656,23.656,0,0,1,21.693,27.059S26.447,17,35.059,14.467c8.678-2.552,38.226,2.6,38.226,2.6A48.512,48.512,0,0,0,63.251,28.619c-5.8,9.635-18.425,20.855-18.425,20.855" transform="translate(43.854 55.898)" fill="#352019"/>
        <path id="Trazado_115026" data-name="Trazado 115026" d="M27.839,29.524s-13.21-1.058-8.43-8.481,17.6-4.137,17.6-4.137-2.749,9.676-9.169,12.617" transform="translate(74.628 65.747)" fill="#ffc5b3"/>
        <path id="Trazado_115027" data-name="Trazado 115027" d="M42.28,100.453s-4.871-15.979-.456-32.576S44.908,42.8,48.077,29.843s26.115-24.819,30.3-7.817S85.974,68.9,76.83,83.663s-9.665,27.3-17.69,27.488-16.86-10.7-16.86-10.7" transform="translate(162.416 55.205)" fill="#ffc5b3"/>
        <path id="Trazado_115028" data-name="Trazado 115028" d="M25.822,29.23C28.014,12.886,43.669-1.929,62.469,3.808s56.216,38.976,71.359,51.178,18.987,53.071,12.116,78.2-10.936,29.538-17.772,29c-5.286-.42-15.9-7.61-14.906-13.118,1.013-5.61,9.62-16.972,8.025-24.333-4.521-20.86-6.739-45.087-5.995-53.664C99.8,64.373,94.736,60.808,65.208,50.591,39.052,41.538,25.822,29.23,25.822,29.23" transform="translate(104.917 10.357)" fill="#ffc5b3"/>
        <path id="Trazado_115029" data-name="Trazado 115029" d="M48.923,14.324c4.061,2.294,8.886,2.9,6.577,13.534s-6.774,15.8-10.784,21.306c1.342,11.964,3.018,30.176,3.018,30.176s4.086-16.146,1.833-29.1C52.508,44.439,58.138,37.077,60.72,26s-8.952-14.688-11.8-11.681" transform="translate(181.686 54.072)" fill="#ffa08d"/>
        <path id="Trazado_115030" data-name="Trazado 115030" d="M51.623,65.873c-.015-.005-4.957-4.643-4.466-9.64s6.936-11.012,9.357-13.954c4.521-5.483,5.1-16.247,5.1-16.247l-2.142-1.524S54.286,38.775,48.7,44.521s-8.85,12.759-6.081,16.41a65.7,65.7,0,0,0,5,5.893Z" transform="translate(169.068 99.572)" fill="#ffa08d"/>
        <path id="Trazado_115031" data-name="Trazado 115031" d="M62.022,31.073c3.175,2.618,7.448,3.5,9.721,7.23,1.585,2.607,2.354,6.749-.79,8.425a1.611,1.611,0,0,1-2.172-1.321c-.137-1.195.319-2.309.051-3.5a7.85,7.85,0,0,0-2.263-3.686c-.775-.775-1.575-1.468-2.359-2.177a16.834,16.834,0,0,1,.177,2.709c-.071,3.2.056,5.4,1.392,8.334a1.52,1.52,0,0,1-1.646,2.03c-7.412-.977-3.787-12.921-2.111-18.045" transform="translate(242.351 126.251)" fill="#e6cbab"/>
        <path id="Trazado_115032" data-name="Trazado 115032" d="M70.709,47.278a18.782,18.782,0,0,1,2.41-4.045,29.27,29.27,0,0,1,2.035-2.375,19.673,19.673,0,0,0,2.137-2.015l.643-2.086c3.873,1.514,5.169,4.45,6.1,5.529A9.567,9.567,0,0,1,86.111,46.5c.491,2.385.091,5.3-2.359,6.309-.542.218-.9-.395-.835-.835.466-3.347,1.195-5.752-1.564-8.44-.7-.684-1.423-1.23-2.076-1.813-.7,1.119-1.646,2.152-2.334,3.149a18.218,18.218,0,0,0-2.471,4.567c-.613,1.833-.258,3.691-.851,5.5a1.657,1.657,0,0,1-2.744.724c-2.045-2.42-1.347-5.64-.167-8.384" transform="translate(282.69 149.345)" fill="#e6cbab"/>
        <path id="Trazado_115033" data-name="Trazado 115033" d="M32.645,38.407a18.782,18.782,0,0,1,2.41-4.045,30.248,30.248,0,0,1,2.03-2.375,19.7,19.7,0,0,0,2.142-2.015l.643-2.086c3.873,1.514,5.169,4.45,6.1,5.529a9.575,9.575,0,0,1,2.081,4.207c.491,2.39.091,5.306-2.359,6.314-.542.218-.9-.395-.835-.835.466-3.347,1.195-5.752-1.57-8.44-.7-.684-1.418-1.23-2.071-1.813C40.513,33.962,39.561,35,38.873,36a18.365,18.365,0,0,0-2.466,4.567c-.613,1.833-.258,3.691-.851,5.5a1.657,1.657,0,0,1-2.744.724c-2.045-2.42-1.347-5.64-.167-8.385" transform="translate(128.032 113.302)" fill="#e6cbab"/>
        <path id="Trazado_115034" data-name="Trazado 115034" d="M75.418,40.081c3.488,2.967,8.526,8.2,4.83,12.951-.592.765-1.732.228-1.985-.527-.648-1.909-.81-3.919-1.585-5.8s-1.646-3.8-2.592-5.6a.852.852,0,0,1,1.332-1.028" transform="translate(300.558 161.945)" fill="#e6cbab"/>
        <path id="Trazado_115035" data-name="Trazado 115035" d="M49.714,30c-3.554,2.076-7.919,2.268-10.749,5.59-1.985,2.324-3.4,6.288-.557,8.445a1.611,1.611,0,0,0,2.354-.957c.324-1.159.051-2.334.5-3.463a7.865,7.865,0,0,1,2.82-3.281c.891-.638,1.787-1.2,2.683-1.772a14.869,14.869,0,0,0-.608,2.648c-.44,3.17-.916,5.316-2.7,8a1.524,1.524,0,0,0,1.3,2.273c7.478.208,5.792-12.162,4.957-17.483" transform="translate(149.534 121.891)" fill="#e6cbab"/>
        <path id="Trazado_115036" data-name="Trazado 115036" d="M64.36,31.27c-3.554,2.076-7.919,2.268-10.749,5.59-1.985,2.324-3.4,6.293-.557,8.445a1.611,1.611,0,0,0,2.354-.957c.324-1.159.051-2.334.5-3.463A7.864,7.864,0,0,1,58.73,37.6c.891-.638,1.787-1.2,2.683-1.772a14.866,14.866,0,0,0-.608,2.648c-.441,3.169-.916,5.316-2.7,8a1.524,1.524,0,0,0,1.3,2.273c7.478.213,5.792-12.162,4.957-17.483" transform="translate(209.042 127.051)" fill="#e6cbab"/>
      </g>
    </g>
  </g>
</svg>
