<svg xmlns="http://www.w3.org/2000/svg" xmlns:xlink="http://www.w3.org/1999/xlink" width="115.992" height="140.994" viewBox="0 0 115.992 140.994">
  <defs>
    <clipPath id="clip-path">
      <rect id="Rectángulo_33769" data-name="Rectángulo 33769" width="115.992" height="140.994" fill="none"/>
    </clipPath>
  </defs>
  <g id="Grupo_80122" data-name="Grupo 80122" transform="translate(-444 -936)">
    <g id="Grupo_80121" data-name="Grupo 80121" transform="translate(444 936)" clip-path="url(#clip-path)">
      <path id="Trazado_113526" data-name="Trazado 113526" d="M56.434,10.4a104.129,104.129,0,0,1,15.687-.419c8.031.379,15.716.423,22.676,5.146a16.642,16.642,0,0,1,6.341,19.519c-1.453,3.752-4.162,6.675-4.877,10.736-.755,4.285.031,8.662-.044,12.976-.025,1.595,1.548,2.655,2.721,3.774,2.271,2.168,4.4,4.474,6.634,6.68.959.948,2.042,1.393,1.839,2.887-.453,3.343-3.914,3.494-5.894,5.421a4.222,4.222,0,0,0-.818,4.964c.517,1.218,1.12,2.614.532,3.8-.555,1.122-2.019,1.646-2.39,2.842-.335,1.085.384,2.286.058,3.374-.555,1.847-3.123,1.8-4.056,3.172a13.148,13.148,0,0,0-1.761,5.983c-.381,5.568-3.324,8.058-8.628,7.381-2.8-.357-5.512-1.519-8.243-2.384-5.267-1.671-10.609-2.22-10.4,4.726.175,5.815-.063,11.63.035,17.444.1,5.649,3.324,13.537-5.294,13.487-4.887-.028-27.9-.893-29.114-4.6a4.091,4.091,0,0,1,.147-2.276q2.61-10.021,5.218-20.043c.542-2.082,2.533-5.81.459-7.538-1.788-1.49-4.035.155-5.924.646a28.42,28.42,0,0,1-7.05.693C8.437,108.847,3.706,102.345.3,87.017c-1.342-6.045,1.92-11.147,6.738-14.759,1.842-1.382,4.071-2.139,6.036-3.318,2.315-1.391,2.773-2.795,2.9-5.5.22-4.724-1.836-9.317-2.266-13.886a31.04,31.04,0,0,1,1.6-12.874,34.962,34.962,0,0,1,17.3-19.8A70.178,70.178,0,0,1,56.434,10.4" transform="translate(0 -0.922)" fill="#08306e"/>
      <path id="Trazado_113527" data-name="Trazado 113527" d="M75.49,139.45c-1.151-7.981-1.735-16.23-1.931-19.539-.6-10.221,1.965-11.922,11.6-8.867,3,.949,4.228,1.813,7.3,2.206,5.819.742,9.049-1.99,9.467-8.1.179-2.6,1.451-8.074,3.945-9.6.8-.49,1.7-.8,2.507-1.288a1.681,1.681,0,0,0,.634-.57,1.655,1.655,0,0,0,.17-.758c.056-1.436-.4-3.005.35-4.233.692-1.137,2.251-1.638,2.681-2.9a3.136,3.136,0,0,0,.036-1.561c-.277-1.536-1.371-2.738-1.393-4.284a4.611,4.611,0,0,1,.964-3.038c1.073-1.324,2.625-1.618,3.925-2.538,1.129-.8,2.589-2.215,2.867-3.624.282-1.433-.958-2.363-1.83-3.225-2.453-2.425-4.8-4.96-7.292-7.342-1.286-1.228-3.014-2.391-2.985-4.14.092-5.4-2.139-13.834,1.771-18.3a19.075,19.075,0,0,0,5-14.5A19.364,19.364,0,0,0,104.95,8.627C86.835-3.664,55.172-2.045,41.919,16.831c-4.742,6.755-6.519,15.294-6.054,23.535.389,6.893,2.559,14.138,7.928,18.48,6.567,5.312,16.444,4.836,23.892.853A23.669,23.669,0,0,0,78.509,48.481c3.122-7.343,2.837-17.22-4.972-21.665-8.962-5.1-19.4,3.414-20.735,12.261-2.118,14.079,7.846,27.7,6.241,41.805-.533,4.686-2.728,9.01-5.112,13.078" transform="translate(-3.344 -0.07)" fill="none" stroke="#fff" stroke-linecap="round" stroke-linejoin="round" stroke-width="1"/>
      <path id="Trazado_113528" data-name="Trazado 113528" d="M71.137,79.738a9.429,9.429,0,0,1,7.618,1.111c.63.405-2.119,3.128-5.69,4.146a10.471,10.471,0,0,1-7.374-.857A8.639,8.639,0,0,1,71.137,79.738Z" transform="translate(-6.137 -7.416)" fill="none" stroke="#fff" stroke-linecap="round" stroke-linejoin="round" stroke-width="1"/>
      <path id="Trazado_113529" data-name="Trazado 113529" d="M71.033,93.03a9.432,9.432,0,0,1,6.541,4.06c.416.623-3.191,2.022-6.871,1.53a10.471,10.471,0,0,1-6.419-3.729A8.639,8.639,0,0,1,71.033,93.03Z" transform="translate(-6.005 -8.684)" fill="none" stroke="#fff" stroke-linecap="round" stroke-linejoin="round" stroke-width="1"/>
      <path id="Trazado_113530" data-name="Trazado 113530" d="M52.307,79.1a9.433,9.433,0,0,0-7.518-1.656c-.733.156.875,3.674,3.854,5.89a10.473,10.473,0,0,0,7.2,1.81A8.643,8.643,0,0,0,52.307,79.1Z" transform="translate(-4.168 -7.217)" fill="none" stroke="#fff" stroke-linecap="round" stroke-linejoin="round" stroke-width="1"/>
      <path id="Trazado_113531" data-name="Trazado 113531" d="M47.59,91.661a9.429,9.429,0,0,0-7.555,1.482c-.609.435,2.269,3.02,5.885,3.862a10.467,10.467,0,0,0,7.324-1.215A8.643,8.643,0,0,0,47.59,91.661Z" transform="translate(-3.733 -8.54)" fill="none" stroke="#fff" stroke-linecap="round" stroke-linejoin="round" stroke-width="1"/>
    </g>
  </g>
</svg>
