<svg xmlns="http://www.w3.org/2000/svg" xmlns:xlink="http://www.w3.org/1999/xlink" width="400" height="313.957" viewBox="0 0 400 313.957">
  <defs>
    <clipPath id="clip-path">
      <rect id="Rectángulo_46802" data-name="Rectángulo 46802" width="337.744" height="313.957" fill="none"/>
    </clipPath>
    <clipPath id="clip-path-3">
      <path id="Trazado_115073" data-name="Trazado 115073" d="M28.795,49.756c-5.06,21.038,51.405,24.6,42.349,43.063-5.008,10.213-17.711,21.278-25.526,34.148-6.312,10.4-9.434,21.977-2.73,35.238,3.483,6.889-45.13,115.993,73.655,131.835,54.9,7.321,125.5-21.732,177.108-64.479,101.426-84.014-42.717-92.5-51.544-134.658s9.276-77.641-80.385-88.434A251.1,251.1,0,0,0,131.769,4.6C63.121,4.6,32.024,36.336,28.795,49.756" transform="translate(-28.473 -4.601)" fill="none"/>
    </clipPath>
    <clipPath id="clip-path-4">
      <rect id="Rectángulo_46794" data-name="Rectángulo 46794" width="86.711" height="93.143" fill="none"/>
    </clipPath>
    <clipPath id="clip-path-5">
      <rect id="Rectángulo_46795" data-name="Rectángulo 46795" width="68.751" height="40.829" fill="none"/>
    </clipPath>
    <clipPath id="clip-path-6">
      <rect id="Rectángulo_46796" data-name="Rectángulo 46796" width="111.734" height="83.586" fill="none"/>
    </clipPath>
    <clipPath id="clip-path-7">
      <rect id="Rectángulo_46797" data-name="Rectángulo 46797" width="59.85" height="122.692" fill="none"/>
    </clipPath>
    <clipPath id="clip-path-8">
      <rect id="Rectángulo_46798" data-name="Rectángulo 46798" width="7.752" height="51.291" fill="none"/>
    </clipPath>
    <clipPath id="clip-path-9">
      <rect id="Rectángulo_46799" data-name="Rectángulo 46799" width="7.377" height="52.982" fill="none"/>
    </clipPath>
    <clipPath id="clip-path-10">
      <rect id="Rectángulo_46800" data-name="Rectángulo 46800" width="6.622" height="48.042" fill="none"/>
    </clipPath>
  </defs>
  <g id="Grupo_81234" data-name="Grupo 81234" transform="translate(-361.502 -7434.609)">
    <g id="Image_Place_Holder" data-name="Image Place Holder" transform="translate(361.502 7471.838)" opacity="0.1">
      <rect id="Image_Place_Holder-2" data-name="Image Place Holder" width="400" height="270.769" rx="10" fill="#a5d20e"/>
    </g>
    <g id="Grupo_81082" data-name="Grupo 81082" transform="translate(392.63 7434.609)">
      <g id="Grupo_81081" data-name="Grupo 81081" clip-path="url(#clip-path)">
        <g id="Grupo_81055" data-name="Grupo 81055">
          <g id="Grupo_81054" data-name="Grupo 81054" clip-path="url(#clip-path)">
            <path id="Trazado_115041" data-name="Trazado 115041" d="M242.107,94.9c-8.827-42.161,9.276-77.642-80.385-88.434S32.46,34.521,28.795,49.757C23.735,70.794,80.2,74.353,71.144,92.82c-5.009,10.213-17.712,21.278-25.526,34.148-6.312,10.4-9.435,21.977-2.73,35.239,3.483,6.888-45.13,115.992,73.655,131.834,54.9,7.322,125.5-21.731,177.108-64.478C395.076,145.548,250.934,137.065,242.107,94.9Z" transform="translate(-1.6 -0.259)" fill="#b0c0d2"/>
          </g>
        </g>
        <g id="Grupo_81078" data-name="Grupo 81078" transform="translate(26.874 4.343)">
          <g id="Grupo_81077" data-name="Grupo 81077" clip-path="url(#clip-path-3)">
            <path id="Trazado_115042" data-name="Trazado 115042" d="M119.649,53.728,151.2,113.683c4.873,9.258,31.1,15.134,38.967,22.51,3.971,3.725,8.629,5.88,13.361,8.441a2.535,2.535,0,0,1,.812,3.765c-5.111,6.72-16.27,2.282-22.016-.8l-1.876-1.007c-10.822-5.807,1.817,14.742,2.737,16.457L195.319,185.1l6.982,18.031c3.331,6.056-4.413,11.771-8.469,5.093l-7.456-15.755L174.35,174.478a.647.647,0,0,0-1.133.613l11.761,27.693,5.674,15.4c2.032,6.35-7.242,9.317-10.034,3.821l-6.256-14.733-13-25.838c-.277-.551-1.349-.355-1.071.345l9.252,23.312,3.689,12.64c1.763,4.858-.455,7.119-2.291,7.8-3.1,1.14-5.569-.913-7.2-3.931-1.571-2.9-2.341-7.317-4.832-12.546-5.125-10.749-10.89-23.429-11.937-25.738a.563.563,0,0,0-1.094.269l5.243,19.1,2.352,11.9a4.511,4.511,0,0,1-4.847,4.6c-2.094-.156-2.943-1.4-4.124-3.811a60.275,60.275,0,0,0-2.742-10.218c-3.225-8.731-7.507-20.538-8.651-24.017-8.257-21.908-13.364-23.968-16.036-48.656L85.315,71.566a6.1,6.1,0,0,1,1.3-8.031C90.716,60.2,114.666,44.13,119.649,53.728Z" transform="translate(-31.612 -7.191)" fill="#f9a872"/>
            <path id="Trazado_115043" data-name="Trazado 115043" d="M137.5,78.435C126.2,91.127,111.884,97.89,95.169,99.932L51.7,25.958,102.817,0Z" transform="translate(-29.778 -4.343)" fill="#fa85cf"/>
            <path id="Trazado_115044" data-name="Trazado 115044" d="M89.755,90.786l44.968-20.559a4.087,4.087,0,0,1,5.418,2.018l7.009,15.33a4.088,4.088,0,0,1-2.018,5.418l-44.968,20.559a4.087,4.087,0,0,1-5.418-2.018L87.737,96.2a4.087,4.087,0,0,1,2.018-5.418" transform="translate(-31.782 -8.267)" fill="#fa96d5"/>
            <path id="Trazado_115045" data-name="Trazado 115045" d="M282.017,90.321l-55.669,54.453c-7.48,7.316-4.339,34.317-8.8,44.132-2.252,4.958-2.8,10.062-3.7,15.364a2.537,2.537,0,0,1-3.305,1.979c-8.005-2.681-7.388-14.675-6.313-21.107l.351-2.1c2.022-12.115-13.377,6.457-14.706,7.879L172.887,209.5l-14.832,12.407c-4.663,5.1-12.565-.4-7.544-6.385L163.036,203.4l13.177-17.171a.647.647,0,0,0-.944-.876l-22.446,20.035-12.763,10.324c-5.36,3.963-11.149-3.866-6.841-8.275l11.941-10.658,20.292-20.61c.432-.44-.1-1.392-.671-.9l-19.1,16.252-10.783,7.554c-4.035,3.231-6.888,1.857-8.118.335-2.075-2.565-.925-5.567,1.407-8.083,2.244-2.42,6.178-4.567,10.329-8.608,8.533-8.307,18.689-17.839,20.539-19.573a.564.564,0,0,0-.607-.95l-16.4,11.1-10.511,6.049a4.511,4.511,0,0,1-5.917-3.11c-.526-2.033.382-3.237,2.284-5.13a60.188,60.188,0,0,0,8.795-5.879c7.233-5.859,17.038-13.707,19.965-15.908,18.093-14.859,18.4-20.355,40.924-30.819l56.515-54.959a6.1,6.1,0,0,1,8.022-1.353C266.589,65,289.505,82.519,282.017,90.321Z" transform="translate(-33.922 -7.783)" fill="#663636"/>
            <path id="Trazado_115046" data-name="Trazado 115046" d="M262.107,119.642c-15.651-6.628-26.655-18.012-33.959-33.184l36.687-44.121,41.006,40.071Z" transform="translate(-39.69 -6.721)" fill="#2a88aa"/>
            <path id="Trazado_115047" data-name="Trazado 115047" d="M208.249,112.518l12.425-11.756c.086-.081.312.019.507.224L248.916,130.3c.194.2.281.437.2.518l-12.424,11.756c-.086.081-.313-.019-.507-.224l-27.735-29.313c-.193-.2-.281-.437-.2-.518" transform="translate(-38.571 -10.001)" fill="#1a1a1a"/>
            <path id="Trazado_115048" data-name="Trazado 115048" d="M212.962,121.34l16.249-15.374a.368.368,0,0,1,.52.014l15.205,16.07a.368.368,0,0,1-.014.52l-16.249,15.374a.368.368,0,0,1-.52-.014l-15.2-16.07a.368.368,0,0,1,.014-.52" transform="translate(-38.831 -10.29)" fill="#2a88aa"/>
            <path id="Trazado_115049" data-name="Trazado 115049" d="M326.345,262.03,218.682,216.869c-9.648-4.047-33.418,8.931-44.19,8.507-5.44-.215-10.372,1.207-15.625,2.371a2.535,2.535,0,0,1-3.079-2.314c-.538-8.426,10.8-12.379,17.163-13.811l2.077-.467c11.982-2.7-11.027-9.952-12.846-10.645l-23.614-8.724-17.086-9.054c-6.482-2.394-4.373-11.786,3.066-9.395L140.5,180.36l20.873,5.723a.647.647,0,0,0,.456-1.2L134.8,171.652l-14.376-7.924c-5.693-3.469-.628-11.785,5.082-9.458l14.375,7.037,26.745,11.013c.57.235,1.252-.614.583-.962L144.956,159.8l-11.066-7.135c-4.513-2.517-4.318-5.678-3.373-7.391,1.593-2.89,4.806-2.957,8.017-1.747,3.088,1.165,6.561,4,11.869,6.317,10.912,4.768,23.573,10.576,25.877,11.634a.563.563,0,0,0,.65-.919l-16.472-11-9.568-7.451a4.512,4.512,0,0,1,.647-6.653c1.685-1.254,3.142-.867,5.613.179a60.238,60.238,0,0,0,8.762,5.926c8.156,4.487,19.124,10.606,22.266,12.485,20.588,11.149,25.8,9.363,43.982,26.269l107.819,39.011a6.1,6.1,0,0,1,4.279,6.917C343.337,231.446,336.4,266.021,326.345,262.03Z" transform="translate(-33.481 -11.908)" fill="#ffc38d"/>
            <path id="Trazado_115050" data-name="Trazado 115050" d="M120.593,164.512a6.014,6.014,0,0,0-.721.355,6.381,6.381,0,0,0,.683.488l14.376,7.924,8.142,3.985c-3.345-5.385-9.8-13.638-17.971-13.638a12,12,0,0,0-4.51.886" transform="translate(-33.608 -13.535)" fill="#f9a872"/>
            <g id="Grupo_81058" data-name="Grupo 81058" transform="translate(85.554 122.757)" style="mix-blend-mode: multiply;isolation: isolate">
              <g id="Grupo_81057" data-name="Grupo 81057">
                <g id="Grupo_81056" data-name="Grupo 81056" clip-path="url(#clip-path-4)">
                  <path id="Trazado_115051" data-name="Trazado 115051" d="M188.262,154.042c-3.143-1.879-14.111-8-22.266-12.485a60.238,60.238,0,0,1-8.762-5.926c-2.471-1.047-3.928-1.434-5.613-.18a4.512,4.512,0,0,0-.647,6.654l9.568,7.451,16.472,11a.563.563,0,0,1-.65.92c-2.3-1.059-14.964-6.866-25.877-11.634a53.793,53.793,0,0,1-5.891-3.075l-.423,12.472.867.56,22.259,11.56c.668.346-.013,1.2-.583.962l-22.671-9.336L144,164.252c-.009.2-.015.593-.022,1.144a96.916,96.916,0,0,1-.56,10.432l18.492,9.05a.647.647,0,0,1-.456,1.205l-20.873-5.723-15.952-7.025c-2.462-.791-4.336-.288-5.513.822a47.9,47.9,0,0,1,5.026,9.939l14.507,7.688,23.615,8.724c1.82.694,24.828,7.946,12.846,10.644l-2.078.468c-6.361,1.432-17.7,5.385-17.162,13.811a2.536,2.536,0,0,0,3.079,2.314c5.252-1.164,10.185-2.586,15.625-2.371,4.79.189,12.151-2.273,19.7-4.709,5.133-12.382,5.838-19.223,6.752-28.256.476-4.711,1.017-10.046,2.3-17.244.467-2.112,1.436-7.029,2.51-12.642-4.747-2.136-10.16-4.472-17.569-8.484" transform="translate(-119.12 -134.665)" fill="#e2e2e2"/>
                </g>
              </g>
            </g>
            <path id="Trazado_115052" data-name="Trazado 115052" d="M103.671,172.369l7.758-2.215c10.06-2.873,21.284-27.267,30.136-33.42,4.471-3.107,7.55-7.215,11.04-11.309a2.536,2.536,0,0,1,3.852-.008c5.507,6.4-1.159,16.388-5.372,21.364l-1.377,1.625c-7.935,9.374,14.8,1.3,16.667.753l24.1-7.27,19.091-3.072c6.616-2,10.593,6.77,3.215,9.345L195.82,152.17l-20.106,8.012a.647.647,0,0,0,.362,1.236l29.536-5.731,16.248-2.341c6.634-.664,7.6,9.025,1.645,10.61l-15.713,3.049-27.98,7.329c-.6.156-.629,1.245.114,1.119l24.729-4.191,13.13-.974c5.119-.712,6.868,1.928,7.147,3.865.469,3.266-2.053,5.256-5.346,6.225-3.166.932-7.645.764-13.278,2.111-11.582,2.772-25.184,5.768-27.661,6.31a.564.564,0,0,0,.035,1.127l19.775-1.148,12.126.179a4.511,4.511,0,0,1,3.493,5.7c-.589,2.016-1.985,2.585-4.587,3.239a60.292,60.292,0,0,0-10.565.551c-9.211,1.335-21.651,3.062-25.292,3.456-23.148,3.51-26.227,8.074-50.93,5.543l-8.744,2.218a6.1,6.1,0,0,1-7.585-2.941c-2.4-4.71-13.132-31.484-2.706-34.357" transform="translate(-32.446 -11.339)" fill="#9f4743"/>
            <g id="Grupo_81061" data-name="Grupo 81061" transform="translate(66.747 157.89)" style="mix-blend-mode: multiply;isolation: isolate">
              <g id="Grupo_81060" data-name="Grupo 81060">
                <g id="Grupo_81059" data-name="Grupo 81059" clip-path="url(#clip-path-5)">
                  <path id="Trazado_115053" data-name="Trazado 115053" d="M159.979,202.537a88.346,88.346,0,0,1-28.619,2.448c-2.569-.2-5.453-.7-6.9-2.833a9.871,9.871,0,0,1-1.086-2.565c-.539-10.024-3.42-18.4-9.8-27.7a10.177,10.177,0,0,1-2.144.925l-7.757,2.215c-10.426,2.873.3,29.647,2.705,34.357a6.105,6.105,0,0,0,7.585,2.941l6.767-1.716,1.977-.5c22.338,2.29,27-1.224,44.8-4.513q.059-.546.1-1.089a3.418,3.418,0,0,1,.334-1.47Z" transform="translate(-99.193 -171.889)" fill="#f9e9e1"/>
                </g>
              </g>
            </g>
            <g id="Grupo_81064" data-name="Grupo 81064" transform="translate(83.181 113.196)" style="mix-blend-mode: multiply;isolation: isolate">
              <g id="Grupo_81063" data-name="Grupo 81063">
                <g id="Grupo_81062" data-name="Grupo 81062" clip-path="url(#clip-path-6)">
                  <path id="Trazado_115054" data-name="Trazado 115054" d="M180.791,174.333l23.705-6.208,4.274-1.12,15.714-3.049a5.22,5.22,0,0,0,3.856-4.292l-12.49,2.891c-1.287.3-2.577.6-3.887.765a19.875,19.875,0,0,1-3.169.152,2.7,2.7,0,0,1-2.124-.758,2.85,2.85,0,0,1-.442-1.541q-.064-.7-.124-1.392c.259-1.364.521-2.749.781-4.136l-.3.042-29.536,5.731a.646.646,0,0,1-.361-1.235L196.8,152.17l11.234-2.655,5.728-1.353c2.539-.886,3.733-2.5,3.938-4.166a15.124,15.124,0,0,1-6.879,1.772c-.5.006-1.089-.07-1.315-.512-.182-.356-.053-.8-.162-1.177.715-2.443,1.36-4.078,1.37-4.1l.2-.5.043-.534c.006-.076.012-.157.018-.236-.142.034-.282.066-.428.109l-19.09,3.071-24.1,7.27c-1.87.543-24.6,8.622-16.666-.752l1.377-1.625c4.212-4.977,10.879-14.966,5.372-21.365a2.537,2.537,0,0,0-3.853.009,89.085,89.085,0,0,1-8.213,9.059l-.649,3.84-.858,25.36c-.01.2-.016.593-.023,1.143a93.216,93.216,0,0,1-.606,10.8c-3.233-5.351-9.859-14.2-18.314-14.2a11.855,11.855,0,0,0-2.258.219,40.014,40.014,0,0,1-6.055,6.2,6.07,6.07,0,0,0,.854,3.238c.445.747.9,1.485,1.342,2.217,2.225,3.648,4.326,7.093,5.46,11.032,1.442,5.005,5.883,11.056,10.585,17.462,1.477,2.013,3.055,4.167,4.55,6.326,11.973-.464,18.135-3.625,35.213-6.214,3.64-.395,16.081-2.122,25.292-3.456l.248-.033a60.477,60.477,0,0,1,10.317-.519c2.463-.618,3.836-1.178,4.477-2.944a31.261,31.261,0,0,1-10.129-.294,8.447,8.447,0,0,1-2.831-.989,3.916,3.916,0,0,1-1.1-1.829c.1-.978.2-1.992.313-3.036l-1.759-.025-19.776,1.147a.563.563,0,0,1-.034-1.126c1.87-.411,10.093-2.222,19-4.277l.151-.035q1.5-.345,3-.7h0c1.853-.433,3.7-.868,5.508-1.3,5.633-1.349,10.112-1.18,13.279-2.112,2.722-.8,4.913-2.3,5.326-4.645a96.226,96.226,0,0,1-12.543,2.979c-2.715.452-5.556.779-8.174-.066a3.194,3.194,0,0,1-1.636-1.005,4.019,4.019,0,0,1-.583-1.729c.075-.437.144-.862.226-1.314.159-.714.374-1.756.63-3.027L180.9,175.452c-.742.126-.71-.963-.113-1.119" transform="translate(-116.605 -124.534)" fill="#f9e9e1"/>
                </g>
              </g>
            </g>
            <path id="Trazado_115055" data-name="Trazado 115055" d="M222.227,146.72a4.506,4.506,0,0,0-.4-5.893,2.654,2.654,0,0,0-2.31-.787c-1.067.148-2.129.332-3.181.573a1.428,1.428,0,0,0-.734.328,1.4,1.4,0,0,0-.278.984,14.832,14.832,0,0,0,.678,4.585,2.05,2.05,0,0,0,.716,1.171,2.119,2.119,0,0,0,1.192.229c.815-.01,1.627-.059,2.437-.14a2.728,2.728,0,0,0,1.88-1.05" transform="translate(-38.97 -12.208)" fill="#a85252"/>
            <path id="Trazado_115056" data-name="Trazado 115056" d="M234.988,161.2c.37-2.382-1.266-5.27-3.923-5.087l-4,.277a3.327,3.327,0,0,0-1.464.33c-1.051.614-1.1,2.09-1.019,3.3a8.017,8.017,0,0,0,.394,2.351,2.709,2.709,0,0,0,1.6,1.672,3.97,3.97,0,0,0,1.545.071c1.67-.143,3.5.007,5.092-.654a2.792,2.792,0,0,0,1.772-2.263" transform="translate(-39.489 -13.112)" fill="#a85252"/>
            <path id="Trazado_115057" data-name="Trazado 115057" d="M231.39,179.561a4.562,4.562,0,0,0,.49-2.976,4.368,4.368,0,0,0-.341-1.143,2.939,2.939,0,0,0-2.8-1.656,35.806,35.806,0,0,0-4.978.5,1.886,1.886,0,0,0-1.209.54,1.639,1.639,0,0,0-.281.944,16.722,16.722,0,0,0,.02,2.075,4.168,4.168,0,0,0,1.074,3.054,3.811,3.811,0,0,0,2.721.52c1.08-.081,2.155-.214,3.223-.392a2.933,2.933,0,0,0,2.08-1.47" transform="translate(-39.359 -14.105)" fill="#a85252"/>
            <path id="Trazado_115058" data-name="Trazado 115058" d="M214.02,197.793a2.589,2.589,0,0,0,.445,1.454,2.178,2.178,0,0,0,1.731.55c1.539.015,3.656.479,4.713-.918a2.367,2.367,0,0,0-.461-3.422,6.559,6.559,0,0,0-4.194-1.139c-2.563.065-2.472,1-2.234,3.475" transform="translate(-38.891 -15.259)" fill="#a85252"/>
            <path id="Trazado_115059" data-name="Trazado 115059" d="M103.841,170.727c10.056,13.7,12.6,25.01,11.111,41.782L32.523,239.063,18.88,187.757Z" transform="translate(-27.934 -13.933)" fill="#fff"/>
            <path id="Trazado_115060" data-name="Trazado 115060" d="M96.77,170.671c10.057,13.7,13.688,29.113,12.2,45.886L26.543,243.11,11.809,187.7Z" transform="translate(-27.537 -13.93)" fill="#132144"/>
            <path id="Trazado_115061" data-name="Trazado 115061" d="M147.861,246.632l2-24.955c.837-10.429-18.99-28.912-21.974-39.272-1.507-5.232-4.41-9.466-7.166-14.086a2.537,2.537,0,0,1,1.228-3.652c7.829-3.16,15.148,6.36,18.508,11.949l1.1,1.824c6.33,10.526,5.977-13.6,6.064-15.542l.853-25.16,3.22-19.066c.234-6.907,9.812-7.858,9.883-.044l-1.651,17.351,1.133,21.614a.647.647,0,0,0,1.287.054l4.055-29.813,3-16.139c1.5-6.5,10.989-4.3,10.576,1.849L177.821,129.4l-2.043,28.852c-.043.615.978,1,1.1.252l3.972-24.765,3.293-12.749c.969-5.076,4.031-5.885,5.955-5.527,3.244.6,4.319,3.632,4.18,7.061-.135,3.3-1.732,7.486-2.263,13.253-1.094,11.858-2.624,25.7-2.905,28.223a.563.563,0,0,0,1.078.328l5.263-19.1,4.063-11.427a4.513,4.513,0,0,1,6.519-1.479c1.721,1.205,1.812,2.711,1.6,5.385a60.244,60.244,0,0,0-2.869,10.182c-1.693,9.152-4.052,21.488-4.847,25.062-4.108,23.05-.773,27.431-11.1,50.013l-2.316,25.89a6.1,6.1,0,0,1-5.22,6.239C176.035,255.864,147.235,257.429,147.861,246.632Z" transform="translate(-33.636 -10.396)" fill="#ffc38d"/>
            <g id="Grupo_81067" data-name="Grupo 81067" transform="translate(114.215 122.561)" style="mix-blend-mode: multiply;isolation: isolate">
              <g id="Grupo_81066" data-name="Grupo 81066">
                <g id="Grupo_81065" data-name="Grupo 81065" clip-path="url(#clip-path-7)">
                  <path id="Trazado_115062" data-name="Trazado 115062" d="M208.249,134.457c-.108-.058-6.518,20.51-6.985,22.44a183.5,183.5,0,0,0-4.2,24.525c-.789,7.717-.923,15.079-2.923,22.623a135.32,135.32,0,0,1-8.507,22.829,17.418,17.418,0,0,1-4.566,6.536c-3.772,2.966-8.891.85-13.232.631A62.908,62.908,0,0,0,150.5,235.6L149.5,248.132c-.627,10.8,28.174,9.231,33.406,8.468a6.1,6.1,0,0,0,5.221-6.238l1.042-11.646,1.274-14.244c10.329-22.582,6.995-26.963,11.1-50.013,2.652-11.92,4.611-23.908,7.529-35.771.371-1.509.547-3.5-.822-4.231" transform="translate(-149.487 -134.457)" fill="#f9e9e1"/>
                </g>
              </g>
            </g>
            <g id="Grupo_81070" data-name="Grupo 81070" transform="translate(152.898 105.602)" style="mix-blend-mode: multiply;isolation: isolate">
              <g id="Grupo_81069" data-name="Grupo 81069">
                <g id="Grupo_81068" data-name="Grupo 81068" clip-path="url(#clip-path-8)">
                  <path id="Trazado_115063" data-name="Trazado 115063" d="M193.056,167.728c.4-.165.52-.658.593-1.082.089-.518.183-1.034.273-1.552a.56.56,0,0,1-.878-.6c.281-2.52,1.811-16.365,2.9-28.223.532-5.767,2.129-9.955,2.263-13.252.115-2.831-.6-5.384-2.678-6.53-1.44,11-4.478,21.795-4.98,32.874-.193,4.234-.011,8.475.17,12.71A10.375,10.375,0,0,0,191.76,167c.277.465.8.936,1.3.728" transform="translate(-190.472 -116.488)" fill="#f9e9e1"/>
                </g>
              </g>
            </g>
            <g id="Grupo_81073" data-name="Grupo 81073" transform="translate(138.979 98.115)" style="mix-blend-mode: multiply;isolation: isolate">
              <g id="Grupo_81072" data-name="Grupo 81072">
                <g id="Grupo_81071" data-name="Grupo 81071" clip-path="url(#clip-path-9)">
                  <path id="Trazado_115064" data-name="Trazado 115064" d="M178.154,161.475c.627.27,1.318-.372,1.446-1.043a7.816,7.816,0,0,0,.384-1.881c-.12.745-1.14.364-1.1-.251l2.042-28.852,2.158-15.859a5.22,5.22,0,0,0-2.831-5.032c.349,7.289-1.47,14.529-2.688,21.749a132.63,132.63,0,0,0-1.844,21.807c-.006,3.04.149,6.263,1.841,8.788a1.465,1.465,0,0,0,.589.574" transform="translate(-175.724 -108.556)" fill="#f9e9e1"/>
                </g>
              </g>
            </g>
            <g id="Grupo_81076" data-name="Grupo 81076" transform="translate(122.057 102.951)" style="mix-blend-mode: multiply;isolation: isolate">
              <g id="Grupo_81075" data-name="Grupo 81075">
                <g id="Grupo_81074" data-name="Grupo 81074" clip-path="url(#clip-path-10)">
                  <path id="Trazado_115065" data-name="Trazado 115065" d="M157.806,141.83a88.071,88.071,0,0,0,1.249,11.41,28.624,28.624,0,0,0,1.722,7.105,2.389,2.389,0,0,0,.922,1.222,1.792,1.792,0,0,0,2.259-.867,5.29,5.29,0,0,0,.459-2.61.642.642,0,0,1-1.254-.163l-1.133-21.614,1.651-17.352c-.027-3.005-1.463-4.71-3.231-5.281-.045,9.39-2.851,18.72-2.644,28.15" transform="translate(-157.795 -113.68)" fill="#f9e9e1"/>
                </g>
              </g>
            </g>
            <path id="Trazado_115066" data-name="Trazado 115066" d="M128.538,178.495a2.088,2.088,0,0,0-.075-1.17,12.715,12.715,0,0,0-2.935-5.446,3.6,3.6,0,0,0-2.921-1.1,2.745,2.745,0,0,0-1.815,1.156c1.823,3.049,3.7,5.941,5.193,9.06a8.085,8.085,0,0,0,2.1-1.767,2.127,2.127,0,0,0,.455-.731" transform="translate(-33.66 -13.935)" fill="#ffd5b3"/>
            <path id="Trazado_115067" data-name="Trazado 115067" d="M162.572,114.846a4.507,4.507,0,0,0-5.7-1.564,2.657,2.657,0,0,0-1.5,1.923c-.211,1.057-.387,2.121-.506,3.192a1.431,1.431,0,0,0,.067.8,1.4,1.4,0,0,0,.838.587,14.848,14.848,0,0,0,4.553.87,2.051,2.051,0,0,0,1.341-.291,2.115,2.115,0,0,0,.609-1.05c.259-.772.48-1.555.671-2.347a2.727,2.727,0,0,0-.373-2.121" transform="translate(-35.572 -10.683)" fill="#ffd5b3"/>
            <path id="Trazado_115068" data-name="Trazado 115068" d="M180.447,107.421c-2.127-1.134-5.394-.541-6.1,2.03q-.527,1.931-1.055,3.864a3.333,3.333,0,0,0-.17,1.49c.234,1.2,1.61,1.727,2.784,2.051a8.029,8.029,0,0,0,2.35.4,2.71,2.71,0,0,0,2.1-.961,3.982,3.982,0,0,0,.577-1.436c.414-1.624,1.157-3.3,1.059-5.024a2.792,2.792,0,0,0-1.554-2.418" transform="translate(-36.598 -10.346)" fill="#ffd5b3"/>
            <path id="Trazado_115069" data-name="Trazado 115069" d="M196.6,116.893a4.563,4.563,0,0,0-2.649-1.442,4.352,4.352,0,0,0-1.191-.055,2.937,2.937,0,0,0-2.485,2.1,35.733,35.733,0,0,0-1.163,4.865,1.888,1.888,0,0,0,.111,1.319,1.645,1.645,0,0,0,.8.577,16.7,16.7,0,0,0,1.965.664,4.17,4.17,0,0,0,3.238-.008,3.814,3.814,0,0,0,1.386-2.4c.279-1.047.508-2.106.692-3.172a2.936,2.936,0,0,0-.7-2.449" transform="translate(-37.494 -10.824)" fill="#ffd5b3"/>
            <path id="Trazado_115070" data-name="Trazado 115070" d="M208.072,139.417a2.594,2.594,0,0,0,1.52.059,2.18,2.18,0,0,0,1.09-1.454c.521-1.449,1.656-3.294.684-4.752a2.367,2.367,0,0,0-3.383-.692,6.558,6.558,0,0,0-2.457,3.585c-.782,2.442.135,2.664,2.546,3.254" transform="translate(-38.404 -11.766)" fill="#ffd5b3"/>
            <path id="Trazado_115071" data-name="Trazado 115071" d="M145.381,249.717c16.206-5.125,31.967-3.617,47.373,3.177l-1.139,74.92-57.206-3.836Z" transform="translate(-34.424 -18.199)" fill="#fff"/>
            <path id="Trazado_115072" data-name="Trazado 115072" d="M228.532,222.136l13.55-38.124a1.314,1.314,0,0,1,1.678-.8l5.171,1.838a1.314,1.314,0,0,1,.8,1.678l-13.55,38.124a1.315,1.315,0,0,1-1.678.8l-5.17-1.838a1.315,1.315,0,0,1-.8-1.678" transform="translate(-39.708 -14.631)" fill="#083a75"/>
          </g>
        </g>
        <g id="Grupo_81080" data-name="Grupo 81080">
          <g id="Grupo_81079" data-name="Grupo 81079" clip-path="url(#clip-path)">
            <path id="Trazado_115074" data-name="Trazado 115074" d="M10.963,97.7a27.229,27.229,0,0,1,24.378-5.623c4.034,1.053,8.238,3.587,9.006,7.686.779,4.155-2.216,7.955-4.815,11.287a98.853,98.853,0,0,0-10.62,16.9c-1.991,4.018-3.753,8.242-6.727,11.6s-7.532,5.739-11.905,4.747c-6.234-1.414-9.158-8.624-9.922-14.971a41.058,41.058,0,0,1,2.226-20.082A29.032,29.032,0,0,1,10.963,97.7" transform="translate(0 -5.124)" fill="#727997"/>
            <path id="Trazado_115075" data-name="Trazado 115075" d="M302.579,305.013a28.643,28.643,0,0,1-25.855-4.914c-3.438-2.723-6.411-6.945-5.415-11.215,1.01-4.33,5.5-6.72,9.418-8.828a104.05,104.05,0,0,0,17.385-11.769c3.619-3.026,7.1-6.347,11.39-8.318s9.684-2.335,13.474.473c5.4,4,5.165,12.184,3.212,18.619a43.2,43.2,0,0,1-10.653,18.393,30.541,30.541,0,0,1-12.957,7.56" transform="translate(-15.23 -14.517)" fill="#727997"/>
            <path id="Trazado_115076" data-name="Trazado 115076" d="M247.93,49.4s.247-19.817-26.874-15.625c0,0-8.875-13.315-22.682-13.313-12.821,0-18.739,12.326-18.739,12.326s-10.107-.025-10.355,9.727c0,0-7.643-.665-10.108,6.884Z" transform="translate(-8.942 -1.15)" fill="#fff"/>
            <path id="Trazado_115077" data-name="Trazado 115077" d="M36.6,142.508s-.182-14.6,19.794-11.509c0,0,6.537-9.805,16.707-9.8,9.443,0,13.8,9.079,13.8,9.079s7.445-.019,7.627,7.165a7.319,7.319,0,0,1,7.445,5.07Z" transform="translate(-2.056 -6.808)" fill="#fff"/>
            <path id="Trazado_115078" data-name="Trazado 115078" d="M251.152,175.137s-.191-15.324,20.782-12.083c0,0,6.863-10.3,17.54-10.3,9.915,0,14.49,9.533,14.49,9.533s7.817-.02,8.007,7.522a7.686,7.686,0,0,1,7.818,5.323Z" transform="translate(-14.109 -8.582)" fill="#fff"/>
          </g>
        </g>
      </g>
    </g>
  </g>
</svg>
