<svg xmlns="http://www.w3.org/2000/svg" xmlns:xlink="http://www.w3.org/1999/xlink" width="400" height="312.19" viewBox="0 0 400 312.19">
  <defs>
    <clipPath id="clip-path">
      <rect id="Rectángulo_46595" data-name="Rectángulo 46595" width="243.518" height="298.725" fill="none"/>
    </clipPath>
  </defs>
  <g id="Grupo_81229" data-name="Grupo 81229" transform="translate(-355.265 -972.802)">
    <g id="Image_Place_Holder" data-name="Image Place Holder" transform="translate(355.265 1014.223)" opacity="0.1">
      <rect id="Image_Place_Holder-2" data-name="Image Place Holder" width="400" height="270.769" rx="10" fill="#a5d20e"/>
    </g>
    <g id="Grupo_80788" data-name="Grupo 80788" transform="translate(388.163 972.802)">
      <rect id="Rectángulo_46585" data-name="Rectángulo 46585" width="35.018" height="32.253" transform="translate(75.186 40.981) rotate(-84.711)" fill="#e6e6e6"/>
      <rect id="Rectángulo_46586" data-name="Rectángulo 46586" width="35.018" height="32.253" transform="translate(75.186 40.981) rotate(-84.711)" fill="none" stroke="#e6e6e6" stroke-miterlimit="10" stroke-width="1"/>
      <rect id="Rectángulo_46587" data-name="Rectángulo 46587" width="23.858" height="82.236" transform="matrix(0.092, -0.996, 0.996, 0.092, 0.33, 28.07)" fill="#e6e6e6"/>
      <g id="Grupo_80787" data-name="Grupo 80787">
        <g id="Grupo_80786" data-name="Grupo 80786" clip-path="url(#clip-path)">
          <rect id="Rectángulo_46588" data-name="Rectángulo 46588" width="23.858" height="82.236" transform="translate(0.33 28.07) rotate(-84.71)" fill="none" stroke="#e6e6e6" stroke-miterlimit="10" stroke-width="1.318"/>
          <path id="Trazado_114797" data-name="Trazado 114797" d="M207.236.542l132.529,13.13a8.466,8.466,0,0,1,7.616,8.93L344.2,75.965c-.01.168-.015.336-.015.5V290.3a8.466,8.466,0,0,1-8.466,8.466H215.349a8.467,8.467,0,0,1-8.467-8.466V63.892a8.466,8.466,0,0,0-6.907-8.321,8.466,8.466,0,0,1-6.84-9.389L198,7.9A8.467,8.467,0,0,1,207.236.542" transform="translate(-104.109 -0.27)" fill="#333"/>
          <path id="Trazado_114798" data-name="Trazado 114798" d="M207.236.542l132.529,13.13a8.466,8.466,0,0,1,7.616,8.93L344.2,75.965c-.01.168-.015.336-.015.5V290.3a8.466,8.466,0,0,1-8.466,8.466H215.349a8.467,8.467,0,0,1-8.467-8.466V63.892a8.466,8.466,0,0,0-6.907-8.321,8.466,8.466,0,0,1-6.84-9.389L198,7.9A8.467,8.467,0,0,1,207.236.542Z" transform="translate(-104.109 -0.27)" fill="none" stroke="#333" stroke-miterlimit="10" stroke-width="1"/>
          <path id="Trazado_114799" data-name="Trazado 114799" d="M233.783,22.591,343.371,33.447a7,7,0,0,1,6.3,7.384l-2.635,44.125q-.012.209-.012.417V262.189a7,7,0,0,1-7,7h-99.53a7,7,0,0,1-7-7V63.916a7.029,7.029,0,0,0-5.712-6.907v.026a7,7,0,0,1-5.655-7.764l4.024-20.6a7,7,0,0,1,7.635-6.084" transform="translate(-119.747 -12.163)" fill="gray"/>
          <path id="Trazado_114800" data-name="Trazado 114800" d="M233.783,22.591,343.371,33.447a7,7,0,0,1,6.3,7.384l-2.635,44.125q-.012.209-.012.417V262.189a7,7,0,0,1-7,7h-99.53a7,7,0,0,1-7-7V63.916a7.029,7.029,0,0,0-5.712-6.907v.026a7,7,0,0,1-5.655-7.764l4.024-20.6A7,7,0,0,1,233.783,22.591Z" transform="translate(-119.747 -12.163)" fill="none" stroke="gray" stroke-miterlimit="10" stroke-width="0.827"/>
          <rect id="Rectángulo_46589" data-name="Rectángulo 46589" width="88.927" height="35.479" transform="translate(128.797 71.57)" fill="#b3b3b3"/>
          <rect id="Rectángulo_46590" data-name="Rectángulo 46590" width="88.927" height="35.479" transform="translate(128.797 71.57)" fill="none" stroke="#b3b3b3" stroke-miterlimit="10" stroke-width="0.827"/>
          <rect id="Rectángulo_46591" data-name="Rectángulo 46591" width="25.342" height="12.901" transform="translate(137.091 165.565)" fill="#b3b3b3"/>
          <rect id="Rectángulo_46592" data-name="Rectángulo 46592" width="25.342" height="12.901" transform="translate(137.091 165.565)" fill="none" stroke="#b3b3b3" stroke-miterlimit="10" stroke-width="0.827"/>
          <rect id="Rectángulo_46593" data-name="Rectángulo 46593" width="25.342" height="12.901" transform="translate(185.01 165.565)" fill="#b3b3b3"/>
          <rect id="Rectángulo_46594" data-name="Rectángulo 46594" width="25.342" height="12.901" transform="translate(185.01 165.565)" fill="none" stroke="#b3b3b3" stroke-miterlimit="10" stroke-width="0.827"/>
          <path id="Trazado_114801" data-name="Trazado 114801" d="M373.324,287.225a15.9,15.9,0,1,1-15.9-15.9,15.9,15.9,0,0,1,15.9,15.9" transform="translate(-184.166 -146.311)" fill="#b3b3b3"/>
          <circle id="Elipse_4724" data-name="Elipse 4724" cx="15.896" cy="15.896" r="15.896" transform="translate(157.365 125.018)" fill="none" stroke="#b3b3b3" stroke-miterlimit="10" stroke-width="0.827"/>
        </g>
      </g>
    </g>
  </g>
</svg>
