<svg xmlns="http://www.w3.org/2000/svg" xmlns:xlink="http://www.w3.org/1999/xlink" width="220" height="213" viewBox="0 0 220 213">
  <defs>
    <clipPath id="clip-path">
      <rect id="Rect치ngulo_46952" data-name="Rect치ngulo 46952" width="220" height="192" transform="translate(-0.216 0.386)" fill="none"/>
    </clipPath>
    <clipPath id="clip-path-3">
      <rect id="Rect치ngulo_46950" data-name="Rect치ngulo 46950" width="23.223" height="23.18" fill="none"/>
    </clipPath>
  </defs>
  <g id="Grupo_81237" data-name="Grupo 81237" transform="translate(-696.667 -4453)">
    <g id="Elipse_4730" data-name="Elipse 4730" transform="translate(696.667 4453)" fill="#f6f6f6" stroke="#707070" stroke-width="1">
      <circle cx="106.5" cy="106.5" r="106.5" stroke="none"/>
      <circle cx="106.5" cy="106.5" r="106" fill="none"/>
    </g>
    <g id="Grupo_81224" data-name="Grupo 81224" transform="translate(696.883 4452.614)">
      <g id="Grupo_81223" data-name="Grupo 81223" clip-path="url(#clip-path)">
        <path id="Trazado_115289" data-name="Trazado 115289" d="M220,192h0Z" transform="translate(-0.216 0.386)" fill="#fff"/>
        <g id="Grupo_81222" data-name="Grupo 81222">
          <g id="Grupo_81221" data-name="Grupo 81221" clip-path="url(#clip-path)">
            <path id="Trazado_115226" data-name="Trazado 115226" d="M410.014,304.916c-1.462-.973-2.959-1.894-4.4-2.895a1.272,1.272,0,0,1-.471-.968c.175-2.026.467-4.043.628-6.07a1.076,1.076,0,0,1,.743-1.125c1.987-.792,3.954-1.639,5.927-2.466.32-.134.635-.28,1.187-.524l-2.9-9.1c-2.544.523-4.864.96-7.162,1.493a1.41,1.41,0,0,1-1.781-.652c-1.078-1.531-2.369-2.91-3.529-4.386a1.153,1.153,0,0,1-.156-.951c.768-2.03,1.535-4.065,2.425-6.044a1.225,1.225,0,0,0-.644-1.892,5.905,5.905,0,0,1-.888-.683l-4.407-2.331a3.008,3.008,0,0,1-.551-.111c-1.791-.718-1.447-.706-2.451.791-1.223,1.824-2.416,3.669-3.463,5.263l-7.938-.688-3.146-7.492a30.5,30.5,0,0,0-9.07,2.887c.519,2.5,1.019,4.941,1.537,7.377a.844.844,0,0,1-.359,1.026c-1.671,1.268-3.313,2.58-4.893,3.959a.993.993,0,0,1-1.244.2c-2.037-.841-4.094-1.634-6.135-2.466a.855.855,0,0,0-1.205.308,27.2,27.2,0,0,0-3.715,7.32c-.182.515.066.736.456.985,1.8,1.154,3.577,2.353,5.388,3.495a1.072,1.072,0,0,1,.583,1.286c-.343,2.322-.551,4.663-.831,7.185l-7.19,3.018a28.427,28.427,0,0,0,2.825,9.2l7.781-1.654c1.512,1.719,2.876,3.354,4.341,4.893a1.364,1.364,0,0,1,.337,1.748c-.843,1.932-1.611,3.9-2.389,5.857-.154.387-.459.839.147,1.153q3.692,1.918,7.383,3.837c.523.272.851.094,1.163-.4,1.162-1.835,2.4-3.62,3.535-5.474.436-.715.91-.746,1.65-.651a49.9,49.9,0,0,0,5.508.461,1.2,1.2,0,0,1,1.357.92c.875,2.259,1.838,4.483,2.748,6.674a27.254,27.254,0,0,0,9.223-2.937c-.521-2.407-1.023-4.846-1.592-7.27a1.034,1.034,0,0,1,.5-1.237c1.491-1.189,2.9-2.483,4.376-3.688a1.259,1.259,0,0,1,1.042-.207c1.819.7,3.614,1.46,5.407,2.221,1,.426,1.406.6,1.788.341l4.137-7.819c.006-.634-.431-.931-1.614-1.718m-15.587-2.628a14.317,14.317,0,1,1-5.96-19.351h0A14.317,14.317,0,0,1,394.427,302.288Z" transform="translate(-316.592 -238.631)" fill="#cae1f9"/>
            <g id="Grupo_81220" data-name="Grupo 81220" transform="translate(130.179 41.308)" opacity="0.2">
              <g id="Grupo_81219" data-name="Grupo 81219">
                <g id="Grupo_81218" data-name="Grupo 81218" clip-path="url(#clip-path-3)">
                  <path id="Trazado_115227" data-name="Trazado 115227" d="M1372.5,443.561c-.537-.357-1.086-.7-1.615-1.063a.467.467,0,0,1-.173-.355c.064-.744.171-1.484.23-2.228a.4.4,0,0,1,.273-.413c.73-.291,1.451-.6,2.176-.905.117-.049.233-.1.436-.192l-1.064-3.34c-.934.192-1.785.353-2.629.548a.518.518,0,0,1-.654-.24c-.4-.562-.87-1.068-1.3-1.61a.424.424,0,0,1-.057-.349c.282-.745.563-1.492.89-2.219a.45.45,0,0,0-.236-.694,2.167,2.167,0,0,1-.326-.251l-1.618-.856a1.1,1.1,0,0,1-.2-.04c-.657-.264-.531-.259-.9.29-.449.67-.887,1.347-1.271,1.932l-2.914-.253-1.155-2.75a11.2,11.2,0,0,0-3.329,1.06c.191.918.374,1.814.564,2.708a.31.31,0,0,1-.132.377c-.614.465-1.216.947-1.8,1.453a.364.364,0,0,1-.456.073c-.748-.309-1.5-.6-2.252-.905a.314.314,0,0,0-.443.113,9.985,9.985,0,0,0-1.364,2.687c-.067.189.024.27.167.362.662.424,1.313.864,1.978,1.283a.394.394,0,0,1,.214.472c-.126.852-.2,1.712-.305,2.638L1350.6,442a10.438,10.438,0,0,0,1.037,3.378l2.856-.607c.555.631,1.056,1.231,1.593,1.8a.5.5,0,0,1,.124.642c-.309.709-.591,1.431-.877,2.15-.057.142-.168.308.054.423l2.71,1.409c.192.1.312.035.427-.147.427-.674.883-1.329,1.3-2.01.16-.263.334-.274.606-.239a18.313,18.313,0,0,0,2.022.169.44.44,0,0,1,.5.338c.321.829.675,1.646,1.009,2.45a10.008,10.008,0,0,0,3.386-1.078c-.191-.884-.376-1.779-.585-2.669a.38.38,0,0,1,.183-.454c.547-.437,1.064-.912,1.607-1.354a.462.462,0,0,1,.383-.076c.668.256,1.326.536,1.985.815.368.156.516.221.656.125l1.519-2.87c0-.233-.158-.342-.593-.631m-5.722-.965a5.256,5.256,0,0,1-9.291-4.916h0a5.256,5.256,0,1,1,9.291,4.916" transform="translate(-1350.601 -428.573)" fill="#9bc1f9"/>
                </g>
              </g>
            </g>
            <path id="Trazado_115228" data-name="Trazado 115228" d="M1825.251,934.4a56.388,56.388,0,0,1-5.229,5.916c-1.937,1.667-3.785,3.263-6.255,8.567s-2.4,5.911-3.055,7.277-4.1,6.716-4.364,7.783-5.889,6.18-7.63,8.781-4.6,6.229-4.974,8.328l.508-.01a22.906,22.906,0,0,1,5.981-8.856c4.465-4.112,4.2-5.146,8.568-6.777s8.418-8,8.418-8,5.6-6.638,6.328-10.595,2.573-7.251,1.7-12.416" transform="translate(-1620.852 -844.334)" fill="#256653"/>
            <path id="Trazado_115229" data-name="Trazado 115229" d="M1813.96,846.151a14.4,14.4,0,0,1-2.293,4.717c-1.44,1.622-2.57,2.547-3.22,4.513s-2.487,7-5.885,8.87-5.518,9.364-8.19,11.158-3.334,3.375-3.853,7.4-.443,9.779-5.2,16.165l-.29-1.931s3.58-5.331,3.839-8.88-.408-9.158.853-11.48-1.171-3.4,1.234-6.8,2.079-4.847,4.92-7.607c0,0,.249-.1,1.436-2.72s6.78-6.621,9.217-7.865,6.015-3.312,7.431-5.542" transform="translate(-1612.976 -764.594)" fill="#256653"/>
            <path id="Trazado_115230" data-name="Trazado 115230" d="M1801.522,986.628s-3.412,3.611-4.073,6.293-.878,4.937-2.969,8.333-.182,6.294-1.361,8.164a19.62,19.62,0,0,0-2.2,6.095c-.4,1.831-4.625,7.218-5.766,10.178s-.595,3.1-.595,3.1a27.363,27.363,0,0,1,2.365-5.116,69.6,69.6,0,0,0,4.875-7.006c.875-1.674,2.389-2.528,4.167-5.295s3.9-4.952,4.778-9.261,3.653-8.427.774-15.482" transform="translate(-1612.437 -891.531)" fill="#3c8f7c"/>
            <path id="Trazado_115231" data-name="Trazado 115231" d="M1805.852,1255.118s2.371-5.038,7.294-4.452,7.521,2.191,11.813-.9,7.691-8.776,9.02-9.583c0,0-1.5-1.273-4.948.717s-5.9,3.535-7.9,4.7-3.1-.155-5.063.459c-1.649.515-4.1,2.54-5.224,3.637a5.984,5.984,0,0,1-1.217.919c-.4.229-.887.514-1.206.731a32.354,32.354,0,0,0-2.942,3.7Z" transform="translate(-1631.453 -1120.289)" fill="#3c8f7c"/>
            <path id="Trazado_115232" data-name="Trazado 115232" d="M1740.3,1109.775s3.2-6.092,2.8-9.53-3.4-6.611-2.789-8.571,4.136-6.819,3.213-11.263c0,0-1.537,3.414-2.418,4.049s-6.4,2.734-6.543,7.17,4.273,6.507,5.127,8.021,2.4,1.871,2.214,2.7a32.923,32.923,0,0,1-1.789,6.778Z" transform="translate(-1567.377 -976.274)" fill="#3c8f7c"/>
            <path id="Trazado_115233" data-name="Trazado 115233" d="M1788.224,1021.121l3.968-6.292s2.676-5.181,4.553-9.584,4.781-18.617,4.781-18.617-3.412,3.611-4.073,6.293-.878,4.937-2.969,8.333-.182,6.294-1.361,8.163a19.623,19.623,0,0,0-2.2,6.095c-.4,1.831-4.625,7.218-5.766,10.178a7.777,7.777,0,0,0-.723,2.764c.241-2.765,3.786-7.332,3.786-7.332" transform="translate(-1612.44 -891.531)" fill="#327f6b"/>
            <path id="Trazado_115234" data-name="Trazado 115234" d="M1819.89,1252.282c-2.218-.07-4.08-.655-7.032.633a21.617,21.617,0,0,0-4.9,2.944s-1.6,1.758-2.317,2.715l-.167.235.375.067s2.372-5.038,7.294-4.452,7.521,2.191,11.813-.9,7.691-8.776,9.02-9.583a55.7,55.7,0,0,0-7.064,3.932c-2.806,1.965-4.806,4.473-7.025,4.4" transform="translate(-1631.454 -1124.048)" fill="#327f6b"/>
            <path id="Trazado_115235" data-name="Trazado 115235" d="M1741.11,1084.459c-.881.634-6.4,2.734-6.543,7.17s4.273,6.507,5.127,8.021,2.4,1.871,2.214,2.7a32.916,32.916,0,0,1-1.789,6.778l.079.28a39.032,39.032,0,0,0,1.706-4.11,8.972,8.972,0,0,0,.258-5.056c-.29-1.931-3.811-6.545-4.463-8.692s3.282-4.568,4.347-5.931,1.482-5.214,1.482-5.214-1.537,3.415-2.418,4.049" transform="translate(-1567.376 -976.273)" fill="#327f6b"/>
            <path id="Trazado_115236" data-name="Trazado 115236" d="M234.621,1510.949a187.97,187.97,0,0,0-38.159-38.664c-.15-.114-.353.148-.2.265a187.772,187.772,0,0,1,37.569,38.611Z" transform="translate(-177.295 -1330.352)" fill="#256653"/>
            <path id="Trazado_115237" data-name="Trazado 115237" d="M258.321,1574.832a6.632,6.632,0,0,1,2.455-1.478,5.116,5.116,0,0,1,2.533-.1,5.521,5.521,0,0,0-2.48-1.369,5.413,5.413,0,0,0-4.15.514c-1.5,1.014-1.618,2.736-.875,3.055.738.34,1.723-.129,2.517-.628" transform="translate(-230.747 -1420.211)" fill="#256653"/>
            <path id="Trazado_115238" data-name="Trazado 115238" d="M194.658,1518.746a6.632,6.632,0,0,1,2.455-1.478,5.116,5.116,0,0,1,2.533-.1,5.523,5.523,0,0,0-2.48-1.369,5.413,5.413,0,0,0-4.15.514c-1.5,1.014-1.618,2.736-.875,3.055.738.34,1.723-.129,2.517-.628" transform="translate(-173.22 -1369.531)" fill="#256653"/>
            <path id="Trazado_115239" data-name="Trazado 115239" d="M359.349,1552.582a4.715,4.715,0,0,0-2.021,1.54,3.6,3.6,0,0,0-.567,2.16,5.973,5.973,0,0,1-1-2.7c-.186-1.447.569-3.056,1.309-3.4,1.352-.895,3.2-.311,3.406.461.225.776-.454,1.444-1.13,1.934" transform="translate(-321.447 -1400.362)" fill="#256653"/>
            <path id="Trazado_115240" data-name="Trazado 115240" d="M335.542,1299.305a150.42,150.42,0,0,1,20.025,47.938l.639-.172a151.379,151.379,0,0,0-19.948-47.534c-2.164-3.382-4.5-7.393-8.552-8.712-.078-.025-.108.093-.033.121,3.7,1.394,5.844,5.2,7.869,8.358" transform="translate(-296.051 -1166.405)" fill="#256653"/>
            <path id="Trazado_115241" data-name="Trazado 115241" d="M371.716,1257.4a6.633,6.633,0,0,0-1.429,2.484,5.117,5.117,0,0,0-.045,2.534,5.524,5.524,0,0,1-1.417-2.453,5.413,5.413,0,0,1,.432-4.159c.984-1.518,2.7-1.672,3.038-.936.354.731-.1,1.726-.578,2.529" transform="translate(-333.077 -1133.53)" fill="#256653"/>
            <path id="Trazado_115242" data-name="Trazado 115242" d="M349.959,1390.66a6.633,6.633,0,0,1,2.455-1.478,5.116,5.116,0,0,1,2.533-.1,5.522,5.522,0,0,0-2.48-1.369,5.413,5.413,0,0,0-4.15.514c-1.5,1.014-1.618,2.736-.875,3.055.738.34,1.724-.129,2.517-.628" transform="translate(-313.552 -1253.791)" fill="#256653"/>
            <path id="Trazado_115243" data-name="Trazado 115243" d="M384.893,1449.782a6.631,6.631,0,0,1,2.455-1.478,5.113,5.113,0,0,1,2.533-.1,5.522,5.522,0,0,0-2.48-1.369,5.413,5.413,0,0,0-4.15.514c-1.5,1.014-1.618,2.736-.875,3.055.738.34,1.723-.129,2.517-.628" transform="translate(-345.119 -1307.214)" fill="#256653"/>
            <path id="Trazado_115244" data-name="Trazado 115244" d="M418.764,1324.033a6.633,6.633,0,0,0-1.8,2.228,5.117,5.117,0,0,0-.445,2.5,5.524,5.524,0,0,1-1.013-2.645,5.414,5.414,0,0,1,1.083-4.039c1.211-1.344,2.933-1.224,3.147-.445.235.778-.366,1.689-.969,2.406" transform="translate(-375.414 -1193.718)" fill="#256653"/>
            <path id="Trazado_115245" data-name="Trazado 115245" d="M459.124,1385.744a5.783,5.783,0,0,0-2.6,1.711,4.421,4.421,0,0,0-.879,2.594,7.323,7.323,0,0,1-.99-3.387c-.1-1.786.958-3.69,1.893-4.042,1.731-.979,3.946-.106,4.128.856.209.969-.679,1.728-1.547,2.269" transform="translate(-410.822 -1248.966)" fill="#256653"/>
            <path id="Trazado_115246" data-name="Trazado 115246" d="M511.6,1485.859a5.784,5.784,0,0,0-2.855,1.249,4.42,4.42,0,0,0-1.3,2.409,7.326,7.326,0,0,1-.406-3.506c.2-1.778,1.564-3.476,2.546-3.666,1.871-.674,3.907.559,3.925,1.538.043.99-.96,1.589-1.907,1.976" transform="translate(-458.083 -1339.293)" fill="#256653"/>
            <path id="Trazado_115247" data-name="Trazado 115247" d="M295.354,1291a3.937,3.937,0,0,1,1.388-.982,3.035,3.035,0,0,1,1.494-.167,3.275,3.275,0,0,0-1.527-.7,3.211,3.211,0,0,0-2.432.486c-.842.665-.837,1.689-.384,1.846s1.014-.152,1.461-.481" transform="translate(-265.29 -1164.839)" fill="#256653"/>
            <path id="Trazado_115248" data-name="Trazado 115248" d="M314.941,1251.562a3.935,3.935,0,0,0,.07,1.7,3.036,3.036,0,0,0,.78,1.286,3.276,3.276,0,0,1-1.488-.781,3.212,3.212,0,0,1-1.1-2.223c.013-1.073.827-1.695,1.227-1.431s.5.9.511,1.451" transform="translate(-283.008 -1129.563)" fill="#256653"/>
            <path id="Trazado_115249" data-name="Trazado 115249" d="M160.025,1473.073a3.934,3.934,0,0,1,1.388-.982,3.035,3.035,0,0,1,1.494-.167,3.276,3.276,0,0,0-1.527-.7,3.211,3.211,0,0,0-2.432.486c-.842.665-.837,1.689-.384,1.846s1.014-.152,1.462-.481" transform="translate(-143.005 -1329.365)" fill="#256653"/>
            <path id="Trazado_115250" data-name="Trazado 115250" d="M183.564,1432.745a3.937,3.937,0,0,0-.07,1.7,3.032,3.032,0,0,0,.672,1.345,3.275,3.275,0,0,1-1.419-.9,3.211,3.211,0,0,1-.914-2.305c.1-1.068.963-1.621,1.34-1.326s.424.933.39,1.488" transform="translate(-164.289 -1293.232)" fill="#256653"/>
            <path id="Trazado_115251" data-name="Trazado 115251" d="M220.476,1737.039c9.524,1.044,18.393,5.248,26.932,9.347,5.758,2.764,5.467,3.552,6.64,3.963a.236.236,0,0,0,.288-.323,6.45,6.45,0,0,0-2.457-2.012,31.959,31.959,0,0,0-2.975-1.62c-2.173-1.055-4.4-2-6.619-2.967a96.013,96.013,0,0,0-13.848-5.047,48.659,48.659,0,0,0-7.955-1.419.039.039,0,0,0-.006.078" transform="translate(-199.194 -1569.542)" fill="#256653"/>
            <path id="Trazado_115252" data-name="Trazado 115252" d="M275.735,1682.534a6.144,6.144,0,0,0-.218,2.646,4.741,4.741,0,0,0,.962,2.142,5.116,5.116,0,0,1-2.155-1.5,5.015,5.015,0,0,1-1.278-3.656c.226-1.66,1.607-2.468,2.177-1.983.585.473.6,1.484.513,2.348" transform="translate(-246.685 -1518.113)" fill="#256653"/>
            <path id="Trazado_115253" data-name="Trazado 115253" d="M362.779,1713.7a6.144,6.144,0,0,0-.218,2.646,4.742,4.742,0,0,0,.962,2.142,5.117,5.117,0,0,1-2.155-1.5,5.014,5.014,0,0,1-1.278-3.656c.226-1.66,1.607-2.468,2.177-1.983.585.473.6,1.484.513,2.348" transform="translate(-325.339 -1546.275)" fill="#256653"/>
            <path id="Trazado_115254" data-name="Trazado 115254" d="M451.225,1753.123a6.144,6.144,0,0,0-.218,2.646,4.739,4.739,0,0,0,.962,2.142,5.116,5.116,0,0,1-2.155-1.5,5.014,5.014,0,0,1-1.278-3.656c.226-1.66,1.607-2.468,2.177-1.982.585.473.6,1.484.513,2.348" transform="translate(-405.26 -1581.899)" fill="#256653"/>
            <path id="Trazado_115255" data-name="Trazado 115255" d="M251.513,1755.918a5.68,5.68,0,0,1,1.316-2.071,4.38,4.38,0,0,1,1.9-1.042,4.73,4.73,0,0,0-2.424-.1,4.636,4.636,0,0,0-2.983,1.981c-.76,1.35-.193,2.715.5,2.676.7-.022,1.271-.758,1.688-1.443" transform="translate(-224.968 -1583.659)" fill="#256653"/>
            <path id="Trazado_115256" data-name="Trazado 115256" d="M342.055,1787.965a5.68,5.68,0,0,1,1.316-2.071,4.381,4.381,0,0,1,1.9-1.042,4.731,4.731,0,0,0-2.424-.1,4.636,4.636,0,0,0-2.983,1.981c-.76,1.35-.193,2.715.5,2.676.7-.022,1.271-.758,1.689-1.443" transform="translate(-306.782 -1612.617)" fill="#256653"/>
            <path id="Trazado_115257" data-name="Trazado 115257" d="M191.055,1736.234a3.646,3.646,0,0,1,1.1-1.127,2.812,2.812,0,0,1,1.333-.4,3.034,3.034,0,0,0-1.509-.383,2.975,2.975,0,0,0-2.135.85c-.656.747-.48,1.679-.041,1.746s.9-.308,1.251-.683" transform="translate(-171.156 -1567.154)" fill="#256653"/>
            <path id="Trazado_115258" data-name="Trazado 115258" d="M201.764,1699.78a3.645,3.645,0,0,0,.348,1.536,2.811,2.811,0,0,0,.926,1.041,3.037,3.037,0,0,1-1.486-.463,2.975,2.975,0,0,1-1.375-1.841c-.168-.98.469-1.682.879-1.509s.6.733.709,1.237" transform="translate(-180.858 -1534.803)" fill="#256653"/>
            <path id="Trazado_115259" data-name="Trazado 115259" d="M589.381,544.193a67.43,67.43,0,1,1-67.43-67.43,67.43,67.43,0,0,1,67.43,67.43" transform="translate(-410.711 -430.81)" fill="#b75742"/>
            <path id="Trazado_115260" data-name="Trazado 115260" d="M639.123,599.875a61.491,61.491,0,1,1-61.491-61.491,61.491,61.491,0,0,1,61.491,61.491" transform="translate(-466.392 -486.491)" fill="#f47458"/>
            <path id="Trazado_115261" data-name="Trazado 115261" d="M721.052,691.586a51.708,51.708,0,1,1-51.708-51.708,51.708,51.708,0,0,1,51.708,51.708" transform="translate(-558.104 -578.203)" fill="#fcf5eb"/>
            <path id="Trazado_115262" data-name="Trazado 115262" d="M828.583,811.959a38.868,38.868,0,1,1-38.869-38.868,38.868,38.868,0,0,1,38.869,38.868" transform="translate(-678.475 -698.575)" fill="#f47458"/>
            <path id="Trazado_115263" data-name="Trazado 115263" d="M922.948,917.59a27.6,27.6,0,1,1-27.6-27.6,27.6,27.6,0,0,1,27.6,27.6" transform="translate(-784.107 -804.206)" fill="#fcf5eb"/>
            <path id="Trazado_115264" data-name="Trazado 115264" d="M1095.159,1110.363a7.038,7.038,0,1,1-7.038-7.038,7.038,7.038,0,0,1,7.038,7.038" transform="translate(-976.881 -996.98)" fill="#b75742"/>
            <path id="Trazado_115265" data-name="Trazado 115265" d="M1595.415,657.511l-.25-4.573,15.48-12.108-.809,6.621-15.17,11.866Z" transform="translate(-1440.962 -579.063)" fill="#184655"/>
            <path id="Trazado_115266" data-name="Trazado 115266" d="M1596.188,721.368l4.378,1.344,15.48-12.108-6.621-.809-15.17,11.866Z" transform="translate(-1440.59 -641.381)" fill="#12353d"/>
            <path id="Trazado_115267" data-name="Trazado 115267" d="M1146.566,848.989h0a1.034,1.034,0,0,0,1.452.177l43.613-34.112-1.275-1.63-43.612,34.112a1.035,1.035,0,0,0-.177,1.452" transform="translate(-1035.854 -735.022)" fill="#184655"/>
            <path id="Trazado_115268" data-name="Trazado 115268" d="M1791.234,484.121a.344.344,0,0,0,.214-.5c-.177-.288-.349-.579-.522-.869-.384-.641-.418-.654-.387-.727.074-.174.4-.095.521-.054a4.057,4.057,0,0,0,.782.282c.544.069.939-.346.7-.873-.221-.482-.472-.955-.724-1.425.583.119,1.163.255,1.747.366a.235.235,0,0,0,.266-.337l-.916-2.105c-.047-.108-.324-.584-.228-.675s.486.029.578.043c.507.074.687.093,2.341.295a.275.275,0,0,0,.245-.409c-1.156-1.614-.954-1.761-1.365-1.987a.13.13,0,0,0-.194.107c-.037.243-.029.3.407,1.073q.169.3.352.588c-2-.284-2.5-.4-2.774.047-.188.312-.1.4.948,2.784-.6-.157-1.215-.276-1.828-.408a.268.268,0,0,0-.3.384c.8,1.723.892,1.735.922,1.906,0,0,.106.029-.051.015-.266-.024-.756-.411-1.266-.352a.807.807,0,0,0-.774.907,5.687,5.687,0,0,0,.7,1.333,6.936,6.936,0,0,0-1.562.511,1.079,1.079,0,0,0-.505.41.287.287,0,0,0,.238.432c.594-.033.852-.493,2.447-.762" transform="translate(-1616.121 -429.332)" fill="#f7cc7f"/>
            <path id="Trazado_115269" data-name="Trazado 115269" d="M1872.541,581.285a8.6,8.6,0,0,1-.1-1.519c0-.1-.015-.286.086-.349.243-.151.607.267,1.542.472.406.089,1.237.308,1.415-.238a3.081,3.081,0,0,0,.031-.922c0-.22.007-.44.01-.66,1.518.428,1.432.517,1.776.367a.193.193,0,0,0,.083-.26c-.2-.312-.157-.223-2.066-.782a.3.3,0,0,0-.387.268c0,.3.08,1.646.063,1.813-.016-.011-.088,0-.1,0a4.934,4.934,0,0,1-1.742-.489c-.471-.195-1.111-.2-1.259.405a5.988,5.988,0,0,0,0,1.523c-.924-.3-1.847-.6-2.773-.888a.329.329,0,0,0-.427.295c.041.6.061,1.206.077,1.809a5.581,5.581,0,0,1-1.523-.778c-.343-.248-.78.233.129.8a5.4,5.4,0,0,0,1.633.73.332.332,0,0,0,.428-.3c0-.6-.024-1.2-.061-1.794.924.283,1.852.557,2.776.841a.306.306,0,0,0,.388-.35" transform="translate(-1686.899 -521.731)" fill="#f47458"/>
            <path id="Trazado_115270" data-name="Trazado 115270" d="M1886.167,686.709a.331.331,0,0,0,.294.333,7.281,7.281,0,0,0,2.542.087c.443-.076.285-.736-.149-.689a8.841,8.841,0,0,1-2.068.024,7.052,7.052,0,0,1,.207-1.508.34.34,0,0,0-.3-.434c-.548.015-2.621.135-2.64.158a.109.109,0,0,0,0-.055c-.04-.221.122-.97.1-1.312-.019-.384-.53-.524-.839-.554-.628-.06-1.323.393-1.935.149-.588-.234.074-1.156-.4-1.877-.365-.555-.994-.389-1.985-.2a.741.741,0,0,0-.6.335.169.169,0,0,0,.019.2c.3.277.656.152,1.563,0,.116-.019.31-.087.413,0,.342.284-.159,1.065.246,1.723a1.461,1.461,0,0,0,1.483.542c.42-.051.939-.3,1.365-.144-.023.365-.057.733-.052,1.1a.641.641,0,0,0,.609.708,10.681,10.681,0,0,0,1.346-.045c.3-.014.6-.026.892-.042a7.989,7.989,0,0,0-.116,1.5" transform="translate(-1697.327 -615.046)" fill="#3cb4c5"/>
            <path id="Trazado_115271" data-name="Trazado 115271" d="M1663,476.995c-2.371-1.945-3.58-.195-2.9.612a.66.66,0,0,0,1.074-.018c.12-.179-.057-.475-.28-.406-.185.058-.228-.152-.032-.233.264-.109.585.084.813.205.531.281,1.224.639,1.314,1.3.135.994-.876,2.046-2.374,1.466-2.16-.836-2.057-4.37.234-4.957a3.244,3.244,0,0,1,3.351,1.235c.149.2.416-.034.336-.235a3.238,3.238,0,0,0-4.028-1.586,3.291,3.291,0,0,0-2.039,3.662,3.136,3.136,0,0,0,3.3,2.786,2.156,2.156,0,0,0,1.226-3.837" transform="translate(-1498.584 -428.493)" fill="#3cb4c5"/>
            <path id="Trazado_115272" data-name="Trazado 115272" d="M1906.491,782.354c-.387-.27-1.185-.437-1.445.09a.438.438,0,0,0,.231.64c.279.091.538-.058.753.2a.586.586,0,0,1-.1.736c-.513.6-1.607.419-2.219.083a1.486,1.486,0,0,1-.093-2.592,3.341,3.341,0,0,1,1.081-.341c.2-.048.3-.372.087-.482a1.984,1.984,0,0,0-2.356.828,2.379,2.379,0,0,0-.017,2.562,3.059,3.059,0,0,0,2.594,1.258c2.025-.022,2.732-2.107,1.478-2.983" transform="translate(-1718.721 -705.308)" fill="#3c8f7c"/>
            <path id="Trazado_115273" data-name="Trazado 115273" d="M763.043,1404.418c-.086-.246,1.112-.445,1.175-.694s-1.512-.269-1.569-.487c-.1-.4,1.727-.085,1.691-.274s-1.908-.61-1.706-.933,1.9.639,1.947.42-1.655-.754-1.625-1.235c.016-.257,2.8,1.283,3.124,1.143s-.347-1.349-.09-1.528,1,2.457,1.173,2.545a40,40,0,0,0,5.278,2.576c.162-.448,2.08-3.224,2.223-3.648.751.534,1.522.608,2.3,1.1a26.834,26.834,0,0,1-3.531,5.491c-1.191.538-5.8-3.283-6.719-3.937s-1.447-.443-2.07-.649-1.514.361-1.6.115" transform="translate(-689.114 -1265.8)" fill="#f7a491"/>
            <path id="Trazado_115274" data-name="Trazado 115274" d="M917.063,1289.568a3.939,3.939,0,0,0-4.367-2.606,4.117,4.117,0,0,0-2.58-1.843c-2.06-.441-4.846.372-4.771,2.554-.8,1.465-.83,3.56.393,4.675-.425,1.97,1.42,3.876,3.819,3.806a4.241,4.241,0,0,0,4.01,2.075,9.605,9.605,0,0,1,1.055-.117c-.121-.022,2.542,2.019,4.8-1.12,2.3-3.2.685-7.082-2.358-7.424" transform="translate(-817.569 -1161.147)" fill="#184655"/>
            <path id="Trazado_115275" data-name="Trazado 115275" d="M871.113,1516.19a11.156,11.156,0,0,1-1.854,2.171,8.1,8.1,0,0,0-1.729,3.334c-.375,1.883-.063,11.189-.39,11.851-2.807,2.744-4.839,9.63-5.409,11.731a2.249,2.249,0,0,1-.649,1.066l.125,2.374L862.6,1550a7.115,7.115,0,0,1,.31-3.369s7.066-10.7,7.486-11.52c.8-2.329,3.72-14.265,3.72-14.265l.677-2.744-3.681-1.914" transform="translate(-778.086 -1370.05)" fill="#f7a491"/>
            <path id="Trazado_115276" data-name="Trazado 115276" d="M845.233,1829.424a8.436,8.436,0,0,1,.958,1.89c.076.53.546,1.733,1.065,1.808.118.017,2.14.166,2.125-.087-.011-.193-.743-.469-1.083-.7-.588-.406-1.5-3.71-1.5-3.71s-1.528.379-1.566.8" transform="translate(-763.764 -1652.367)" fill="#355389"/>
            <path id="Trazado_115277" data-name="Trazado 115277" d="M968.213,1210.473s2.957-5.319,3.677-6.449,2.594-5.623,2.661-5.8-1.291-2.3-.988-2.376.638,1.121.962.978,1.268-3.016,1.452-2.874c.345.267-.509,1.783-.325,1.878s.741-1.668,1.1-1.616-.686,1.616-.585,1.755,1.188-1.336,1.385-1.021c.107.171-1,1.287-.787,1.391s1.2-.616,1.3-.408-.91.492-1.214,1.052-.82.8-1.034,1.839-.535,4.79-1.634,6.662-3.516,6.016-3.516,6.016Z" transform="translate(-874.891 -1078.867)" fill="#f79c8d"/>
            <path id="Trazado_115278" data-name="Trazado 115278" d="M987.673,1539.629s4.551,9.732,4.58,11.443c.025,1.467-.8,9.7-.567,16.548.008.248.322.576.778.785.257.118,1.5.671,1.5.671l.17.443-4.269-.3-.061-1.165s-1.7-10.251-1.526-13.15c.027-.456.249-3.182.249-3.182l-5.133-9.91,3.228-4.242Z" transform="translate(-888.606 -1389.365)" fill="#f7a491"/>
            <path id="Trazado_115279" data-name="Trazado 115279" d="M919.573,1680.256s0,0,0,0h0" transform="translate(-830.939 -1518.303)" fill="#f47458"/>
            <path id="Trazado_115280" data-name="Trazado 115280" d="M891.192,1351.549a21.689,21.689,0,0,1,1.463-3.08s-1.342-1.706-2.432-1.577c0,0-1.464,2.428-2.3,2.51s-3.761.208-4.274.52a29.829,29.829,0,0,0-2.692,3.656s1.957,2,2.745,1.995a8.253,8.253,0,0,1,.585-1c.119.383,1.942,6.292,1.94,7.63l.014.011a3.83,3.83,0,0,0,5.507-.708,30.429,30.429,0,0,1-.067-3.541c.137-2.661.676-4.075-.492-6.412" transform="translate(-796.048 -1217.065)" fill="#3c8f7c"/>
            <path id="Trazado_115281" data-name="Trazado 115281" d="M930.962,1511.438l-8.933-12.906a8.771,8.771,0,0,1-1.661.531,17.219,17.219,0,0,1-3.861.165.935.935,0,0,1-.008.127c-.149,1.064-1.56,2.711-1.851,5.94a79,79,0,0,0-.019,10.449c5.939-.722,14.647-2.538,16.332-4.306" transform="translate(-826.326 -1354.094)" fill="#f7cc7f"/>
            <path id="Trazado_115282" data-name="Trazado 115282" d="M937.6,1342.4a13.511,13.511,0,0,1,.251,2.359c-.063.667.24,2.819,1.6,2.826s.258-2.735.13-3.389a26.049,26.049,0,0,1-.158-2.679Z" transform="translate(-847.23 -1212.212)" fill="#f7a491"/>
            <path id="Trazado_115283" data-name="Trazado 115283" d="M939.449,1342.532c-.021-.554-.028-1.016-.028-1.016l-1.819.882s.064.346.129.787a1.559,1.559,0,0,0,1.719-.653" transform="translate(-847.23 -1212.212)" fill="#f47458"/>
            <path id="Trazado_115284" data-name="Trazado 115284" d="M920.975,1300.126a2.324,2.324,0,0,0-.957,1.283c-.256.878.035,3.143,1.846,3.689s2.6-1.247,2.223-2.649-1.184-3.178-3.112-2.323" transform="translate(-831.268 -1174.61)" fill="#f7a491"/>
            <path id="Trazado_115285" data-name="Trazado 115285" d="M958.131,1313.915c-.035.377-.235.664-.446.643s-.353-.344-.317-.721.235-.664.446-.643.353.344.317.721" transform="translate(-865.086 -1186.62)" fill="#f7a491"/>
            <path id="Trazado_115286" data-name="Trazado 115286" d="M917.434,1332.143c.213.329.212.718,0,.867s-.559,0-.772-.325-.212-.717,0-.867.559,0,.772.325" transform="translate(-828.163 -1203.396)" fill="#f7a491"/>
            <path id="Trazado_115287" data-name="Trazado 115287" d="M1049.352,1855.98h5.392c.2-.018.248-.179.179-.278a6.569,6.569,0,0,0-1.479-.68,9.207,9.207,0,0,1-4.137-1,5.25,5.25,0,0,0,.044,1.96" transform="translate(-948.111 -1675.318)" fill="#355389"/>
            <path id="Trazado_115288" data-name="Trazado 115288" d="M940.282,1336.434l1.157-.341a.533.533,0,0,1-.4.62c-.615.2-.758-.28-.758-.28" transform="translate(-849.652 -1207.312)" fill="#fff"/>
          </g>
        </g>
      </g>
    </g>
  </g>
</svg>
