<svg xmlns="http://www.w3.org/2000/svg" xmlns:xlink="http://www.w3.org/1999/xlink" width="124" height="124" viewBox="0 0 124 124">
  <defs>
    <clipPath id="clip-path">
      <rect id="Rectángulo_46904" data-name="Rectángulo 46904" width="80.19" height="80.179" fill="#fff"/>
    </clipPath>
  </defs>
  <g id="Grupo_81231" data-name="Grupo 81231" transform="translate(-382.667 -2721)">
    <g id="Elipse_4725" data-name="Elipse 4725" transform="translate(382.667 2721)" fill="#12263f" stroke="#707070" stroke-width="1">
      <circle cx="62" cy="62" r="62" stroke="none"/>
      <circle cx="62" cy="62" r="61.5" fill="none"/>
    </g>
    <g id="Grupo_81130" data-name="Grupo 81130" transform="translate(403.982 2737.313)">
      <g id="Grupo_81129" data-name="Grupo 81129" clip-path="url(#clip-path)">
        <path id="Trazado_115188" data-name="Trazado 115188" d="M141.619,68.91A9.116,9.116,0,0,1,140,72.575c-2.592,3.257-7.989,3.483-10.582.226-2.5-3.139-4.767-6.464-7.113-9.724q-7.016-9.751-14.007-19.519c-.151-.211-.309-.416-.491-.66-1.242.488-2.446,1.058-3.709,1.431-1.469.434-2.917.776-2.97,2.712a7.167,7.167,0,0,1-9.92,3.642,7.933,7.933,0,0,1-2.494-2.3C85.062,43.327,81.49,38.217,77.9,33.118c-1.7-2.416-2.048-5.013-.475-7.556a7.013,7.013,0,0,1,6.873-3.63,1.708,1.708,0,0,0,1.756-.85A39.01,39.01,0,0,1,98.311,10.315a37.776,37.776,0,0,1,8.4-3.572.871.871,0,0,0,.532-.535c.68-3.558,3-5.389,6.377-6.122.046-.01.085-.057.127-.086h1.409a7.4,7.4,0,0,1,4.9,3.056q5.479,7.863,10.973,15.715a6.956,6.956,0,0,1,1.293,4.717c-.338,3.875-4.6,6.952-8.128,6.31a1.121,1.121,0,0,0-.9.195c-1.32,1.572-2.589,3.186-3.9,4.824.137.2.295.435.46.666q9.6,13.383,19.2,26.76a11.959,11.959,0,0,1,2.567,5.1ZM100.376,40.733l.208-.214a4.364,4.364,0,0,0,.6-.164c2.365-1.013,4.822-1.859,7.069-3.089a32.886,32.886,0,0,0,10.991-9.714.727.727,0,0,0,.023-1.015q-5.279-7.431-10.51-14.895a.684.684,0,0,0-.9-.322,34.87,34.87,0,0,0-18.323,12.94.638.638,0,0,0-.022.888q5.313,7.5,10.6,15.023a3.3,3.3,0,0,1,.258.563m27.372-18a6.909,6.909,0,0,0-.532-1.183Q121.727,13.64,116.2,5.759c-.881-1.255-1.942-1.354-3.309-.4a2.177,2.177,0,0,0-.59,3.153q5.526,7.879,11.092,15.73a2.034,2.034,0,0,0,2.4.818,2.888,2.888,0,0,0,1.948-2.334m-33.084,24.1a2.768,2.768,0,0,0,1.983-1.364,2.021,2.021,0,0,0-.22-2.4c-.961-1.331-1.9-2.678-2.845-4.019q-4.01-5.684-8.023-11.367c-.945-1.332-2-1.459-3.415-.464-1.134.8-1.282,1.939-.408,3.189.687.982,1.382,1.959,2.073,2.938Q88.156,39.5,92.5,45.673a2.369,2.369,0,0,0,2.166,1.16m17.309-6.209L120.2,52.1l3.838-2.71-8.235-11.478-3.834,2.711m20.286,20.222-3.85,2.723c1.505,2.071,2.906,4.083,4.4,6.021a2.2,2.2,0,0,0,3.147.377,2.242,2.242,0,0,0,.568-3.128c-1.367-2-2.806-3.95-4.267-5.993m-6.578-1.109,3.838-2.712-2.74-3.814-3.835,2.713,2.737,3.813" transform="translate(-61.429)" fill="#fff"/>
        <path id="Trazado_115189" data-name="Trazado 115189" d="M9.4,297.691c0-2.165,0-4.247,0-6.328,0-2.268.794-3.069,3.045-3.069H48.853c2.158,0,2.989.826,2.989,2.968,0,2.109,0,4.219,0,6.374,1.059.049,2.068.065,3.071.149a6.991,6.991,0,0,1,6.318,6.972c.032,1.591.025,3.184,0,4.776a2.324,2.324,0,0,1-2.375,2.386c-.208.009-.417,0-.626,0H3.032c-2.23,0-3.028-.79-3.028-3,0-1.3-.01-2.61,0-3.915a7.1,7.1,0,0,1,7.235-7.318c.678-.014,1.356,0,2.16,0m47.141,9.521c0-.672,0-1.269,0-1.865,0-2.146-.833-2.977-2.978-2.977H7.77c-.261,0-.522-.006-.783.007a2.268,2.268,0,0,0-2.222,1.945,25.611,25.611,0,0,0-.022,2.89Zm-42.409-9.58H47.083v-4.615H14.132Z" transform="translate(0 -231.745)" fill="#fff"/>
      </g>
    </g>
  </g>
</svg>
