<svg xmlns="http://www.w3.org/2000/svg" xmlns:xlink="http://www.w3.org/1999/xlink" width="234.653" height="213" viewBox="0 0 234.653 213">
  <defs>
    <clipPath id="clip-path">
      <rect id="Rectángulo_46953" data-name="Rectángulo 46953" width="234.653" height="162.173" transform="translate(0 0)" fill="none"/>
    </clipPath>
  </defs>
  <g id="Grupo_81238" data-name="Grupo 81238" transform="translate(-682.341 -5434.863)">
    <g id="Elipse_4731" data-name="Elipse 4731" transform="translate(696.667 5434.863)" fill="#f6f6f6" stroke="#707070" stroke-width="1">
      <circle cx="106.5" cy="106.5" r="106.5" stroke="none"/>
      <circle cx="106.5" cy="106.5" r="106" fill="none"/>
    </g>
    <g id="Grupo_81226" data-name="Grupo 81226" transform="translate(682.341 5457.081)">
      <g id="Grupo_81225" data-name="Grupo 81225" transform="translate(0 0.002)" clip-path="url(#clip-path)">
        <path id="Trazado_115290" data-name="Trazado 115290" d="M143.735,542s-33-16.269-38.67-24.754,2.667-8.966,2.667-8.966S93.008,493.96,95.08,487.931s9.7-.5,9.7-.5-9.468-21.076-5-23.194c8.315-3.946,19.98,18.73,19.98,18.73s-2.507-9.851,3.219-9.531c8.635.483,8.278,22.766,8.278,22.766s.975-8.544,6.18-5.769c9.338,4.98,6.3,51.566,6.3,51.566" transform="translate(-83.893 -410.073)" fill="#3c8f7c"/>
        <path id="Trazado_115291" data-name="Trazado 115291" d="M176.69,486.987c-4.064-2.255-8.112,4.337-8.112,4.337s.41-17.4-8.225-17.887c-5.726-.32-3.219,9.531-3.219,9.531s-11.665-22.676-19.979-18.73l44,77.4c.311-5.405,3.589-50.183-4.462-54.651" transform="translate(-121.273 -410.073)" fill="#50bfa5"/>
        <path id="Trazado_115292" data-name="Trazado 115292" d="M58.989,875.976S32,879.327,25.017,876.34s-1.98-6.676-1.98-6.676-15-2.949-16.161-7.551,5.763-4.235,5.763-4.235S-1.746,848.562.177,845.427c3.583-5.84,20.073,3.564,20.073,3.564s-5.566-5.125-1.865-7.253c5.582-3.208,14.414,10.836,14.414,10.836s-.549-3.461,3.825-3.845c7.848-.688,22.365,27.247,22.365,27.247" transform="translate(0 -743.846)" fill="#3c8f7c"/>
        <path id="Trazado_115293" data-name="Trazado 115293" d="M38.153,826.837c-4.374.384-4,6.36-4,6.36s-8.992-16.647-14.574-13.44c-3.7,2.127.678,9.113.678,9.113s-15.143-8.66-18.726-2.82l58.894,30.4c-2-3.5-14.939-30.256-22.27-29.612" transform="translate(-1.352 -724.47)" fill="#50bfa5"/>
        <path id="Trazado_115294" data-name="Trazado 115294" d="M1728.414,750.068l1.45-3.5a4.947,4.947,0,0,1,6.427-2.748c6.112,2.668,8.769,10.094,5.935,16.586l-2.072,4.747a5.959,5.959,0,0,0,.633,5.98,5.264,5.264,0,0,1,.522,5.268l-1.092,2.5a9.95,9.95,0,0,1-6.213,5.543,6.036,6.036,0,0,0-3.751,3.39l-1.547,3.543a7.522,7.522,0,0,1-9.773,4.178l-2.1-.918a7.523,7.523,0,0,1-3.581-10.008c2.765-4.684,2.545-8.18,1.565-10.551a14.185,14.185,0,0,1,.135-11.068l.219-.5a14.085,14.085,0,0,1,8.6-7.787c1.67-.532,3.411-1.831,4.643-4.654" transform="translate(-1514.252 -657.35)" fill="#50bfa5"/>
        <path id="Trazado_115296" data-name="Trazado 115296" d="M1735,457.636a67.752,67.752,0,0,1-6.282,7.107c-2.328,2-4.547,3.92-7.514,10.292s-2.882,7.1-3.671,8.743-4.929,8.068-5.242,9.35-7.075,7.425-9.167,10.549-5.526,7.483-5.976,10l.611-.012a27.518,27.518,0,0,1,7.185-10.64c5.365-4.94,5.05-6.182,10.293-8.141s10.114-9.608,10.114-9.608,6.724-7.974,7.6-12.728,3.092-8.711,2.047-14.916" transform="translate(-1500.624 -404.643)" fill="#256653"/>
        <path id="Trazado_115297" data-name="Trazado 115297" d="M1723.192,369.39a17.292,17.292,0,0,1-2.755,5.667c-1.729,1.948-3.087,3.06-3.868,5.422s-2.988,8.4-7.071,10.657-6.63,11.25-9.84,13.4-4.006,4.055-4.629,8.886-.532,11.748-6.247,19.421l-.349-2.32s4.3-6.405,4.612-10.669-.491-11,1.025-13.792-1.407-4.083,1.483-8.164,2.5-5.823,5.911-9.139c0,0,.3-.123,1.726-3.268s8.145-7.955,11.073-9.448,7.226-3.979,8.928-6.658" transform="translate(-1492.917 -326.616)" fill="#256653"/>
        <path id="Trazado_115298" data-name="Trazado 115298" d="M1708.37,509.867s-4.1,4.338-4.893,7.56-1.054,5.931-3.567,10.011-.218,7.562-1.635,9.808a23.569,23.569,0,0,0-2.639,7.322c-.484,2.2-5.557,8.672-6.927,12.227s-.714,3.721-.714,3.721,1.689-4.722,2.841-6.146a83.654,83.654,0,0,0,5.857-8.417c1.051-2.012,2.87-3.037,5.006-6.361s4.685-5.949,5.741-11.126,4.388-10.124.93-18.6" transform="translate(-1492.39 -450.826)" fill="#3c8f7c"/>
        <path id="Trazado_115299" data-name="Trazado 115299" d="M1709.333,781.445s2.849-6.053,8.763-5.349,9.036,2.632,14.192-1.075,9.24-10.544,10.836-11.513c0,0-1.8-1.529-5.944.861s-7.094,4.247-9.494,5.641-3.719-.186-6.083.552c-1.981.618-4.923,3.051-6.276,4.37a7.189,7.189,0,0,1-1.462,1.1c-.485.276-1.066.617-1.449.879a38.9,38.9,0,0,0-3.535,4.45Z" transform="translate(-1510.998 -674.67)" fill="#3c8f7c"/>
        <path id="Trazado_115300" data-name="Trazado 115300" d="M1644.862,638.926s3.844-7.319,3.37-11.448-4.079-7.942-3.351-10.3,4.969-8.193,3.86-13.531c0,0-1.847,4.1-2.906,4.864s-7.693,3.284-7.86,8.614,5.134,7.818,6.159,9.637,2.88,2.248,2.66,3.248a39.544,39.544,0,0,1-2.149,8.143Z" transform="translate(-1448.298 -533.748)" fill="#3c8f7c"/>
        <path id="Trazado_115301" data-name="Trazado 115301" d="M1692.393,551.306l4.767-7.56s3.215-6.224,5.47-11.514,5.743-22.366,5.743-22.366-4.1,4.338-4.893,7.56-1.054,5.931-3.567,10.011-.219,7.562-1.635,9.808a23.576,23.576,0,0,0-2.639,7.322c-.484,2.2-5.557,8.672-6.927,12.227a9.347,9.347,0,0,0-.868,3.32c.29-3.321,4.549-8.809,4.549-8.809" transform="translate(-1492.393 -450.826)" fill="#327f6b"/>
        <path id="Trazado_115302" data-name="Trazado 115302" d="M1726.2,777.2c-2.665-.084-4.9-.787-8.448.76a25.972,25.972,0,0,0-5.883,3.537s-1.924,2.113-2.783,3.262l-.2.282.451.081s2.849-6.053,8.763-5.349,9.036,2.632,14.192-1.075,9.24-10.544,10.836-11.513a66.971,66.971,0,0,0-8.487,4.723c-3.371,2.361-5.774,5.374-8.439,5.291" transform="translate(-1510.998 -678.348)" fill="#327f6b"/>
        <path id="Trazado_115303" data-name="Trazado 115303" d="M1645.834,608.513c-1.059.762-7.693,3.284-7.861,8.614s5.134,7.818,6.159,9.637,2.88,2.248,2.66,3.248a39.529,39.529,0,0,1-2.149,8.143l.095.337a46.843,46.843,0,0,0,2.05-4.938,10.78,10.78,0,0,0,.31-6.074c-.349-2.32-4.579-7.863-5.362-10.443s3.943-5.488,5.223-7.125,1.781-6.264,1.781-6.264-1.847,4.1-2.906,4.864" transform="translate(-1448.297 -533.748)" fill="#327f6b"/>
        <path id="Trazado_115305" data-name="Trazado 115305" d="M145.764,1041.98A225.824,225.824,0,0,0,99.92,995.53c-.181-.137-.425.178-.243.318a225.586,225.586,0,0,1,45.135,46.387Z" transform="translate(-88.078 -880.22)" fill="#256653"/>
        <path id="Trazado_115306" data-name="Trazado 115306" d="M162.324,1098.7a7.968,7.968,0,0,1,2.95-1.775,6.147,6.147,0,0,1,3.043-.115,6.638,6.638,0,0,0-2.979-1.644c-1.766-.516-4.192-.083-4.985.618-1.8,1.218-1.944,3.287-1.052,3.671.886.408,2.07-.155,3.024-.754" transform="translate(-140.381 -968.149)" fill="#256653"/>
        <path id="Trazado_115307" data-name="Trazado 115307" d="M98.661,1042.615a7.968,7.968,0,0,1,2.95-1.776,6.145,6.145,0,0,1,3.043-.115,6.633,6.633,0,0,0-2.979-1.644c-1.766-.516-4.192-.083-4.985.618-1.8,1.218-1.944,3.287-1.052,3.671.886.408,2.071-.155,3.024-.754" transform="translate(-84.09 -918.558)" fill="#256653"/>
        <path id="Trazado_115308" data-name="Trazado 115308" d="M263.483,1076.394a5.669,5.669,0,0,0-2.428,1.851,4.329,4.329,0,0,0-.681,2.595,7.176,7.176,0,0,1-1.2-3.243c-.223-1.738.683-3.671,1.573-4.08,1.625-1.075,3.849-.373,4.092.554.271.933-.546,1.735-1.357,2.323" transform="translate(-229.133 -948.727)" fill="#256653"/>
        <path id="Trazado_115309" data-name="Trazado 115309" d="M240.542,824.253A180.715,180.715,0,0,1,264.6,881.845l.768-.206A181.863,181.863,0,0,0,241.4,824.532c-2.6-4.063-5.407-8.882-10.275-10.467-.094-.031-.129.112-.04.146,4.446,1.675,7.021,6.242,9.454,10.041" transform="translate(-204.283 -719.795)" fill="#256653"/>
        <path id="Trazado_115310" data-name="Trazado 115310" d="M275.747,781.231a7.97,7.97,0,0,0-1.717,2.984,6.148,6.148,0,0,0-.055,3.045,6.638,6.638,0,0,1-1.7-2.946c-.55-1.755-.165-4.19.519-5,1.182-1.823,3.248-2.008,3.649-1.124.426.878-.114,2.073-.694,3.038" transform="translate(-240.513 -687.627)" fill="#256653"/>
        <path id="Trazado_115311" data-name="Trazado 115311" d="M253.961,914.53a7.968,7.968,0,0,1,2.95-1.776,6.15,6.15,0,0,1,3.043-.115A6.637,6.637,0,0,0,256.974,911c-1.766-.516-4.192-.082-4.985.618-1.8,1.218-1.944,3.287-1.052,3.671.886.408,2.071-.155,3.024-.754" transform="translate(-221.407 -805.304)" fill="#256653"/>
        <path id="Trazado_115312" data-name="Trazado 115312" d="M288.9,973.651a7.966,7.966,0,0,1,2.95-1.775,6.145,6.145,0,0,1,3.043-.115,6.633,6.633,0,0,0-2.979-1.644c-1.766-.516-4.192-.082-4.985.618-1.8,1.218-1.944,3.287-1.052,3.671.886.408,2.07-.155,3.024-.754" transform="translate(-252.296 -857.58)" fill="#256653"/>
        <path id="Trazado_115313" data-name="Trazado 115313" d="M322.836,847.873a7.968,7.968,0,0,0-2.166,2.676,6.148,6.148,0,0,0-.534,3,6.637,6.637,0,0,1-1.217-3.178c-.267-1.82.5-4.164,1.3-4.852,1.455-1.614,3.524-1.471,3.781-.535.282.934-.44,2.029-1.165,2.891" transform="translate(-281.941 -746.521)" fill="#256653"/>
        <path id="Trazado_115314" data-name="Trazado 115314" d="M363.432,909.7c-.5.266-2.25.747-3.129,2.056a5.311,5.311,0,0,0-1.056,3.116,8.8,8.8,0,0,1-1.189-4.07c-.124-2.146,1.15-4.433,2.274-4.856,2.08-1.176,4.741-.127,4.959,1.028.251,1.164-.816,2.076-1.859,2.726" transform="translate(-316.588 -800.583)" fill="#256653"/>
        <path id="Trazado_115315" data-name="Trazado 115315" d="M415.938,1009.844c-.538.178-2.343.358-3.43,1.5a5.31,5.31,0,0,0-1.565,2.894,8.8,8.8,0,0,1-.487-4.212c.239-2.136,1.88-4.176,3.058-4.4,2.248-.81,4.694.672,4.715,1.848.052,1.19-1.153,1.909-2.291,2.374" transform="translate(-362.834 -888.969)" fill="#256653"/>
        <path id="Trazado_115316" data-name="Trazado 115316" d="M199.115,814.621a4.731,4.731,0,0,1,1.667-1.179,3.649,3.649,0,0,1,1.795-.2,3.937,3.937,0,0,0-1.834-.842,3.857,3.857,0,0,0-2.922.584c-1.011.8-1.006,2.029-.462,2.218s1.218-.182,1.756-.579" transform="translate(-174.183 -718.263)" fill="#256653"/>
        <path id="Trazado_115317" data-name="Trazado 115317" d="M218.7,775.106a4.727,4.727,0,0,0,.084,2.041,3.645,3.645,0,0,0,.937,1.544,3.936,3.936,0,0,1-1.787-.939,3.859,3.859,0,0,1-1.322-2.671c.016-1.289.993-2.036,1.474-1.719s.6,1.076.614,1.744" transform="translate(-191.519 -683.745)" fill="#256653"/>
        <path id="Trazado_115318" data-name="Trazado 115318" d="M63.786,996.7a4.726,4.726,0,0,1,1.667-1.179,3.642,3.642,0,0,1,1.795-.2,3.935,3.935,0,0,0-1.834-.842,3.858,3.858,0,0,0-2.922.583c-1.011.8-1.006,2.03-.462,2.217s1.218-.182,1.756-.578" transform="translate(-54.525 -879.255)" fill="#256653"/>
        <path id="Trazado_115319" data-name="Trazado 115319" d="M87.323,956.3a4.729,4.729,0,0,0-.084,2.041,3.643,3.643,0,0,0,.807,1.616,3.935,3.935,0,0,1-1.7-1.082,3.858,3.858,0,0,1-1.1-2.77c.121-1.283,1.157-1.948,1.61-1.593s.509,1.121.469,1.788" transform="translate(-75.351 -843.897)" fill="#256653"/>
        <path id="Trazado_115320" data-name="Trazado 115320" d="M123.889,1260.293c11.442,1.254,22.1,6.3,32.356,11.23,6.918,3.321,6.569,4.267,7.978,4.762a.283.283,0,0,0,.345-.388c-.542-1.073-1.963-1.8-2.952-2.418a38.373,38.373,0,0,0-3.574-1.947c-2.611-1.268-5.29-2.409-7.952-3.565a115.341,115.341,0,0,0-16.637-6.063,58.441,58.441,0,0,0-9.557-1.7.047.047,0,0,0-.008.093" transform="translate(-109.506 -1114.272)" fill="#256653"/>
        <path id="Trazado_115321" data-name="Trazado 115321" d="M179.691,1206.273a7.38,7.38,0,0,0-.262,3.178,5.7,5.7,0,0,0,1.155,2.573,6.144,6.144,0,0,1-2.589-1.8,6.024,6.024,0,0,1-1.536-4.393c.272-1.995,1.93-2.965,2.615-2.382.7.568.722,1.783.617,2.821" transform="translate(-155.976 -1063.947)" fill="#256653"/>
        <path id="Trazado_115322" data-name="Trazado 115322" d="M266.736,1237.439a7.382,7.382,0,0,0-.262,3.179,5.693,5.693,0,0,0,1.155,2.573,6.144,6.144,0,0,1-2.59-1.8A6.024,6.024,0,0,1,263.5,1237c.272-1.995,1.93-2.965,2.615-2.382.7.568.722,1.783.617,2.82" transform="translate(-232.942 -1091.505)" fill="#256653"/>
        <path id="Trazado_115323" data-name="Trazado 115323" d="M355.182,1276.863a7.384,7.384,0,0,0-.262,3.179,5.69,5.69,0,0,0,1.155,2.573,6.144,6.144,0,0,1-2.589-1.8,6.025,6.025,0,0,1-1.536-4.393c.272-1.995,1.93-2.965,2.615-2.382.7.568.722,1.782.617,2.82" transform="translate(-311.146 -1126.364)" fill="#256653"/>
        <path id="Trazado_115324" data-name="Trazado 115324" d="M155.433,1279.828a6.823,6.823,0,0,1,1.581-2.488,5.264,5.264,0,0,1,2.288-1.252,5.686,5.686,0,0,0-2.912-.12,5.57,5.57,0,0,0-3.583,2.38c-.913,1.622-.232,3.262.6,3.215.835-.026,1.527-.911,2.029-1.734" transform="translate(-134.727 -1128.086)" fill="#256653"/>
        <path id="Trazado_115325" data-name="Trazado 115325" d="M245.974,1311.874a6.823,6.823,0,0,1,1.581-2.488,5.266,5.266,0,0,1,2.288-1.252,5.684,5.684,0,0,0-2.912-.12,5.569,5.569,0,0,0-3.583,2.38c-.913,1.621-.232,3.262.6,3.215.835-.026,1.527-.911,2.029-1.734" transform="translate(-214.783 -1156.421)" fill="#256653"/>
        <path id="Trazado_115326" data-name="Trazado 115326" d="M94.791,1259.858a4.379,4.379,0,0,1,1.322-1.354,3.381,3.381,0,0,1,1.6-.484,3.649,3.649,0,0,0-1.812-.46,3.574,3.574,0,0,0-2.565,1.021c-.788.9-.577,2.017-.049,2.1s1.079-.37,1.5-.821" transform="translate(-82.069 -1111.935)" fill="#256653"/>
        <path id="Trazado_115327" data-name="Trazado 115327" d="M105.5,1223.273a4.378,4.378,0,0,0,.418,1.845,3.376,3.376,0,0,0,1.112,1.25,3.647,3.647,0,0,1-1.785-.556,3.573,3.573,0,0,1-1.651-2.212c-.2-1.177.564-2.021,1.055-1.813s.726.88.851,1.486" transform="translate(-91.564 -1080.28)" fill="#256653"/>
        <path id="Trazado_115328" data-name="Trazado 115328" d="M519.945,81.012A81.01,81.01,0,1,1,438.935,0a81.01,81.01,0,0,1,81.01,81.01" transform="translate(-316.478 -0.002)" fill="#a5d20e"/>
        <path id="Trazado_115329" data-name="Trazado 115329" d="M567.3,135.5a73.874,73.874,0,1,1-73.875-73.875A73.874,73.874,0,0,1,567.3,135.5" transform="translate(-370.965 -54.487)" fill="#a5d20e"/>
        <path id="Trazado_115330" data-name="Trazado 115330" d="M645.285,225.239a62.122,62.122,0,1,1-62.122-62.122,62.122,62.122,0,0,1,62.122,62.122" transform="translate(-460.707 -144.229)" fill="#fcf5eb"/>
        <path id="Trazado_115331" data-name="Trazado 115331" d="M747.644,343.025a46.7,46.7,0,1,1-46.7-46.7,46.7,46.7,0,0,1,46.7,46.7" transform="translate(-578.491 -262.015)" fill="#a5d20e"/>
        <path id="Trazado_115332" data-name="Trazado 115332" d="M837.471,446.388a33.16,33.16,0,1,1-33.16-33.16,33.16,33.16,0,0,1,33.16,33.16" transform="translate(-681.854 -365.377)" fill="#fcf5eb"/>
        <path id="Trazado_115333" data-name="Trazado 115333" d="M1001.4,635.02a8.456,8.456,0,1,1-8.456-8.456,8.456,8.456,0,0,1,8.456,8.456" transform="translate(-870.487 -554.01)" fill="#a5d20e"/>
        <path id="Trazado_115334" data-name="Trazado 115334" d="M1498.972,184.109l-.3-5.494,18.6-14.546-.972,7.954-18.225,14.255Z" transform="translate(-1324.598 -145.071)" fill="#184655"/>
        <path id="Trazado_115335" data-name="Trazado 115335" d="M1499.984,246.938l5.26,1.615,18.6-14.546-7.954-.972-18.225,14.255Z" transform="translate(-1324.236 -206.05)" fill="#12353d"/>
        <path id="Trazado_115336" data-name="Trazado 115336" d="M1050.016,379.391h0a1.243,1.243,0,0,0,1.745.213l52.4-40.982-1.531-1.958-52.4,40.982a1.243,1.243,0,0,0-.213,1.745" transform="translate(-928.193 -297.679)" fill="#184655"/>
        <path id="Trazado_115337" data-name="Trazado 115337" d="M1727.16,829.78c0,.525.2.951.438.951s.438-.426.438-.951-.2-.951-.438-.951-.438.426-.438.951" transform="translate(-1527.159 -732.853)" fill="#f7a491"/>
        <path id="Trazado_115338" data-name="Trazado 115338" d="M1663.037,1342.536a27.123,27.123,0,0,0,.138-3.527h2.867c-.3,2.055-.532,3.654-.532,3.654l.071.65,0,1.918h-6.272a28.256,28.256,0,0,0,3.194-1.775,1.282,1.282,0,0,0,.532-.919" transform="translate(-1467.167 -1183.956)" fill="#f7a491"/>
        <path id="Trazado_115339" data-name="Trazado 115339" d="M1790.717,1347.072l-.833-2.389h2.183c.114,1.533.156,2.568.156,2.568l.555,1.571.564,1.866a4.923,4.923,0,0,1-2.831-.059l.108-1.858Z" transform="translate(-1582.62 -1188.972)" fill="#f7a491"/>
        <path id="Trazado_115340" data-name="Trazado 115340" d="M1691.966,886.234c.757-1.035,3.88-4.032,4.227-4.026,1.011.018,4.331.019,4.98.349l-.031,5.706c-.106.479-2.4,7.939-2.264,9.572l-.016.015a4.592,4.592,0,0,1-6.707-.323,37.746,37.746,0,0,0-.263-4.327c-.424-3.234-1.806-4.4.074-6.966" transform="translate(-1495.19 -780.051)" fill="#f7cc7f"/>
        <path id="Trazado_115341" data-name="Trazado 115341" d="M1726.79,848.7a16.75,16.75,0,0,0,.1,2.9c.189.8.441.858-1.182,1.1-.637.1-1.252.238-1.252.238s.167-1.172.192-1.667c.042-.815-.187-3.331-.187-3.331Z" transform="translate(-1524.769 -749.756)" fill="#f7a491"/>
        <path id="Trazado_115342" data-name="Trazado 115342" d="M1725.583,849.749a2.9,2.9,0,0,1-.934.331c-.055-.994-.159-2.134-.159-2.134l2.222.721a2.919,2.919,0,0,1-1.129,1.082" transform="translate(-1524.799 -749.756)" fill="#f47458"/>
        <path id="Trazado_115343" data-name="Trazado 115343" d="M1795.4,1379.917a3.108,3.108,0,0,0,2.15.03l.123.332.472,1.575a5.044,5.044,0,0,1-2.854-.071Z" transform="translate(-1587.405 -1220.126)" fill="#e25a44"/>
        <path id="Trazado_115344" data-name="Trazado 115344" d="M1662.322,1378.543H1655.8c-.241-.021-.3-.219-.216-.34a7.912,7.912,0,0,1,1.788-.832,10.457,10.457,0,0,0,4.884-1.225,7.332,7.332,0,0,1,.065,2.4" transform="translate(-1463.841 -1216.791)" fill="#e25a44"/>
        <path id="Trazado_115345" data-name="Trazado 115345" d="M1718.3,1017.265l3.821,27.185,3.48,12.535h3.786s-.879-10.1-2.762-13.676c0,0-.823-9.587-1.646-15.449-.123-.876.486-3.151.327-3.739a54.211,54.211,0,0,0-2.3-6.965Z" transform="translate(-1519.327 -899.372)" fill="#355389"/>
        <path id="Trazado_115346" data-name="Trazado 115346" d="M1683.825,1026.671l-.884,10.443s.9,5.968.283,9.928-1.443,7.595-1.443,7.595h-3.48l-.692-19.721s-1.337-10.716-.874-13.622a25.28,25.28,0,0,1,2.716-6.794l5.475.25s1.485,5.319,1.234,7.1c-.186,1.325-2.335,4.816-2.335,4.816" transform="translate(-1482.488 -897.024)" fill="#466eb6"/>
        <path id="Trazado_115347" data-name="Trazado 115347" d="M1724.255,817.7c4.137-1.242,3.03-4.889,3.006-4.751.012-.113.4-.572.595-.964a3.5,3.5,0,0,0-1.471-4.286,3.867,3.867,0,0,0-1.511-4.906,6.09,6.09,0,0,1-1.926-1.707,5.912,5.912,0,0,0-5.746-2.57c-2.484.635.842,2.074.512,4.464-.167,1.211.313,1.038,1.061,2.011a5.8,5.8,0,0,0,1.2,6.512c-.81,3.411.06,7.464,4.282,6.2" transform="translate(-1517.534 -705.968)" fill="#184655"/>
        <path id="Trazado_115348" data-name="Trazado 115348" d="M1708.749,801.487c.489,2.016-2.156,3.479-4.251,3.533-1.361.035-1.987-.1-2.207-1.54-.357-2.327.6-3.746,1.945-4.333a3.638,3.638,0,0,1,4.514,2.339" transform="translate(-1505.103 -706.424)" fill="#184655"/>
        <path id="Trazado_115349" data-name="Trazado 115349" d="M1707.4,808.529a2.753,2.753,0,0,1,1.412,1.24c.491.93.247,3.908-1.8,4.89s-2.981-1.248-2.833-2.893.739-3.8,3.217-3.236" transform="translate(-1506.826 -714.823)" fill="#f7a491"/>
        <path id="Trazado_115350" data-name="Trazado 115350" d="M1709.986,848.641l-1.449-.022a.64.64,0,0,0,.662.589c.777.035.787-.567.787-.567" transform="translate(-1510.693 -750.351)" fill="#fff"/>
        <path id="Trazado_115351" data-name="Trazado 115351" d="M1718.945,809.319c.3-1.539.184-2.705-.909-3.268s-2.028-1.121-3.006-.109l-.221.125s1.846.51,1.949,1.491,1.085,2.146.933,2.628-.325,1.442-.325,1.442l.4-.333a2.72,2.72,0,0,0,1.176-1.975" transform="translate(-1516.238 -712.12)" fill="#184655"/>
        <path id="Trazado_115352" data-name="Trazado 115352" d="M1733.584,829.665c-.152.425-.037.852.257.953s.657-.161.81-.586.037-.852-.258-.953-.657.161-.81.586" transform="translate(-1532.78 -733.055)" fill="#f7a491"/>
        <path id="Trazado_115353" data-name="Trazado 115353" d="M343.705,139.2h18.806l-4.488,28.553h1.94L385.276,6.715h-1.94l-.381,2.426H364.11l.381-2.426h-1.94L337.213,167.754h1.94ZM375.967,53.6l-3.1,19.751H354.037l3.1-19.751Zm-18.572-1.651,3.1-19.751h18.838l-3.1,19.751ZM372.6,75l-3.1,19.751H350.68L353.778,75Zm-3.364,21.4-3.1,19.751H347.322l3.1-19.751ZM382.7,10.792l-3.1,19.751H360.753l3.1-19.751ZM343.964,137.55l3.1-19.751h18.812l-3.1,19.751Z" transform="translate(-298.165 -5.938)" fill="#f7cc7f"/>
        <path id="Trazado_115354" data-name="Trazado 115354" d="M1411.052,962.17a2.011,2.011,0,0,1-.212.515,19.522,19.522,0,0,1-2.03,2.7l-1.1-2.472s.179-.776.489-1.886a6.348,6.348,0,0,1,2.85,1.143" transform="translate(-1244.702 -849.743)" fill="#f8a492"/>
        <path id="Trazado_115355" data-name="Trazado 115355" d="M1382.219,886.369s6.121,2.636,6.319,2.586a16.266,16.266,0,0,0,2.536-7.773c.012-1.733-1.788-3.817-3.8-3.4-1.011.208-.995.489-2.49,2.661a25.043,25.043,0,0,0-2.569,5.93" transform="translate(-1222.162 -776.086)" fill="#466eb6"/>
        <path id="Trazado_115356" data-name="Trazado 115356" d="M1309.665,1360.482s.145,2.4.146,2.409a13.136,13.136,0,0,1,.264,1.337c0,1.042-4.949-.885-3.84-1.347.1-.042.626-.358.659-.713.051-.547.18-1.653.18-1.653Z" transform="translate(-1154.833 -1202.942)" fill="#f7a491"/>
        <path id="Trazado_115357" data-name="Trazado 115357" d="M1276.223,1380.785s1.162.319,1.757.4,1.38-.591,1.8-.41c.463.2.445,2,.445,2s-6.232.511-7.984-.018c-.694-.209,1.6-1.224,3.981-1.966" transform="translate(-1124.809 -1220.856)" fill="#3c8f7c"/>
        <path id="Trazado_115358" data-name="Trazado 115358" d="M1397.1,1360.482s.145,2.4.146,2.409a13.171,13.171,0,0,1,.264,1.337c0,1.042-4.95-.885-3.84-1.347.1-.042.782-.594.816-.949.051-.547.024-1.417.024-1.417Z" transform="translate(-1232.144 -1202.942)" fill="#f7a491"/>
        <path id="Trazado_115359" data-name="Trazado 115359" d="M1363.682,1380.785s1.162.319,1.757.4,1.38-.591,1.8-.41c.463.2.482,2,.482,2s-6.26.6-8.021-.018c-.683-.238,1.6-1.224,3.981-1.966" transform="translate(-1202.143 -1220.856)" fill="#3c8f7c"/>
        <path id="Trazado_115360" data-name="Trazado 115360" d="M1394.665,842.721l.561,3.549s-2.138,1.717-3.384,1.355c-1.046-.3-.329-1.671-.329-1.671a8.878,8.878,0,0,0,.386-2.887c-.171-.993,2.766-.345,2.766-.345" transform="translate(-1230.167 -744.953)" fill="#f7a491"/>
        <path id="Trazado_115361" data-name="Trazado 115361" d="M1398.608,843.8a8.735,8.735,0,0,1-2.42.682,4.7,4.7,0,0,0,.057-1.41c-.079-.458.5-.567,1.155-.551.852.073,1.611.206,1.611.206l.108.682a1.755,1.755,0,0,1-.511.391" transform="translate(-1234.513 -744.956)" fill="#fe875e"/>
        <path id="Trazado_115362" data-name="Trazado 115362" d="M1395.249,794.393c.088,0-.845,3.965-2.29,4.647s-3.6.327-4-.741c-.447-1.181,1.184-5.226,3.216-5.74s3.078,1.834,3.078,1.834" transform="translate(-1228.052 -700.718)" fill="#f7a491"/>
        <path id="Trazado_115363" data-name="Trazado 115363" d="M1411.715,776.07a4.549,4.549,0,0,1,1.862,2.057,2.926,2.926,0,0,1,1.511,2.311,3.248,3.248,0,0,1-2.446,3.688,2.216,2.216,0,0,0-1.683,1.392l-.166-1.038a4.111,4.111,0,0,1,.812-1.356c.488-.452-.231-1.112-.294-1.649-.049-.414.256-1.218.19-1.9a4.691,4.691,0,0,0-1.609-1.531c-1.361-.517.342-2.829,1.822-1.975" transform="translate(-1246.19 -686.037)" fill="#13375b"/>
        <path id="Trazado_115364" data-name="Trazado 115364" d="M1423.34,825.057c-.189.458-.112.913.172,1.015s.667-.185.856-.643.112-.912-.172-1.015-.667.185-.856.643" transform="translate(-1258.43 -728.931)" fill="#f7a491"/>
        <path id="Trazado_115365" data-name="Trazado 115365" d="M1313.456,954.389l-8.408-1.371s.957-2.409,1.3-2.409,6.358,2.626,6.358,2.626l.479.961Z" transform="translate(-1153.927 -840.532)" fill="#f8a492"/>
        <path id="Trazado_115366" data-name="Trazado 115366" d="M1365.264,1030.1a27.688,27.688,0,0,1,.5,7.13c-.342,3.075-.369,14-.369,14l1.3,17.476-3.095.068s-3.67-17.468-3.6-17.019-1.231-12.3-1.231-12.3l4.375-9.737Z" transform="translate(-1201.427 -910.478)" fill="#184655"/>
        <path id="Trazado_115367" data-name="Trazado 115367" d="M1314.328,1021.1s.547,3.651-.137,5.253-5.864,17.315-5.932,18.6-1.791,15.442-1.791,15.442l-3.6-.1-.779-15.744,1.63-19.787,1.583-5Z" transform="translate(-1151.312 -901.674)" fill="#13375b"/>
        <path id="Trazado_115368" data-name="Trazado 115368" d="M1397.059,866.187a3.232,3.232,0,0,1-1.715.515,5.7,5.7,0,0,1-2-.831l.162-.551s2.141-.312,2.2-.278,1.355,1.146,1.355,1.146" transform="translate(-1232 -764.869)" fill="#f7a491"/>
        <path id="Trazado_115369" data-name="Trazado 115369" d="M1299.848,926.863s-3.18,3-4.616,2.489-2.03-2.264,1.473-4.827c3.135-2.294,3.143,2.338,3.143,2.338" transform="translate(-1144.248 -816.904)" fill="#f8a492"/>
        <path id="Trazado_115370" data-name="Trazado 115370" d="M1316.765,884.446c.472-2.57,3.9-10.569,4.17-12.043.133-.716,1.98-.732,3.74-.639,1.858.1,3.7.334,3.7.334a5.654,5.654,0,0,1,2.369.948c.724.678.916,2.554-.124,6.114-.822,2.811-1.84,4.354-2.344,6.4-.1.687-.189,1.364-.305,2.156-.186,3.061,0,7.105,0,7.105s-8.956,1.858-12.306-.961c0,0,.61-6.783,1.094-9.417" transform="translate(-1163.32 -770.781)" fill="#50bfa5"/>
        <path id="Trazado_115371" data-name="Trazado 115371" d="M1305.4,879.7s3.514,2.9,3.719,2.9c.132,0,5.015-3.592,6.142-6.542a2.58,2.58,0,0,0-2.177-3.45c-1.035,0-1.495.271-3.546,2a26.18,26.18,0,0,0-4.138,5.092" transform="translate(-1154.235 -771.565)" fill="#466eb6"/>
        <path id="Trazado_115372" data-name="Trazado 115372" d="M1391.087,827.878l1.319.723a.713.713,0,0,1-.936.256.7.7,0,0,1-.383-.979" transform="translate(-1229.933 -732.012)" fill="#fff"/>
        <path id="Trazado_115373" data-name="Trazado 115373" d="M525.75,585.681c.181.007.677.174,1.4,1.545a51.4,51.4,0,0,1,2.281,7.041l-4.042,1.505-.519-1.1-.855-8.5s1.683-.489,1.733-.487" transform="translate(-463.337 -517.861)" fill="#3c8f7c"/>
        <path id="Trazado_115374" data-name="Trazado 115374" d="M438.1,579.1a24.691,24.691,0,0,1,5.343.763s.975,8.382-.878,14.751c-.415,1.426.343,5.91.343,5.91l-11.978-.158s1.419-10.841.884-12.592-.547-7.854-.547-7.854.082-.013,2.691-.464a27.113,27.113,0,0,1,4.141-.355" transform="translate(-381.028 -512.038)" fill="#96d9c9"/>
        <path id="Trazado_115375" data-name="Trazado 115375" d="M454.793,898.451a16.127,16.127,0,0,0,.752,3.905c.487.847-.026,2.287-.051,2.484s-1.026.48-2.615.31-1.564-.536-1.436-1.129.974-1.355,1.026-1.92a14.727,14.727,0,0,0-.487-2.6Z" transform="translate(-399.119 -794.413)" fill="#f7a491"/>
        <path id="Trazado_115376" data-name="Trazado 115376" d="M439.995,740.873s8.268-.459,10.115.659-1.312,6.606-1.312,6.606-5.753-.265-17.023.385c-2.669.154-2.9-6.958-2.4-7.547s10.619-.1,10.619-.1" transform="translate(-379.468 -654.916)" fill="#355389"/>
        <path id="Trazado_115377" data-name="Trazado 115377" d="M451.936,936.613c-1.637-.174-1.435-.979-1.3-1.589a5.423,5.423,0,0,1,.832-1.259,2.727,2.727,0,0,0,1.1.532,4.1,4.1,0,0,0,2.4-.484,7.914,7.914,0,0,1,.219,2.112,4.757,4.757,0,0,1-3.239.688" transform="translate(-398.375 -825.638)" fill="#13375b"/>
        <path id="Trazado_115378" data-name="Trazado 115378" d="M422.5,747.415c.33,2.5,1.966,14.944,1.966,14.944l-3.8.471S416,746.587,416.244,744.1s1.986-2.693,1.986-2.693,3.4-.611,4.271,6.006" transform="translate(-368.036 -655.543)" fill="#466eb6"/>
        <path id="Trazado_115379" data-name="Trazado 115379" d="M418.452,594.12c1.12-.42,1.668,9.671,1.819,13.824a48.831,48.831,0,0,0,6.3-.063c.4-.031,1.338-.372,1.741-.425a4.023,4.023,0,0,1,.989-.047,18.663,18.663,0,0,1,2.318,1.044c.219.23.812.81.712,1.061s-1.14-.7-1.14-.7l-.508-.285c.633.618,1.84,1.432,1.666,1.729s-1.259-.537-2.034-1.1c.666.6,1.492,1.677,1.3,1.845-.171.151-1.112-1.095-2.117-1.454-.372-.133-.744.235-1.037.28a2.105,2.105,0,0,1-.759.042l-1.088-.309c-.371.034-.38.253-.755.333-.435.092-1.148.19-1.7.325-3.188.779-4.251,1.141-5.227,1.14-2.956,0-3.128-16.247-.481-17.24" transform="translate(-368.345 -525.311)" fill="#f7a491"/>
        <path id="Trazado_115380" data-name="Trazado 115380" d="M413.741,596.394c-.21-4.254-.179-9.5,2.206-10.393.941-.353,2.6,1.77,2.3,10.479a17.925,17.925,0,0,1-4.507-.086" transform="translate(-365.759 -518.112)" fill="#3c8f7c"/>
        <path id="Trazado_115381" data-name="Trazado 115381" d="M553.913,921.043a2.067,2.067,0,0,0,.262,1.764c.593.7,3.057,1.391,3.38,1.771a1.067,1.067,0,0,1,.3.7l-6.915-.19.075-2.089.318-1.5Z" transform="translate(-487.142 -814.389)" fill="#f7a491"/>
        <path id="Trazado_115382" data-name="Trazado 115382" d="M551.65,938.083s-1.777.719-2.635.293-.833-.543-1.081-.385-.337,2.117-.337,2.117l7.776.229c.541-.012.815-.411.375-.752a6.332,6.332,0,0,0-.848-.5,24.325,24.325,0,0,0-3.25-1" transform="translate(-484.187 -829.315)" fill="#13375b"/>
        <path id="Trazado_115383" data-name="Trazado 115383" d="M554.67,744.132c.534-1.125,1.75-2.589,3.889-1.707,2.04.841,2.588,2.909,1.944,5.026s-4.881,14.563-5.029,16.274l-3.383.022s.615-9.855.766-12.237a23.071,23.071,0,0,1,1.813-7.378" transform="translate(-488.16 -656.215)" fill="#466eb6"/>
        <path id="Trazado_115384" data-name="Trazado 115384" d="M453.622,660.242H442.313a.737.737,0,0,0-.682.459l-3.482,8.522h-6.235a.316.316,0,0,0,0,.633h17.744a1.239,1.239,0,0,0,1.13-.734l3.506-7.837a.74.74,0,0,0-.673-1.043" transform="translate(-381.62 -583.788)" fill="#12353d"/>
        <path id="Trazado_115385" data-name="Trazado 115385" d="M559.851,696.794a.623.623,0,1,1-.467-.814.666.666,0,0,1,.467.814" transform="translate(-493.938 -615.378)" fill="#fff"/>
        <path id="Trazado_115386" data-name="Trazado 115386" d="M467.985,484.074a8.669,8.669,0,0,1-1-.4,5.007,5.007,0,0,0-1.141-.43,2.75,2.75,0,0,0-2.314.617c-.746.809-2.071.146-1.8,4.384.3,4.8,2.97,4.271,3.034,4.189s2.379-3.069,2.379-3.069.809,1.77.809,1.7,4.132-5.617.037-7" transform="translate(-408.228 -427.253)" fill="#0e2e35"/>
        <path id="Trazado_115387" data-name="Trazado 115387" d="M477.645,545.336l.23,1.714s.516,2.469-.148,2.946-2.822-3.016-2.822-3.016l.228-4.343Z" transform="translate(-419.912 -479.8)" fill="#f7a491"/>
        <path id="Trazado_115388" data-name="Trazado 115388" d="M476.238,544.044a4.917,4.917,0,0,0,2.78,2.745l-.2-1.453-2.512-2.7Z" transform="translate(-421.091 -479.8)" fill="#f47458"/>
        <path id="Trazado_115389" data-name="Trazado 115389" d="M475.257,501.6a2.286,2.286,0,0,1,2.632,2.312,17.334,17.334,0,0,1-.193,2.2c-.306,1.979-1.656,3.721-2.548,3.565a4.289,4.289,0,0,1-2.743-4.678,3.785,3.785,0,0,1,2.852-3.4" transform="translate(-417.661 -443.487)" fill="#f7a491"/>
        <path id="Trazado_115390" data-name="Trazado 115390" d="M468.191,527.126a.665.665,0,1,1-.506-.9.736.736,0,0,1,.506.9" transform="translate(-412.827 -465.284)" fill="#f7a491"/>
        <path id="Trazado_115391" data-name="Trazado 115391" d="M471.138,499.415s1.079.268,1.48-.426a3.259,3.259,0,0,1,3.653-1.571c1.821.621-1.6-1.51-1.748-1.51l-1.893-.012s-1.347,1.108-1.4,1.23-.437,1.449-.437,1.449Z" transform="translate(-416.28 -438.473)" fill="#0e2e35"/>
        <path id="Trazado_115392" data-name="Trazado 115392" d="M490.735,551.3l1.964.375a.874.874,0,0,1-1.056.6c-1.059-.171-.908-.975-.908-.975" transform="translate(-433.903 -487.46)" fill="#fff"/>
        <path id="Trazado_115393" data-name="Trazado 115393" d="M1594.488,907.968c-.1-.3,1.336-.535,1.412-.834s-1.817-.322-1.885-.585c-.125-.484,2.075-.1,2.032-.328s-2.293-.733-2.05-1.121,2.278.768,2.339.5-1.989-.906-1.952-1.484c.02-.309,3.365,1.541,3.753,1.373s-.417-1.62-.108-1.836,1.2,2.952,1.409,3.058a48.023,48.023,0,0,0,6.341,3.1c.2-.539.617-1.265.79-1.775.9.642,1.573.964,2.5,1.55-.675,1.691-1.635,3.542-2.105,3.755-1.431.647-6.967-3.944-8.072-4.73s-1.739-.531-2.486-.78-1.819.434-1.922.138" transform="translate(-1409.401 -799.006)" fill="#f7a491"/>
        <path id="Trazado_115394" data-name="Trazado 115394" d="M1699.253,901.26c.428,1.761-1.853,5.686-1.853,5.686a22.042,22.042,0,0,1-3.821-2.194s2.208-3.81,2.352-4.041a2,2,0,0,1,2.124-.982c.466.055,1.2,1.53,1.2,1.53" transform="translate(-1497.468 -795.522)" fill="#eab765"/>
      </g>
    </g>
  </g>
</svg>
