<svg xmlns="http://www.w3.org/2000/svg" xmlns:xlink="http://www.w3.org/1999/xlink" width="124" height="124" viewBox="0 0 124 124">
  <defs>
    <clipPath id="clip-path">
      <rect width="124" height="124" fill="none"/>
    </clipPath>
    <clipPath id="clip-path-2">
      <rect id="Rectángulo_46906" data-name="Rectángulo 46906" width="87.704" height="90.444" fill="#fff"/>
    </clipPath>
  </defs>
  <g id="Cuadrícula_de_repetición_1" data-name="Cuadrícula de repetición 1" clip-path="url(#clip-path)">
    <g id="Grupo_81233" data-name="Grupo 81233" transform="translate(-1083.667 -2721)">
      <g id="Elipse_4727" data-name="Elipse 4727" transform="translate(1083.667 2721)" fill="#12263f" stroke="#707070" stroke-width="1">
        <circle cx="62" cy="62" r="62" stroke="none"/>
        <circle cx="62" cy="62" r="61.5" fill="none"/>
      </g>
      <g id="Grupo_81134" data-name="Grupo 81134" transform="translate(1099.946 2743.919)">
        <g id="Grupo_81133" data-name="Grupo 81133" clip-path="url(#clip-path-2)">
          <path id="Trazado_115196" data-name="Trazado 115196" d="M50.742,0c.687.138,1.381.253,2.062.417a16.7,16.7,0,0,1,8.709,5.064,1.877,1.877,0,0,0,1.508.683A17.025,17.025,0,0,1,79.583,19.581a2.307,2.307,0,0,0,.858,1.136,17.53,17.53,0,0,1,7.026,11.629,17.354,17.354,0,0,1-4.753,15.17,2.178,2.178,0,0,0-.686,1.848,14.094,14.094,0,0,1-17.022,15,9.307,9.307,0,0,0-1.255-.08c.367,1.246.713,2.3.987,3.374a17.814,17.814,0,0,1-2.185,14.56c-1.737,2.726-3.538,5.411-5.385,8.228-.751-1.8-1.565-3.433-2.13-5.152-1.569-4.78-4.545-8.572-8.044-12.065C44.058,70.3,41.178,67.3,38.41,64.215a40.714,40.714,0,0,1-3.394-4.824,1.065,1.065,0,0,0-1.116-.6,13.515,13.515,0,0,1-8.271-1.955,2.241,2.241,0,0,0-1.324-.258A16.672,16.672,0,0,1,7.31,47.17a4.582,4.582,0,0,0-.969-1.331A19.558,19.558,0,0,1,16.884,12.025a1.73,1.73,0,0,0,1.353-.816A18.919,18.919,0,0,1,31.515,2.9a18.107,18.107,0,0,1,6.837.321,1.369,1.369,0,0,0,.973-.12A17.173,17.173,0,0,1,47.161.125c.079-.008.149-.082.223-.125ZM31.151,34.3c-.681-.266-1.27-.523-1.877-.728C24.938,32.1,20.6,31.691,16.3,33.7a8.329,8.329,0,0,0-4.436,10.853,11.246,11.246,0,0,0,13.725,6.492,1.175,1.175,0,0,1,1.374.369,8.023,8.023,0,0,0,5.387,2.311c2.839.121,5.009-1.2,6.945-3.108,1.719-1.694,3.432-3.4,5.246-4.988a20.339,20.339,0,0,1,13.342-5.012,39.69,39.69,0,0,1,12.662,2.028c.575.176,1.145.369,1.753.567L70.719,47.8c-3.242-.673-6.32-1.49-9.451-1.922-5.227-.722-10.011.414-13.977,4.124-2.531,2.367-5.047,4.749-7.652,7.2a11.21,11.21,0,0,0,1.009,1.55c2.552,2.884,5.142,5.736,7.714,8.6,2.669,2.977,5.371,5.927,7.973,8.96a22.477,22.477,0,0,1,1.918,3.156c.365-.719.735-1.349,1.015-2.015,1.626-3.867,1.16-7.691-.5-11.383-.907-2.02-2.14-3.895-3.177-5.748,3.6.525,4.124.406,7.766-1.617a1.386,1.386,0,0,1,1.021.118,9.043,9.043,0,0,0,12.556-7.47,9.723,9.723,0,0,0-.965-4.962c.395-.259.745-.472,1.077-.711a12.253,12.253,0,0,0,5.462-9.449c.354-5.666-2.074-9.88-7.08-12.575a1.081,1.081,0,0,1-.639-1.026A11.826,11.826,0,0,0,64.5,11.364c-3.841-.554-6.735.769-8.56,4.043a9.542,9.542,0,0,0-.673,6.8c.313,1.481.781,2.93,1.193,4.445l-4.73,2-1.8-6.37C45.209,24.919,40.514,25.44,35.808,22l1.652-1.992,1.425-1.718a17.17,17.17,0,0,0,3.31.932,9.7,9.7,0,0,0,8.851-5.5,11.194,11.194,0,0,1,2.939-4.029c.776-.657,1.592-1.268,2.388-1.9-.041-.073-.057-.136-.1-.168a11.666,11.666,0,0,0-15.522,1,1.146,1.146,0,0,1-1.505.283,13.416,13.416,0,0,0-12.281.918,13.572,13.572,0,0,0-5.727,6.511c-.183.421-.334.706-.939.673A14.37,14.37,0,0,0,5.118,31.337a13.718,13.718,0,0,0,1.519,6.451c.114-.268.194-.421.246-.582a13.248,13.248,0,0,1,7.382-8.213,20.536,20.536,0,0,1,12.689-1.34,24.672,24.672,0,0,1,6.315,2.026L31.151,34.3" transform="translate(0)" fill="#fff"/>
        </g>
      </g>
    </g>
  </g>
</svg>
