<svg xmlns="http://www.w3.org/2000/svg" xmlns:xlink="http://www.w3.org/1999/xlink" width="124" height="124" viewBox="0 0 124 124">
  <defs>
    <clipPath id="clip-path">
      <rect id="Rectángulo_46907" data-name="Rectángulo 46907" width="95.123" height="93.814" fill="none"/>
    </clipPath>
  </defs>
  <g id="Grupo_81234" data-name="Grupo 81234" transform="translate(7213 8979)">
    <g id="Elipse_4728" data-name="Elipse 4728" transform="translate(-7213 -8979)" fill="#12263f" stroke="#707070" stroke-width="1">
      <circle cx="62" cy="62" r="62" stroke="none"/>
      <circle cx="62" cy="62" r="61.5" fill="none"/>
    </g>
    <g id="Grupo_81136" data-name="Grupo 81136" transform="translate(-7200.434 -8965.403)">
      <g id="Grupo_81135" data-name="Grupo 81135" clip-path="url(#clip-path)">
        <path id="Trazado_115197" data-name="Trazado 115197" d="M95.273,107.343c-.4-.021-.8-.06-1.2-.06q-13.288-.005-26.575,0a20.565,20.565,0,0,1-11.677-3.25,20.153,20.153,0,0,1-9.47-16.115c-.024-.332-.052-.663-.1-1.267-.4.535-.66.882-.923,1.225a19.836,19.836,0,0,1-14.814,8.185c-2.458.177-4.933.142-7.4.148-7.161.017-14.321.006-21.482.006H.5V93.056H1.563q13.427,0,26.853,0a17.269,17.269,0,0,0,13.65-6.1A17.09,17.09,0,0,0,46.275,75.4q0-20.14,0-40.279a3.838,3.838,0,0,0-.082-.919,1.415,1.415,0,0,0-1.464-1.164,1.4,1.4,0,0,0-1.5,1.116,5.3,5.3,0,0,0-.115,1.283q-.009,11.621,0,23.242v1.137H39.946V35.728c0-.216,0-.432,0-.648-.015-1.364-.549-2.058-1.579-2.052s-1.579.718-1.58,2.074q-.007,11.759,0,23.519v1.174H33.622V58.676q0-11.621,0-23.241a7.527,7.527,0,0,0-.027-1.017,1.436,1.436,0,0,0-1.38-1.372A1.421,1.421,0,0,0,30.569,34.2a4.828,4.828,0,0,0-.1,1.191q-.008,11.621,0,23.242V59.8H27.31V58.673q0-11.667,0-23.334a7.023,7.023,0,0,0-.026-.924,1.558,1.558,0,0,0-3.092-.036,6.554,6.554,0,0,0-.035,1.016q0,13.982,0,27.964v1.16H21c0-2.511,0-5,0-7.492a6.581,6.581,0,0,0-1.261-4.078,6.138,6.138,0,0,0-3.439-2.33c-.024.382-.06.674-.06.967,0,5.4.008,10.8-.016,16.2a1.728,1.728,0,0,0,.66,1.525c.145.112.245.288.4.386,2.288,1.473,2.326,3.719,2.089,6.058a1.4,1.4,0,0,1-1.422,1.426c-5.8.027-11.593.014-17.445.014V74.091h15.95c-.279-.6-.45-.987-.634-1.363-.038-.079-.127-.132-.192-.2-3.026-3.126-2.521-1.772-2.543-6.164-.028-5.587-.008-11.173-.006-16.76,0-2,.513-2.452,2.494-2.3A9.675,9.675,0,0,1,21,49.649V48.5c0-4.6-.026-9.2.01-13.8A4.7,4.7,0,0,1,27.3,30.128a13.582,13.582,0,0,1,1.628.849,4.815,4.815,0,0,1,6.284.046,4.847,4.847,0,0,1,6.343.009,4.754,4.754,0,0,1,7.882,3.883c.03,1.7.006,3.4.007,5.093,0,.331,0,.662,0,1.11a5.029,5.029,0,0,1,4.478.793.619.619,0,0,0,.566-.035,4.737,4.737,0,0,1,6.018.208,4.8,4.8,0,0,1,6.317,0,4.929,4.929,0,0,1,3.506-1.167,4.7,4.7,0,0,1,4.382,4.853c.026,4.568.008,9.136.008,13.7v1.118a12.82,12.82,0,0,1,2.187-1.285,24.228,24.228,0,0,1,3.906-1,1.511,1.511,0,0,1,1.791,1.45,6.062,6.062,0,0,1,.036.923c0,5.834-.082,11.669.046,17.5.045,2.058-.4,3.679-2.086,4.9a2.479,2.479,0,0,0-.648.655,15.031,15.031,0,0,0-.679,1.379h16v3.148q-8.564.01-17.127.015a1.6,1.6,0,0,1-1.822-1.731c-.2-3.459-.2-3.459,2.243-5.91.109-.109.261-.2.32-.33a4.059,4.059,0,0,0,.57-1.449c.041-5.369.027-10.74.024-16.109,0-.323-.029-.645-.05-1.061a6.046,6.046,0,0,0-3.458,2.335,6.562,6.562,0,0,0-1.254,4.08c.007,2.49,0,4.981,0,7.5H71.568V74.452q0-14.027,0-28.054a5.84,5.84,0,0,0-.045-1.015,1.551,1.551,0,0,0-3.076.052,7.079,7.079,0,0,0-.032,1.016q0,11.666,0,23.332v1.061H65.258V69.7q0-11.619,0-23.239a5.477,5.477,0,0,0-.068-1.1,1.544,1.544,0,0,0-3.068.2c-.029.306-.017.617-.017.925q0,11.619,0,23.239v1.11H58.938V69.664q0-11.619,0-23.239c0-1.573-.535-2.363-1.594-2.363s-1.566.764-1.567,2.364q0,11.666,0,23.332v1.085H52.614V69.7q0-11.619,0-23.239a5.17,5.17,0,0,0-.121-1.283,1.409,1.409,0,0,0-1.52-1.1,1.424,1.424,0,0,0-1.441,1.2,4.6,4.6,0,0,0-.077.92q-.005,20.091,0,40.182a17.107,17.107,0,0,0,7.356,14.5,17.521,17.521,0,0,0,10.7,3.229q13.286-.027,26.572,0c.4,0,.795.051,1.192.078Z" transform="translate(-0.325 -19.41)" fill="#fff"/>
        <path id="Trazado_115198" data-name="Trazado 115198" d="M95.273,107.343c-.4-.021-.8-.06-1.2-.06q-13.288-.005-26.575,0a20.565,20.565,0,0,1-11.677-3.25,20.153,20.153,0,0,1-9.47-16.115c-.024-.332-.052-.663-.1-1.267-.4.535-.66.882-.923,1.225a19.836,19.836,0,0,1-14.814,8.185c-2.458.177-4.933.142-7.4.148-7.161.017-14.321.006-21.482.006H.5V93.056H1.563q13.427,0,26.853,0a17.269,17.269,0,0,0,13.65-6.1A17.09,17.09,0,0,0,46.275,75.4q0-20.14,0-40.279a3.838,3.838,0,0,0-.082-.919,1.415,1.415,0,0,0-1.464-1.164,1.4,1.4,0,0,0-1.5,1.116,5.3,5.3,0,0,0-.115,1.283q-.009,11.621,0,23.242v1.137H39.946V35.728c0-.216,0-.432,0-.648-.015-1.364-.549-2.058-1.579-2.052s-1.579.718-1.58,2.074q-.007,11.759,0,23.519v1.174H33.622V58.676q0-11.621,0-23.241a7.527,7.527,0,0,0-.027-1.017,1.436,1.436,0,0,0-1.38-1.372A1.421,1.421,0,0,0,30.569,34.2a4.828,4.828,0,0,0-.1,1.191q-.008,11.621,0,23.242V59.8H27.31V58.673q0-11.667,0-23.334a7.023,7.023,0,0,0-.026-.924,1.558,1.558,0,0,0-3.092-.036,6.554,6.554,0,0,0-.035,1.016q0,13.982,0,27.964v1.16H21c0-2.511,0-5,0-7.492a6.581,6.581,0,0,0-1.261-4.078,6.138,6.138,0,0,0-3.439-2.33c-.024.382-.06.674-.06.967,0,5.4.008,10.8-.016,16.2a1.728,1.728,0,0,0,.66,1.525c.145.112.245.288.4.386,2.288,1.473,2.326,3.719,2.089,6.058a1.4,1.4,0,0,1-1.422,1.426c-5.8.027-11.593.014-17.445.014V74.091h15.95c-.279-.6-.45-.987-.634-1.363-.038-.079-.127-.132-.192-.2-3.026-3.126-2.521-1.772-2.543-6.164-.028-5.587-.008-11.173-.006-16.76,0-2,.513-2.452,2.494-2.3A9.675,9.675,0,0,1,21,49.649V48.5c0-4.6-.026-9.2.01-13.8A4.7,4.7,0,0,1,27.3,30.128a13.582,13.582,0,0,1,1.628.849,4.815,4.815,0,0,1,6.284.046,4.847,4.847,0,0,1,6.343.009,4.754,4.754,0,0,1,7.882,3.883c.03,1.7.006,3.4.007,5.093,0,.331,0,.662,0,1.11a5.029,5.029,0,0,1,4.478.793.619.619,0,0,0,.566-.035,4.737,4.737,0,0,1,6.018.208,4.8,4.8,0,0,1,6.317,0,4.929,4.929,0,0,1,3.506-1.167,4.7,4.7,0,0,1,4.382,4.853c.026,4.568.008,9.136.008,13.7v1.118a12.82,12.82,0,0,1,2.187-1.285,24.228,24.228,0,0,1,3.906-1,1.511,1.511,0,0,1,1.791,1.45,6.062,6.062,0,0,1,.036.923c0,5.834-.082,11.669.046,17.5.045,2.058-.4,3.679-2.086,4.9a2.479,2.479,0,0,0-.648.655,15.031,15.031,0,0,0-.679,1.379h16v3.148q-8.564.01-17.127.015a1.6,1.6,0,0,1-1.822-1.731c-.2-3.459-.2-3.459,2.243-5.91.109-.109.261-.2.32-.33a4.059,4.059,0,0,0,.57-1.449c.041-5.369.027-10.74.024-16.109,0-.323-.029-.645-.05-1.061a6.046,6.046,0,0,0-3.458,2.335,6.562,6.562,0,0,0-1.254,4.08c.007,2.49,0,4.981,0,7.5H71.568V74.452q0-14.027,0-28.054a5.84,5.84,0,0,0-.045-1.015,1.551,1.551,0,0,0-3.076.052,7.079,7.079,0,0,0-.032,1.016q0,11.666,0,23.332v1.061H65.258V69.7q0-11.619,0-23.239a5.477,5.477,0,0,0-.068-1.1,1.544,1.544,0,0,0-3.068.2c-.029.306-.017.617-.017.925q0,11.619,0,23.239v1.11H58.938V69.664q0-11.619,0-23.239c0-1.573-.535-2.363-1.594-2.363s-1.566.764-1.567,2.364q0,11.666,0,23.332v1.085H52.614V69.7q0-11.619,0-23.239a5.17,5.17,0,0,0-.121-1.283,1.409,1.409,0,0,0-1.52-1.1,1.424,1.424,0,0,0-1.441,1.2,4.6,4.6,0,0,0-.077.92q-.005,20.091,0,40.182a17.107,17.107,0,0,0,7.356,14.5,17.521,17.521,0,0,0,10.7,3.229q13.286-.027,26.572,0c.4,0,.795.051,1.192.078Z" transform="translate(-0.325 -19.41)" fill="none" stroke="#fff" stroke-miterlimit="10" stroke-width="1"/>
        <path id="Trazado_115199" data-name="Trazado 115199" d="M129.18,16.466l-.653,2.908a24.443,24.443,0,0,1-7.2-2.462,9.1,9.1,0,0,1-4.772-8.338,20.431,20.431,0,0,1-7.419.024,11.929,11.929,0,0,1-6.343-3.654,11.168,11.168,0,0,1-8.224,3.187,9.387,9.387,0,0,1-5.26-1.712l1.8-2.566A7.052,7.052,0,0,0,95.738,4.92a7.3,7.3,0,0,0,5.553-3.232C102.4.04,103.62.122,104.557,1.84a7.616,7.616,0,0,0,6.006,3.813,19.892,19.892,0,0,0,7.236-.615c.361-.078.717-.193,1.082-.241a1.566,1.566,0,0,1,1.672,2.225c-1.383,3.276-.333,6.037,3,7.475,1.77.764,3.646,1.284,5.632,1.969" transform="translate(-58.103 -0.325)" fill="#fff"/>
        <path id="Trazado_115200" data-name="Trazado 115200" d="M129.18,16.466l-.653,2.908a24.443,24.443,0,0,1-7.2-2.462,9.1,9.1,0,0,1-4.772-8.338,20.431,20.431,0,0,1-7.419.024,11.929,11.929,0,0,1-6.343-3.654,11.168,11.168,0,0,1-8.224,3.187,9.387,9.387,0,0,1-5.26-1.712l1.8-2.566A7.052,7.052,0,0,0,95.738,4.92a7.3,7.3,0,0,0,5.553-3.232C102.4.04,103.62.122,104.557,1.84a7.616,7.616,0,0,0,6.006,3.813,19.892,19.892,0,0,0,7.236-.615c.361-.078.717-.193,1.082-.241a1.566,1.566,0,0,1,1.672,2.225c-1.383,3.276-.333,6.037,3,7.475C125.318,15.261,127.193,15.781,129.18,16.466Z" transform="translate(-58.103 -0.325)" fill="none" stroke="#fff" stroke-miterlimit="10" stroke-width="1"/>
        <path id="Trazado_115201" data-name="Trazado 115201" d="M44.088,230.857l-1.768-2.449c3.447-2.731,7.973-1.026,12.162,4.594a8.277,8.277,0,0,1,8.066-2.49c3.075.746,5.018,2.858,6.331,5.731a7.92,7.92,0,0,1,7.86-.1,7.729,7.729,0,0,1,3.68,4.435c-.879.293-1.706.605-2.558.825a.816.816,0,0,1-.665-.384,4.717,4.717,0,0,0-7.751-1.148,1.8,1.8,0,0,1-1.944.749c-.818-.268-1.041-.942-1.184-1.716a6.669,6.669,0,0,0-3.249-4.822,4.789,4.789,0,0,0-6.989,2.647c-.246.736-.624,1.281-1.436,1.369a1.657,1.657,0,0,1-1.721-1.134,15.545,15.545,0,0,0-3.418-5.114c-1.563-1.359-3.3-2.03-5.416-1" transform="translate(-27.534 -147.774)" fill="#fff"/>
        <path id="Trazado_115202" data-name="Trazado 115202" d="M44.088,230.857l-1.768-2.449c3.447-2.731,7.973-1.026,12.162,4.594a8.277,8.277,0,0,1,8.066-2.49c3.075.746,5.018,2.858,6.331,5.731a7.92,7.92,0,0,1,7.86-.1,7.729,7.729,0,0,1,3.68,4.435c-.879.293-1.706.605-2.558.825a.816.816,0,0,1-.665-.384,4.717,4.717,0,0,0-7.751-1.148,1.8,1.8,0,0,1-1.944.749c-.818-.268-1.041-.942-1.184-1.716a6.669,6.669,0,0,0-3.249-4.822,4.789,4.789,0,0,0-6.989,2.647c-.246.736-.624,1.281-1.436,1.369a1.657,1.657,0,0,1-1.721-1.134,15.545,15.545,0,0,0-3.418-5.114C47.941,230.5,46.2,229.825,44.088,230.857Z" transform="translate(-27.534 -147.774)" fill="none" stroke="#fff" stroke-miterlimit="10" stroke-width="1"/>
      </g>
    </g>
  </g>
</svg>
