<svg id="Grupo_81026" data-name="Grupo 81026" xmlns="http://www.w3.org/2000/svg" xmlns:xlink="http://www.w3.org/1999/xlink" width="381.882" height="385" viewBox="0 0 381.882 385">
  <defs>
    <clipPath id="clip-path">
      <rect id="Rectángulo_46732" data-name="Rectángulo 46732" width="381.882" height="385" fill="none"/>
    </clipPath>
    <clipPath id="clip-path-2">
      <path id="Trazado_114887" data-name="Trazado 114887" d="M199,0C113.9.084,59.332,64.289,51.4,73.933c-62.049,75.434-72.032,203.56-7.214,264.857,33.752,31.918,76.979,35.5,98.463,37.274,78.685,6.512,179.111-31.683,217.155-120.608,23.774-55.569,20.981-124.941-10.8-174.635a173.712,173.712,0,0,0-35.334-40.09C308.288,36.289,264,.642,200.892,0,200.376,0,199.868,0,199.355,0Z" transform="translate(0 0.004)" fill="none"/>
    </clipPath>
    <linearGradient id="linear-gradient" x1="0.174" y1="0.849" x2="0.174" y2="0.849" gradientUnits="objectBoundingBox">
      <stop offset="0" stop-color="#dae3fe"/>
      <stop offset="1" stop-color="#e9effd"/>
    </linearGradient>
    <clipPath id="clip-path-3">
      <rect id="Rectángulo_46690" data-name="Rectángulo 46690" width="381.881" height="385.001" fill="none"/>
    </clipPath>
    <clipPath id="clip-path-4">
      <rect id="Rectángulo_46688" data-name="Rectángulo 46688" width="36.596" height="259.614" fill="none"/>
    </clipPath>
    <clipPath id="clip-path-5">
      <rect id="Rectángulo_46689" data-name="Rectángulo 46689" width="29.19" height="183.277" fill="none"/>
    </clipPath>
    <clipPath id="clip-path-6">
      <path id="Trazado_114892" data-name="Trazado 114892" d="M1092.04,1150.968a17.545,17.545,0,0,0-17.532,16.852L1067,1357.694a17.545,17.545,0,0,0,17.531,18.238h149.838a17.545,17.545,0,0,0,17.538-18.054L1246.4,1168a17.545,17.545,0,0,0-17.538-17.036Z" transform="translate(-1066.989 -1150.968)" fill="#08306e"/>
    </clipPath>
    <clipPath id="clip-path-7">
      <path id="Trazado_114893" data-name="Trazado 114893" d="M1403,561.163l-7.973,56.475a7.9,7.9,0,0,1-7.824,6.8h0a12.073,12.073,0,0,0-12.073,12.073v16.048h99.929V636.507a12.073,12.073,0,0,0-12.073-12.073h0a7.9,7.9,0,0,1-7.823-6.8l-7.973-56.475Z" transform="translate(-1375.13 -561.163)" fill="#08306e"/>
    </clipPath>
    <clipPath id="clip-path-8">
      <rect id="Rectángulo_46694" data-name="Rectángulo 46694" width="51.722" height="16.571" rx="7.814" fill="#42a5f5"/>
    </clipPath>
    <clipPath id="clip-path-9">
      <path id="Rectángulo_46696" data-name="Rectángulo 46696" d="M7.814,0H43.908a7.814,7.814,0,0,1,7.814,7.814V46.922a7.813,7.813,0,0,1-7.813,7.813H7.815A7.815,7.815,0,0,1,0,46.92V7.814A7.814,7.814,0,0,1,7.814,0Z" fill="#42a5f5"/>
    </clipPath>
    <clipPath id="clip-path-10">
      <path id="Trazado_114894" data-name="Trazado 114894" d="M1564.942,1083.047a23.1,23.1,0,1,0,23.1-23.1,23.1,23.1,0,0,0-23.1,23.1" transform="translate(-1564.942 -1059.948)" fill="#42a5f5"/>
    </clipPath>
    <clipPath id="clip-path-11">
      <path id="Trazado_114895" data-name="Trazado 114895" d="M1290.111,1584.22a7.905,7.905,0,0,0-7.892,7.448l-5.109,88.135a7.905,7.905,0,0,0,7.892,8.362H1394.76a7.905,7.905,0,0,0,7.905-7.905v-88.135a7.905,7.905,0,0,0-7.905-7.905Z" transform="translate(-1277.096 -1584.22)" fill="#42a5f5"/>
    </clipPath>
    <clipPath id="clip-path-13">
      <path id="Trazado_114907" data-name="Trazado 114907" d="M115.983,2594.735a1.745,1.745,0,0,0-.85.342c4.912,7.478,24.575,14.477,27.141,15.723a3.965,3.965,0,0,0,3.729-.081c3.429-5.139,1.675-9.35,1.675-9.35l-5.212-4.465a53.305,53.305,0,0,0-17.6-2.7,75.28,75.28,0,0,0-8.886.535" transform="translate(-115.133 -2594.201)" fill="none"/>
    </clipPath>
    <linearGradient id="linear-gradient-2" x1="-0.389" y1="1.27" x2="-0.386" y2="1.27" gradientUnits="objectBoundingBox">
      <stop offset="0" stop-color="#09005d"/>
      <stop offset="1" stop-color="#1a0f91"/>
    </linearGradient>
    <clipPath id="clip-path-15">
      <path id="Trazado_114909" data-name="Trazado 114909" d="M120.905,2642.14a1.746,1.746,0,0,0-.85.342c4.912,7.478,24.574,14.477,27.141,15.723a3.964,3.964,0,0,0,3.729-.081c3.429-5.139,1.675-9.35,1.675-9.35l-5.212-4.465a53.3,53.3,0,0,0-17.6-2.7,75.185,75.185,0,0,0-8.886.534" transform="translate(-120.055 -2641.606)" fill="none"/>
    </clipPath>
    <linearGradient id="linear-gradient-3" x1="-0.848" y1="0.82" x2="-0.842" y2="0.82" xlink:href="#linear-gradient-2"/>
    <clipPath id="clip-path-17">
      <path id="Trazado_114911" data-name="Trazado 114911" d="M313.54,2587.47a2.887,2.887,0,0,0,.367,3.9,5.479,5.479,0,0,0,3.947,1.194l5.138-3.577a12.2,12.2,0,0,1-5.925-6.037q-1.775,2.215-3.527,4.517" transform="translate(-312.948 -2582.953)" fill="none"/>
    </clipPath>
    <linearGradient id="linear-gradient-4" x1="-2.937" y1="2.235" x2="-2.927" y2="2.235" gradientUnits="objectBoundingBox">
      <stop offset="0" stop-color="#febbba"/>
      <stop offset="1" stop-color="#ff928e"/>
    </linearGradient>
    <clipPath id="clip-path-18">
      <path id="Trazado_114912" data-name="Trazado 114912" d="M339.255,2166.23a2.023,2.023,0,0,0-.262,2.115,13.379,13.379,0,0,0,5.462,6.395l86.616-60.574,1.3-12.727s-51.443,13.386-93.12,64.791" transform="translate(-338.807 -2101.439)" fill="none"/>
    </clipPath>
    <linearGradient id="linear-gradient-5" x1="-0.33" y1="1.085" x2="-0.329" y2="1.085" xlink:href="#linear-gradient-2"/>
    <clipPath id="clip-path-19">
      <path id="Trazado_114913" data-name="Trazado 114913" d="M311.106,2622.471a2.308,2.308,0,0,0-.48,2,5.186,5.186,0,0,0,4.278,3.97,2.481,2.481,0,0,0,2.1-.547q2.177-1.839,4.541-3.655c-4.163-2.615-5.191-5.763-5.415-7.541-2.445,2.712-4.158,4.729-5.025,5.768" transform="translate(-310.567 -2616.703)" fill="none"/>
    </clipPath>
    <linearGradient id="linear-gradient-6" x1="-2.841" y1="1.806" x2="-2.831" y2="1.806" xlink:href="#linear-gradient-4"/>
    <clipPath id="clip-path-20">
      <path id="Trazado_114914" data-name="Trazado 114914" d="M437.085,2059.843l-5.257,10.959a11.954,11.954,0,0,1-6.65,6.066c-35.142,12.877-67.137,43.9-80.135,58.144a2.105,2.105,0,0,0-.429,2.178,15.593,15.593,0,0,0,4.869,6.24,2.064,2.064,0,0,0,2.506-.017c32.353-24.415,87.206-46.2,105.717-51.57,19.83-5.749,20.792-21.473,20.792-21.473-9.145-9.576-21.59-11.59-30.444-11.59a53.039,53.039,0,0,0-10.969,1.063" transform="translate(-344.476 -2058.78)" fill="#08306e"/>
    </clipPath>
    <clipPath id="clip-path-21">
      <path id="Trazado_114915" data-name="Trazado 114915" d="M750.269,1466.781l-7.428,6.7c-23.858,17.393-27.63,40.684-27.63,40.684v18.867l4.448-.2c9.93-3.947,24.059-30.394,24.059-30.394,17.543,21.138,9.649,50.683,9.649,50.683s24.368.413,33.33,4.555,14.189,1.855,14.189,1.855,11.03-35.69-6.733-66.849c-13.275-23.287-31.219-26.229-39.438-26.229a24.829,24.829,0,0,0-4.445.336" transform="translate(-715.211 -1466.445)" fill="#ffb74d"/>
    </clipPath>
    <clipPath id="clip-path-22">
      <path id="Trazado_114916" data-name="Trazado 114916" d="M673.528,1472.486c-3.159,3.733-3.065,6.8-2.817,8.1-11.76,35.849-.568,54.849-.568,54.849l5,.2c9.066-12.294,6.32-19.468,4.97-23.329-3.446-9.856-3.563-24.027-3.491-28.885l.042.016s7.5-2.409,8.271-4.644l2.282,1.238a1.362,1.362,0,0,0,1.922-1.688c-1.112-2.837-3.077-6.7-5.958-8.314a8.471,8.471,0,0,0-3.295-.649,8.1,8.1,0,0,0-6.354,3.1" transform="translate(-665.332 -1469.389)" fill="none"/>
    </clipPath>
    <linearGradient id="linear-gradient-7" x1="-2.786" y1="2.752" x2="-2.782" y2="2.752" xlink:href="#linear-gradient-4"/>
    <clipPath id="clip-path-23">
      <path id="Trazado_114917" data-name="Trazado 114917" d="M851.768,1358.236l7.4,11.355a2.651,2.651,0,0,0,2.722,1.146c3.407-.644,6.567-3.462,8.441-5.463a3.286,3.286,0,0,0,.289-4.15l-13.91-19.64a3.233,3.233,0,0,0-.543-.048c-5.73,0-4.4,16.8-4.4,16.8" transform="translate(-851.633 -1341.437)" fill="none"/>
    </clipPath>
    <linearGradient id="linear-gradient-8" x1="-3.013" y1="6.107" x2="-3.009" y2="6.107" xlink:href="#linear-gradient-4"/>
    <clipPath id="clip-path-24">
      <path id="Trazado_114918" data-name="Trazado 114918" d="M683.454,1272.945c.1.372,14.892,21.188,14.892,21.188l11.706-8.7-11.084-21.812s-17.257,3.094-15.514,9.32" transform="translate(-683.331 -1263.625)" fill="none"/>
    </clipPath>
    <linearGradient id="linear-gradient-9" x1="-2.077" y1="5.264" x2="-2.074" y2="5.264" xlink:href="#linear-gradient-4"/>
    <clipPath id="clip-path-25">
      <path id="Trazado_114919" data-name="Trazado 114919" d="M641.634,1208.108a2.6,2.6,0,0,1-2.416,1.56,1.339,1.339,0,0,0-.9.387,2.6,2.6,0,0,1-3.34.31,5.333,5.333,0,0,0-6.542.027c-5.388,3.576-3.191,10.327.02,13.432s8.832-1.1,11.128-4.4c1.591-2.285,4.863-2.361,6.722-2.193a2.633,2.633,0,0,1,2.013,1.249l6.458,10.574a2.64,2.64,0,0,1,.309.74c.29,1.167.723,4.244-2.626,4.717a23.821,23.821,0,0,0-6.549,1.523,2.615,2.615,0,0,0-.942,3.889,78.529,78.529,0,0,0,6.609,8.025,2.628,2.628,0,0,0,3.6.168,57.921,57.921,0,0,0,8.507-8.852,2.605,2.605,0,0,0,.219-2.687c-1.609-3.268-5.573-11.418-6.358-13.943-.721-2.321,1.215-4.829,2.319-6.019a2.612,2.612,0,0,0,.688-2.042c-.176-1.758-1.061-4.612-4.96-4.5a2.65,2.65,0,0,1-2.7-2.271,4.559,4.559,0,0,0-4.952-4.222h-.041a6.5,6.5,0,0,0-6.257,4.531" transform="translate(-625.165 -1203.577)" fill="#08306e"/>
    </clipPath>
    <clipPath id="clip-path-26">
      <path id="Trazado_114920" data-name="Trazado 114920" d="M848.929,1296.945c-1.735,2.732,3.628,8.383,3.628,8.383s5.153-.17,3.477-6.658c-.715-2.769-2.184-3.854-3.665-3.854a4.287,4.287,0,0,0-3.441,2.129" transform="translate(-848.583 -1294.816)" fill="none"/>
    </clipPath>
    <linearGradient id="linear-gradient-10" x1="-7.915" y1="14.499" x2="-7.906" y2="14.499" xlink:href="#linear-gradient-4"/>
    <clipPath id="clip-path-27">
      <path id="Trazado_114921" data-name="Trazado 114921" d="M1018.218,1502.927s15.708,5.777,21.553,14.443-3.318,8.666-3.318,8.666l.984,15.853c13.08-1.839,26.818-5.924,20.68-26.685s-34.176-38.644-34.176-38.644a59.934,59.934,0,0,0-13.673-2.08c-22.2,0,7.95,28.448,7.95,28.448" transform="translate(-1002.113 -1474.479)" fill="#ffb74d"/>
    </clipPath>
    <clipPath id="clip-path-28">
      <path id="Trazado_114922" data-name="Trazado 114922" d="M1116.287,1678.354a.361.361,0,0,0,.214.464c.156.057,15.666,5.837,21.378,14.306,1.776,2.633,2.3,4.67,1.569,6.055-1.072,2.019-4.553,2.048-4.588,2.048a.361.361,0,1,0,0,.722c.16,0,3.948-.028,5.224-2.429.871-1.639.331-3.927-1.607-6.8-5.843-8.663-21.082-14.342-21.728-14.58a.361.361,0,0,0-.463.214" transform="translate(-1116.264 -1678.118)" fill="none"/>
    </clipPath>
    <linearGradient id="linear-gradient-11" x1="-4.341" y1="4.626" x2="-4.337" y2="4.626" gradientUnits="objectBoundingBox">
      <stop offset="0" stop-color="#e1473d"/>
      <stop offset="1" stop-color="#e9605a"/>
    </linearGradient>
    <clipPath id="clip-path-30">
      <path id="Trazado_114924" data-name="Trazado 114924" d="M807.675,1823a2.31,2.31,0,0,0,2.3,2.078H816.7a2.31,2.31,0,0,0,2.3-2.113l1.23-14.354L806.12,1807.6Z" transform="translate(-806.12 -1807.602)" fill="none"/>
    </clipPath>
    <linearGradient id="linear-gradient-12" x1="-5.131" y1="7.235" x2="-5.125" y2="7.235" xlink:href="#linear-gradient-11"/>
    <clipPath id="clip-path-32">
      <path id="Trazado_114928" data-name="Trazado 114928" d="M796.879,1861.483s-17.333-2.933-18.162-2.873-12.141,7.027-12.141,7.027.38.808,3.072.659.925.326.925.326l.1,1.36a3.745,3.745,0,0,0,3.377-1.169c1.5-1.6,5.681-2.373,5.681-2.373s8.881,6.563,17.606,3.387l37.053,2.521s4.1-6.77-1.3-14.859Z" transform="translate(-766.576 -1855.488)" fill="none"/>
    </clipPath>
    <linearGradient id="linear-gradient-13" x1="-1.445" y1="6.384" x2="-1.443" y2="6.384" xlink:href="#linear-gradient-4"/>
    <clipPath id="clip-path-34">
      <path id="Trazado_114930" data-name="Trazado 114930" d="M2283.191,2448.582l5.172,34.544c.431,2.876,4.635,5.085,9.677,5.085h28.29c4.986,0,9.163-2.161,9.664-5l6.535-37.054Z" transform="translate(-2283.191 -2446.156)" fill="#ffb74d"/>
    </clipPath>
    <clipPath id="clip-path-35">
      <path id="Trazado_114931" data-name="Trazado 114931" d="M159.979,168.66c-14.09,14.862-20.748,36.074-19.218,56.5.86,11.468,4.351,23.081,11.921,31.739,8.172,9.348,20.5,14.44,32.869,15.5s24.815-1.617,36.5-5.825c13.244-4.77,26.4-12.122,33.466-24.3,4.141-7.137,5.893-15.442,9.866-22.674S276.84,205.921,285,207.168c7.475,1.143,13.2,8.375,20.761,8.581,5.826.159,11.034-4.131,13.736-9.3s3.4-11.106,4.1-16.893,1.49-11.733,4.344-16.815a22.864,22.864,0,0,1,6.305-7.127c1.857-1.378,7.255-2.416,8.373-3.779,2.839-3.46-10.4-.616-12.833,1.291-9.6,7.507-8.71,23.9-18.859,30.646a15.511,15.511,0,0,1-19.572-2.6c-3.738-4.262-4.884-10.41-8.906-14.406-3.522-3.5-8.747-4.776-13.712-4.73s-9.834,1.253-14.738,2.027a13.81,13.81,0,0,1-6-.012c-2.562-.749-4.52-2.79-6.217-4.85-3.971-4.821-7.331-10.3-12.375-13.983a33.553,33.553,0,0,0-13.613-5.424,55.186,55.186,0,0,0-10.348-.967,63.762,63.762,0,0,0-45.458,19.832" transform="translate(-140.546 -148.828)" fill="#ffb74d"/>
    </clipPath>
    <clipPath id="clip-path-36">
      <path id="Trazado_114932" data-name="Trazado 114932" d="M305.869,294.448c-.331-2.648,4.687-5.3,7.017-6.375a.706.706,0,0,1,.99.774c-.839,4.292-4.354,6.951-6.444,6.951a1.434,1.434,0,0,1-1.563-1.35m10.749-5.6a.706.706,0,0,1,.99-.774c2.33,1.08,7.348,3.727,7.017,6.375a1.434,1.434,0,0,1-1.563,1.35c-2.09,0-5.606-2.658-6.444-6.951m7.894-15.479c0-5.655,2.634-10.24,8.289-10.24s12.19,4.584,12.19,10.24a10.24,10.24,0,1,1-20.48,0M285.5,272.88c0-5.655,6.535-10.24,12.19-10.24s8.289,4.585,8.289,10.24a10.24,10.24,0,1,1-20.48,0m-13.409-1.219c0,11.494,5.049,20.219,13.168,26a10.391,10.391,0,0,1,4.386,8.457v13.31a7.087,7.087,0,0,0,7.087,7.087H333.76a7.087,7.087,0,0,0,7.087-7.087v-13.31a10.391,10.391,0,0,1,4.386-8.457c8.119-5.784,13.168-14.508,13.168-26,0-22.487-19.321-41.691-43.154-41.691s-43.154,19.2-43.154,41.691" transform="translate(-272.093 -229.97)" fill="#08306e"/>
    </clipPath>
    <clipPath id="clip-path-37">
      <path id="Trazado_114933" data-name="Trazado 114933" d="M470.891,790.815v16.579a.488.488,0,1,0,.975,0V790.815a.488.488,0,0,0-.975,0" transform="translate(-470.891 -790.328)" fill="none"/>
    </clipPath>
    <linearGradient id="linear-gradient-14" x1="-3.49" y1="33.443" x2="-3.481" y2="33.443" gradientUnits="objectBoundingBox">
      <stop offset="0" stop-color="#ff928e"/>
      <stop offset="1" stop-color="#fe7062"/>
    </linearGradient>
    <clipPath id="clip-path-38">
      <path id="Trazado_114934" data-name="Trazado 114934" d="M515.083,790.815v16.579a.488.488,0,1,0,.975,0V790.815a.488.488,0,0,0-.975,0" transform="translate(-515.083 -790.328)" fill="none"/>
    </clipPath>
    <linearGradient id="linear-gradient-15" x1="-3.861" y1="33.443" x2="-3.853" y2="33.443" xlink:href="#linear-gradient-14"/>
    <clipPath id="clip-path-39">
      <path id="Trazado_114935" data-name="Trazado 114935" d="M559.275,790.815v16.579a.488.488,0,1,0,.975,0V790.815a.488.488,0,0,0-.975,0" transform="translate(-559.275 -790.328)" fill="none"/>
    </clipPath>
    <linearGradient id="linear-gradient-16" x1="-4.233" y1="33.443" x2="-4.225" y2="33.443" xlink:href="#linear-gradient-14"/>
    <clipPath id="clip-path-40">
      <path id="Trazado_114936" data-name="Trazado 114936" d="M603.468,790.815v16.579a.488.488,0,1,0,.975,0V790.815a.488.488,0,0,0-.975,0" transform="translate(-603.468 -790.328)" fill="none"/>
    </clipPath>
    <linearGradient id="linear-gradient-17" x1="-4.605" y1="33.443" x2="-4.596" y2="33.443" xlink:href="#linear-gradient-14"/>
    <clipPath id="clip-path-41">
      <path id="Trazado_114937" data-name="Trazado 114937" d="M647.66,790.815v16.579a.488.488,0,1,0,.975,0V790.815a.488.488,0,0,0-.975,0" transform="translate(-647.66 -790.328)" fill="none"/>
    </clipPath>
    <linearGradient id="linear-gradient-18" x1="-4.976" y1="33.443" x2="-4.968" y2="33.443" xlink:href="#linear-gradient-14"/>
    <clipPath id="clip-path-42">
      <path id="Trazado_114938" data-name="Trazado 114938" d="M691.852,790.815v16.579a.488.488,0,1,0,.975,0V790.815a.488.488,0,0,0-.975,0" transform="translate(-691.852 -790.328)" fill="none"/>
    </clipPath>
    <linearGradient id="linear-gradient-19" x1="-5.348" y1="33.443" x2="-5.34" y2="33.443" xlink:href="#linear-gradient-14"/>
  </defs>
  <g id="Grupo_81025" data-name="Grupo 81025" clip-path="url(#clip-path)">
    <g id="Grupo_80942" data-name="Grupo 80942" transform="translate(0 -0.001)">
      <g id="Grupo_80941" data-name="Grupo 80941" clip-path="url(#clip-path-2)">
        <rect id="Rectángulo_46687" data-name="Rectángulo 46687" width="556.523" height="555.356" transform="matrix(0.734, -0.68, 0.68, 0.734, -211.365, 176.709)" fill="url(#linear-gradient)"/>
      </g>
    </g>
    <g id="Grupo_80950" data-name="Grupo 80950" transform="translate(0 -0.001)">
      <g id="Grupo_80949" data-name="Grupo 80949" clip-path="url(#clip-path-3)">
        <path id="Trazado_114888" data-name="Trazado 114888" d="M2150.381,91.167a2.216,2.216,0,0,0-3.97-1.425c-13.34,17.251-44,67.425-22.265,143.067,27.268,94.9,12.753,133.445-8.9,159,0,0,32.846-15.642,48.8-54.946,39.172-96.5-15.255-207.546-13.667-245.7" transform="translate(-1823.502 -76.618)" fill="#bdd0fb"/>
        <g id="Grupo_80945" data-name="Grupo 80945" transform="translate(301.323 46.102)" style="mix-blend-mode: soft-light;isolation: isolate">
          <g id="Grupo_80944" data-name="Grupo 80944">
            <g id="Grupo_80943" data-name="Grupo 80943" clip-path="url(#clip-path-4)">
              <path id="Trazado_114889" data-name="Trazado 114889" d="M2203.131,334.838c-.241,11.089-.263,22.177.12,33.25q.488,16.609,1.99,33.153c1.046,11.017,2.3,22.012,4.018,32.938,1.669,10.933,3.806,21.782,5.989,32.667,2.121,10.891,4.32,21.851,5.4,33.069a112.507,112.507,0,0,1-1.458,33.819c-.582,2.772-1.216,5.544-2.008,8.252-.742,2.723-1.6,5.414-2.515,8.089a116.672,116.672,0,0,1-26.283,43.12,2.144,2.144,0,0,1-3.158-2.9l.006-.006c1.824-2.041,3.623-4.1,5.323-6.232.868-1.053,1.687-2.142,2.526-3.215.8-1.1,1.638-2.177,2.4-3.3a113.044,113.044,0,0,0,8.384-13.98,123.922,123.922,0,0,0,10.7-30.757,107.956,107.956,0,0,0,1.971-16.143,122.367,122.367,0,0,0-.414-16.328c-.969-10.9-3.056-21.767-5.1-32.673s-3.993-21.889-5.5-32.931q-1.155-8.277-2.011-16.59c-.3-2.769-.549-5.543-.8-8.315q-.339-4.163-.625-8.329-1.1-16.667-1.164-33.366c.013-11.126.322-22.247,1.058-33.338a.575.575,0,0,1,1.149.051" transform="translate(-2184.687 -334.25)" fill="#fff"/>
            </g>
          </g>
        </g>
        <path id="Trazado_114890" data-name="Trazado 114890" d="M2234.07,860.615a5.572,5.572,0,0,0,9.1,1.653c15.256-15.62,54.4-63.682,45.766-138.56-7.288-63.231-5.231-98.21-3.2-114.024a3.494,3.494,0,0,0-5.991-2.859c-25.729,26.865-102.507,122.147-45.68,253.79" transform="translate(-1908.285 -522.188)" fill="#91b3fa"/>
        <g id="Grupo_80948" data-name="Grupo 80948" transform="translate(330.366 155.068)" style="mix-blend-mode: soft-light;isolation: isolate">
          <g id="Grupo_80947" data-name="Grupo 80947">
            <g id="Grupo_80946" data-name="Grupo 80946" clip-path="url(#clip-path-5)">
              <path id="Trazado_114891" data-name="Trazado 114891" d="M2396.033,1307.36a1.518,1.518,0,0,0,.272.124,1.545,1.545,0,0,0,1.965-.955c.316-.914,31.542-92.423,25.38-180.8a1.545,1.545,0,1,0-3.083.215c6.117,87.733-24.9,178.666-25.217,179.574a1.545,1.545,0,0,0,.684,1.841" transform="translate(-2395.264 -1124.292)" fill="#fff"/>
            </g>
          </g>
        </g>
      </g>
    </g>
    <g id="Grupo_80952" data-name="Grupo 80952" transform="translate(147.164 158.747)">
      <g id="Grupo_80951" data-name="Grupo 80951" clip-path="url(#clip-path-6)">
        <rect id="Rectángulo_46691" data-name="Rectángulo 46691" width="240.619" height="267.554" transform="translate(-60.231 17.245) rotate(-16.074)" fill="#08306e"/>
      </g>
    </g>
    <g id="Grupo_80954" data-name="Grupo 80954" transform="translate(189.665 77.398)">
      <g id="Grupo_80953" data-name="Grupo 80953" clip-path="url(#clip-path-7)">
        <rect id="Rectángulo_46692" data-name="Rectángulo 46692" width="121.326" height="115.486" transform="translate(-24.315 7.006) rotate(-16.074)" fill="#08306e"/>
      </g>
    </g>
    <g id="Grupo_80956" data-name="Grupo 80956" transform="translate(213.768 70.368)">
      <g id="Grupo_80955" data-name="Grupo 80955" clip-path="url(#clip-path-8)">
        <rect id="Rectángulo_46693" data-name="Rectángulo 46693" width="51.722" height="16.571" transform="translate(0 0)" fill="#42a5f5"/>
      </g>
    </g>
    <g id="Grupo_80958" data-name="Grupo 80958" transform="translate(213.836 15.633)">
      <g id="Grupo_80957" data-name="Grupo 80957" clip-path="url(#clip-path-9)">
        <rect id="Rectángulo_46695" data-name="Rectángulo 46695" width="75.281" height="75.052" transform="translate(-27.208 30.314) rotate(-48.09)" fill="#42a5f5"/>
      </g>
    </g>
    <g id="Grupo_80960" data-name="Grupo 80960" transform="translate(215.844 146.193)">
      <g id="Grupo_80959" data-name="Grupo 80959" clip-path="url(#clip-path-10)">
        <rect id="Rectángulo_46697" data-name="Rectángulo 46697" width="46.198" height="46.198" transform="translate(0 0)" fill="#42a5f5"/>
      </g>
    </g>
    <g id="Grupo_80962" data-name="Grupo 80962" transform="translate(176.143 218.503)">
      <g id="Grupo_80961" data-name="Grupo 80961" clip-path="url(#clip-path-11)">
        <rect id="Rectángulo_46698" data-name="Rectángulo 46698" width="161.398" height="163.065" transform="translate(-51.92 57.568) rotate(-48.09)" fill="#42a5f5"/>
      </g>
    </g>
    <g id="Grupo_80964" data-name="Grupo 80964" transform="translate(0 -0.001)">
      <g id="Grupo_80963" data-name="Grupo 80963" clip-path="url(#clip-path-3)">
        <path id="Trazado_114896" data-name="Trazado 114896" d="M1164.578,1293.686a.2.2,0,0,1-.056-.007c-.255-.069-.3-.081.094-7.591.216-4.1.552-9.949,1-17.378.816-13.549,1.818-29.332,2.343-37.534a7.323,7.323,0,0,1,7.2-6.894l18.052-.368a.233.233,0,0,1,.009.467l-18.051.368a6.859,6.859,0,0,0-6.746,6.457c-2.4,37.451-3.747,60.555-3.63,62.116a.233.233,0,0,1,.01.226.261.261,0,0,1-.225.139" transform="translate(-1003.736 -1055.104)" fill="#91b3fa"/>
        <path id="Trazado_114897" data-name="Trazado 114897" d="M2027.681,1844.183a.233.233,0,0,1-.011-.467l34.281-1.672a6.816,6.816,0,0,0,6.518-7l-2.857-126.671a.234.234,0,0,1,.228-.239.228.228,0,0,1,.239.228l2.857,126.671a7.28,7.28,0,0,1-6.962,7.476l-34.281,1.672h-.011" transform="translate(-1747.813 -1472.54)" fill="#91b3fa"/>
        <path id="Trazado_114898" data-name="Trazado 114898" d="M1471.786,1746.762h-90.058a6.885,6.885,0,0,1-6.874-7.264l3.785-68.548a6.887,6.887,0,0,1,6.874-6.505h84.171a6.854,6.854,0,0,1,6.882,6.674l2.1,68.548a6.885,6.885,0,0,1-6.882,7.1m-86.273-81.851a6.42,6.42,0,0,0-6.408,6.064l-3.785,68.548a6.419,6.419,0,0,0,6.408,6.772h90.058a6.418,6.418,0,0,0,6.415-6.615l-2.1-68.548a6.389,6.389,0,0,0-6.415-6.221Zm-10.426,74.6h0Z" transform="translate(-1185.218 -1434.876)" fill="#91b3fa"/>
        <path id="Trazado_114899" data-name="Trazado 114899" d="M1601.709,204.082a.233.233,0,0,1-.233-.233V164.681a.233.233,0,0,1,.467,0v39.168a.233.233,0,0,1-.234.233" transform="translate(-1380.593 -141.766)" fill="#91b3fa"/>
        <path id="Trazado_114900" data-name="Trazado 114900" d="M1652.681,204.082a.233.233,0,0,1-.233-.233V164.681a.233.233,0,0,1,.467,0v39.168a.233.233,0,0,1-.234.233" transform="translate(-1424.534 -141.766)" fill="#91b3fa"/>
        <path id="Trazado_114901" data-name="Trazado 114901" d="M1703.652,204.082a.233.233,0,0,1-.233-.233V164.681a.233.233,0,0,1,.467,0v39.168a.233.233,0,0,1-.233.233" transform="translate(-1468.475 -141.766)" fill="#91b3fa"/>
        <path id="Trazado_114902" data-name="Trazado 114902" d="M1754.623,204.082a.233.233,0,0,1-.234-.233V164.681a.233.233,0,0,1,.467,0v39.168a.233.233,0,0,1-.233.233" transform="translate(-1512.415 -141.766)" fill="#91b3fa"/>
        <path id="Trazado_114903" data-name="Trazado 114903" d="M1805.6,204.082a.233.233,0,0,1-.233-.233V164.681a.233.233,0,0,1,.467,0v39.168a.233.233,0,0,1-.234.233" transform="translate(-1556.358 -141.766)" fill="#91b3fa"/>
        <path id="Trazado_114904" data-name="Trazado 114904" d="M1856.566,204.082a.233.233,0,0,1-.234-.233V164.681a.233.233,0,0,1,.467,0v39.168a.233.233,0,0,1-.233.233" transform="translate(-1600.298 -141.766)" fill="#91b3fa"/>
        <path id="Trazado_114905" data-name="Trazado 114905" d="M1892.973,204.082a.233.233,0,0,1-.233-.233V164.681a.233.233,0,0,1,.467,0v39.168a.233.233,0,0,1-.233.233" transform="translate(-1631.684 -141.766)" fill="#91b3fa"/>
        <rect id="Rectángulo_46699" data-name="Rectángulo 46699" width="5.723" height="61.89" transform="translate(154.322 321.918)" fill="#7d97f4"/>
        <path id="Trazado_114906" data-name="Trazado 114906" d="M957.917,2768.1h50.125v-1.7a2.022,2.022,0,0,0-2.022-2.022H960.1a2.179,2.179,0,0,0-2.179,2.179Z" transform="translate(-825.797 -2383.094)" fill="#7d97f4"/>
        <path id="Rectángulo_46700" data-name="Rectángulo 46700" d="M8.937,0H54.086a8.937,8.937,0,0,1,8.937,8.937v0a8.937,8.937,0,0,1-8.937,8.937H8.937A8.937,8.937,0,0,1,0,8.937v0A8.937,8.937,0,0,1,8.937,0Z" transform="translate(124.681 308.05)" fill="#7d97f4"/>
      </g>
    </g>
    <g id="Grupo_80966" data-name="Grupo 80966" transform="translate(15.88 357.805)">
      <g id="Grupo_80965" data-name="Grupo 80965" clip-path="url(#clip-path-13)">
        <rect id="Rectángulo_46702" data-name="Rectángulo 46702" width="37.14" height="24.051" transform="matrix(0.978, -0.206, 0.206, 0.978, -3.502, 0.738)" fill="url(#linear-gradient-2)"/>
      </g>
    </g>
    <g id="Grupo_80968" data-name="Grupo 80968" transform="translate(0 -0.001)">
      <g id="Grupo_80967" data-name="Grupo 80967" clip-path="url(#clip-path-3)">
        <path id="Trazado_114908" data-name="Trazado 114908" d="M110.72,2600.558c4.912,7.478,24.575,14.477,27.141,15.723a3.965,3.965,0,0,0,3.729-.081l-.017.027a3.326,3.326,0,0,1-3.984,1.217c-5.531-2.184-19.634-8.082-26.942-14.128a1.758,1.758,0,0,1,.074-2.758" transform="translate(-94.84 -2241.876)" fill="#91b3fa"/>
      </g>
    </g>
    <g id="Grupo_80970" data-name="Grupo 80970" transform="translate(16.559 364.343)">
      <g id="Grupo_80969" data-name="Grupo 80969" clip-path="url(#clip-path-15)">
        <rect id="Rectángulo_46704" data-name="Rectángulo 46704" width="25.009" height="37.441" transform="translate(-4.008 16.367) rotate(-76.239)" fill="url(#linear-gradient-3)"/>
      </g>
    </g>
    <g id="Grupo_80972" data-name="Grupo 80972" transform="translate(0 -0.001)">
      <g id="Grupo_80971" data-name="Grupo 80971" clip-path="url(#clip-path-3)">
        <path id="Trazado_114910" data-name="Trazado 114910" d="M115.641,2647.963c4.912,7.478,24.575,14.477,27.141,15.723a3.965,3.965,0,0,0,3.729-.082l-.017.027a3.325,3.325,0,0,1-3.984,1.217c-5.531-2.184-19.634-8.082-26.942-14.128a1.758,1.758,0,0,1,.074-2.758" transform="translate(-99.082 -2282.742)" fill="#91b3fa"/>
      </g>
    </g>
    <g id="Grupo_80974" data-name="Grupo 80974" transform="translate(43.163 356.253)">
      <g id="Grupo_80973" data-name="Grupo 80973" clip-path="url(#clip-path-17)">
        <rect id="Rectángulo_46706" data-name="Rectángulo 46706" width="13.973" height="13.777" transform="translate(-4.761 2.931) rotate(-33.402)" fill="url(#linear-gradient-4)"/>
      </g>
    </g>
    <g id="Grupo_80976" data-name="Grupo 80976" transform="translate(46.73 289.84)">
      <g id="Grupo_80975" data-name="Grupo 80975" clip-path="url(#clip-path-18)">
        <rect id="Rectángulo_46707" data-name="Rectángulo 46707" width="112.607" height="100.056" transform="translate(-22.915 7.939) rotate(-19.215)" fill="url(#linear-gradient-5)"/>
      </g>
    </g>
    <g id="Grupo_80978" data-name="Grupo 80978" transform="translate(42.835 360.908)">
      <g id="Grupo_80977" data-name="Grupo 80977" clip-path="url(#clip-path-19)">
        <rect id="Rectángulo_46708" data-name="Rectángulo 46708" width="14.45" height="13.889" transform="translate(-3.203 11.024) rotate(-74.303)" fill="url(#linear-gradient-6)"/>
      </g>
    </g>
    <g id="Grupo_80980" data-name="Grupo 80980" transform="translate(47.512 283.957)">
      <g id="Grupo_80979" data-name="Grupo 80979" clip-path="url(#clip-path-20)">
        <rect id="Rectángulo_46709" data-name="Rectángulo 46709" width="132.992" height="157.384" transform="translate(-32.184 70.711) rotate(-65.63)" fill="#08306e"/>
      </g>
    </g>
    <g id="Grupo_80982" data-name="Grupo 80982" transform="translate(98.645 202.259)">
      <g id="Grupo_80981" data-name="Grupo 80981" clip-path="url(#clip-path-21)">
        <rect id="Rectángulo_46710" data-name="Rectángulo 46710" width="133.283" height="132.907" transform="translate(-43.904 29.079) rotate(-33.518)" fill="#ffb74d"/>
      </g>
    </g>
    <g id="Grupo_80984" data-name="Grupo 80984" transform="translate(91.766 202.665)">
      <g id="Grupo_80983" data-name="Grupo 80983" clip-path="url(#clip-path-22)">
        <rect id="Rectángulo_46711" data-name="Rectángulo 46711" width="30.646" height="66.255" transform="translate(-6.382 0)" fill="url(#linear-gradient-7)"/>
      </g>
    </g>
    <g id="Grupo_80986" data-name="Grupo 80986" transform="translate(117.461 185.017)">
      <g id="Grupo_80985" data-name="Grupo 80985" clip-path="url(#clip-path-23)">
        <rect id="Rectángulo_46712" data-name="Rectángulo 46712" width="36.097" height="33.036" transform="matrix(0.501, -0.865, 0.865, 0.501, -13.996, 22.086)" fill="url(#linear-gradient-8)"/>
      </g>
    </g>
    <g id="Grupo_80988" data-name="Grupo 80988" transform="translate(94.248 174.285)">
      <g id="Grupo_80987" data-name="Grupo 80987" clip-path="url(#clip-path-24)">
        <rect id="Rectángulo_46713" data-name="Rectángulo 46713" width="41.441" height="41.029" transform="translate(-16.322 19.321) rotate(-52.731)" fill="url(#linear-gradient-9)"/>
      </g>
    </g>
    <g id="Grupo_80990" data-name="Grupo 80990" transform="translate(86.226 166.003)">
      <g id="Grupo_80989" data-name="Grupo 80989" clip-path="url(#clip-path-25)">
        <rect id="Rectángulo_46714" data-name="Rectángulo 46714" width="52.01" height="54.896" transform="translate(-13.923 3.305) rotate(-15.646)" fill="#08306e"/>
      </g>
    </g>
    <g id="Grupo_80992" data-name="Grupo 80992" transform="translate(117.041 178.587)">
      <g id="Grupo_80991" data-name="Grupo 80991" clip-path="url(#clip-path-26)">
        <rect id="Rectángulo_46715" data-name="Rectángulo 46715" width="14.368" height="14.37" transform="translate(-5.95 7.87) rotate(-59.911)" fill="url(#linear-gradient-10)"/>
      </g>
    </g>
    <g id="Grupo_80994" data-name="Grupo 80994" transform="translate(138.216 203.367)">
      <g id="Grupo_80993" data-name="Grupo 80993" clip-path="url(#clip-path-27)">
        <rect id="Rectángulo_46716" data-name="Rectángulo 46716" width="100.739" height="98.269" transform="translate(-45.075 20.555) rotate(-33.518)" fill="#ffb74d"/>
      </g>
    </g>
    <g id="Grupo_80996" data-name="Grupo 80996" transform="translate(153.961 231.454)">
      <g id="Grupo_80995" data-name="Grupo 80995" clip-path="url(#clip-path-28)">
        <rect id="Rectángulo_46717" data-name="Rectángulo 46717" width="34.349" height="34.325" transform="translate(-11.953 11.467) rotate(-43.923)" fill="url(#linear-gradient-11)"/>
      </g>
    </g>
    <g id="Grupo_80998" data-name="Grupo 80998" transform="translate(0 -0.001)">
      <g id="Grupo_80997" data-name="Grupo 80997" clip-path="url(#clip-path-3)">
        <path id="Trazado_114923" data-name="Trazado 114923" d="M796.912,1749.373h10.8a2.606,2.606,0,0,0,2.6-2.469l1.406-26.715a2.606,2.606,0,0,0-2.6-2.743H796.068a2.606,2.606,0,0,0-2.6,2.688l.844,26.715a2.606,2.606,0,0,0,2.6,2.524" transform="translate(-684.024 -1480.567)" fill="#bdd0fb"/>
      </g>
    </g>
    <g id="Grupo_81000" data-name="Grupo 81000" transform="translate(111.184 249.313)">
      <g id="Grupo_80999" data-name="Grupo 80999" clip-path="url(#clip-path-30)">
        <rect id="Rectángulo_46719" data-name="Rectángulo 46719" width="20.998" height="18.849" transform="matrix(0.311, -0.95, 0.95, 0.311, -5.164, 15.786)" fill="url(#linear-gradient-12)"/>
      </g>
    </g>
    <g id="Grupo_81002" data-name="Grupo 81002" transform="translate(0 -0.001)">
      <g id="Grupo_81001" data-name="Grupo 81001" clip-path="url(#clip-path-3)">
        <path id="Trazado_114925" data-name="Trazado 114925" d="M580.871,2092.521a2.1,2.1,0,0,0,.849-.18,2.223,2.223,0,0,0,1.126-2.894l-45.105-107.4a2.132,2.132,0,0,0-2.826-1.153,2.223,2.223,0,0,0-1.126,2.894l45.105,107.4a2.151,2.151,0,0,0,1.977,1.333" transform="translate(-460.015 -1707.52)" fill="#91b3fa"/>
        <path id="Trazado_114926" data-name="Trazado 114926" d="M494.4,2092.518a2.149,2.149,0,0,0,1.977-1.333l45.105-107.4a2.224,2.224,0,0,0-1.126-2.894,2.132,2.132,0,0,0-2.826,1.153l-45.105,107.4a2.223,2.223,0,0,0,1.126,2.894,2.1,2.1,0,0,0,.849.18" transform="translate(-424.356 -1707.517)" fill="#91b3fa"/>
        <path id="Trazado_114927" data-name="Trazado 114927" d="M354.878,1950.22a4.442,4.442,0,0,1,.218-1.877c.2-.523.49-.826.8-.826H460.742c.407,0,.786.454,1.005,1.206a5.42,5.42,0,0,1,.078,2.505l-1.136,5.388c-.26,1.234-.824,2.024-1.444,2.024H356.615c-.577,0-1.073-.9-1.183-2.138Z" transform="translate(-305.915 -1678.905)" fill="#7d97f4"/>
      </g>
    </g>
    <g id="Grupo_81004" data-name="Grupo 81004" transform="translate(105.73 255.918)">
      <g id="Grupo_81003" data-name="Grupo 81003" clip-path="url(#clip-path-32)">
        <rect id="Rectángulo_46721" data-name="Rectángulo 46721" width="72.833" height="20.622" transform="translate(-1.108 0.08) rotate(-4.106)" fill="url(#linear-gradient-13)"/>
      </g>
    </g>
    <g id="Grupo_81006" data-name="Grupo 81006" transform="translate(0 -0.001)">
      <g id="Grupo_81005" data-name="Grupo 81005" clip-path="url(#clip-path-3)">
        <path id="Trazado_114929" data-name="Trazado 114929" d="M2272.333,2306.029h-45.393c-5.827,0-10.635-2.611-10.941-5.942l-5.911-64.289c-.33-3.588,4.664-6.6,10.94-6.6h54.85c6.186,0,11.145,2.93,10.95,6.469l-3.547,64.289c-.187,3.385-5.034,6.073-10.95,6.073" transform="translate(-1905.25 -1921.736)" fill="#bdd0fb"/>
      </g>
    </g>
    <g id="Grupo_81008" data-name="Grupo 81008" transform="translate(314.909 337.385)">
      <g id="Grupo_81007" data-name="Grupo 81007" clip-path="url(#clip-path-34)">
        <rect id="Rectángulo_46723" data-name="Rectángulo 46723" width="64.852" height="72.096" transform="matrix(0.466, -0.885, 0.885, 0.466, -17.333, 32.933)" fill="#ffb74d"/>
      </g>
    </g>
    <g id="Grupo_81010" data-name="Grupo 81010" transform="translate(19.385 20.527)">
      <g id="Grupo_81009" data-name="Grupo 81009" clip-path="url(#clip-path-35)">
        <rect id="Rectángulo_46724" data-name="Rectángulo 46724" width="224.213" height="239.534" transform="translate(-61.431 78.711) rotate(-52.629)" fill="#ffb74d"/>
      </g>
    </g>
    <g id="Grupo_81012" data-name="Grupo 81012" transform="translate(37.528 31.719)">
      <g id="Grupo_81011" data-name="Grupo 81011" clip-path="url(#clip-path-36)">
        <rect id="Rectángulo_46725" data-name="Rectángulo 46725" width="89.217" height="99.139" transform="translate(-2.947 0.09) rotate(-1.75)" fill="#08306e"/>
      </g>
    </g>
    <g id="Grupo_81014" data-name="Grupo 81014" transform="translate(64.948 109.006)">
      <g id="Grupo_81013" data-name="Grupo 81013" clip-path="url(#clip-path-37)">
        <rect id="Rectángulo_46726" data-name="Rectángulo 46726" width="16.401" height="8.112" transform="translate(-6.583 14.583) rotate(-65.704)" fill="url(#linear-gradient-14)"/>
      </g>
    </g>
    <g id="Grupo_81016" data-name="Grupo 81016" transform="translate(71.043 109.006)">
      <g id="Grupo_81015" data-name="Grupo 81015" clip-path="url(#clip-path-38)">
        <rect id="Rectángulo_46727" data-name="Rectángulo 46727" width="16.401" height="8.112" transform="translate(-6.583 14.583) rotate(-65.704)" fill="url(#linear-gradient-15)"/>
      </g>
    </g>
    <g id="Grupo_81018" data-name="Grupo 81018" transform="translate(77.138 109.006)">
      <g id="Grupo_81017" data-name="Grupo 81017" clip-path="url(#clip-path-39)">
        <rect id="Rectángulo_46728" data-name="Rectángulo 46728" width="16.401" height="8.112" transform="matrix(0.411, -0.911, 0.911, 0.411, -6.583, 14.583)" fill="url(#linear-gradient-16)"/>
      </g>
    </g>
    <g id="Grupo_81020" data-name="Grupo 81020" transform="translate(83.233 109.006)">
      <g id="Grupo_81019" data-name="Grupo 81019" clip-path="url(#clip-path-40)">
        <rect id="Rectángulo_46729" data-name="Rectángulo 46729" width="16.401" height="8.111" transform="translate(-6.583 14.582) rotate(-65.704)" fill="url(#linear-gradient-17)"/>
      </g>
    </g>
    <g id="Grupo_81022" data-name="Grupo 81022" transform="translate(89.328 109.006)">
      <g id="Grupo_81021" data-name="Grupo 81021" clip-path="url(#clip-path-41)">
        <rect id="Rectángulo_46730" data-name="Rectángulo 46730" width="16.401" height="8.111" transform="translate(-6.583 14.583) rotate(-65.704)" fill="url(#linear-gradient-18)"/>
      </g>
    </g>
    <g id="Grupo_81024" data-name="Grupo 81024" transform="translate(95.424 109.006)">
      <g id="Grupo_81023" data-name="Grupo 81023" clip-path="url(#clip-path-42)">
        <rect id="Rectángulo_46731" data-name="Rectángulo 46731" width="16.401" height="8.112" transform="matrix(0.411, -0.911, 0.911, 0.411, -6.583, 14.582)" fill="url(#linear-gradient-19)"/>
      </g>
    </g>
  </g>
</svg>
